<?xml version="1.0" standalone="no"?>
<!DOCTYPE svg PUBLIC "-//W3C//DTD SVG 20010904//EN"
 "http://www.w3.org/TR/2001/REC-SVG-20010904/DTD/svg10.dtd">
<svg version="1.0" xmlns="http://www.w3.org/2000/svg"
 width="512.000000pt" height="512.000000pt" viewBox="0 0 512.000000 512.000000"
 preserveAspectRatio="xMidYMid meet">
<metadata>
Created by potrace 1.14, written by Peter Selinger 2001-2017
</metadata>
<g transform="translate(0.000000,512.000000) scale(0.100000,-0.100000)"
fill="#000000" stroke="none">
<path d="M2750 3659 c-130 -22 -258 -72 -375 -146 -73 -47 -255 -224 -255
-249 0 -8 -4 -14 -10 -14 -5 0 -10 -6 -10 -14 0 -8 -4 -16 -9 -18 -4 -1 -24
-37 -44 -78 -53 -111 -94 -280 -97 -398 0 -13 -4 -21 -9 -17 -21 12 -128 12
-188 -1 -206 -43 -365 -231 -372 -438 -2 -54 -5 -63 -29 -81 -64 -47 -111 -99
-140 -152 -105 -200 -13 -440 201 -526 52 -21 60 -21 1027 -22 942 0 977 1
1025 19 107 42 178 107 224 205 22 48 26 69 26 151 0 87 -3 101 -33 163 -18
37 -37 67 -41 67 -19 0 -21 34 -3 54 33 36 100 155 126 225 60 156 78 337 50
498 -65 375 -351 676 -719 758 -91 20 -264 27 -345 14z"/>
</g>
</svg>
