<svg width="400" height="400" viewBox="0 0 400 400" fill="none" xmlns="http://www.w3.org/2000/svg">
<g filter="url(#filter0_di_32_124)">
<path d="M334 170.938C334 231.689 284.751 280.938 224 280.938C163.249 280.938 114 231.689 114 170.938C114 110.186 163.249 60.9376 224 60.9376C284.751 60.9376 334 110.186 334 170.938Z" fill="url(#paint0_linear_32_124)"/>
</g>
<g filter="url(#filter1_b_32_124)">
<g filter="url(#filter2_i_32_124)">
<path d="M271.214 229.223C271.807 225.851 272.116 222.383 272.116 218.844C272.116 185.729 245.075 158.885 211.719 158.885C186.922 158.885 165.614 173.721 156.313 194.94C148.778 188.481 138.999 184.582 128.314 184.582C104.488 184.582 85.1736 203.969 85.1736 227.885C85.1736 229.217 85.2334 230.534 85.3507 231.835C73.8909 237.408 66 249.101 66 262.623C66 281.545 81.4517 296.885 100.512 296.885H263.488C282.548 296.885 298 281.545 298 262.623C298 246.337 286.555 232.706 271.214 229.223Z" fill="url(#paint1_linear_32_124)"/>
</g>
</g>
<path d="M99.3252 277.973C99.3252 277.973 200.899 278.947 222.891 272.56C244.883 266.173 244.855 233.025 222.891 224.854C200.927 216.683 193.421 245.89 193.421 245.89" stroke="#D0D0D0" stroke-width="20" stroke-linecap="round"/>
<path d="M66 312.069C66 312.069 140.544 305.334 173.407 312.069C206.269 318.804 195.805 338.125 180.231 339.008C164.656 339.892 150.284 329.658 150.284 329.658" stroke="#D0D0D0" stroke-width="20" stroke-linecap="round"/>
<path d="M224.662 312.019H254.299" stroke="#D0D0D0" stroke-width="20" stroke-linecap="round"/>
<defs>
<filter id="filter0_di_32_124" x="81" y="56.9376" width="286" height="286" filterUnits="userSpaceOnUse" color-interpolation-filters="sRGB">
<feFlood flood-opacity="0" result="BackgroundImageFix"/>
<feColorMatrix in="SourceAlpha" type="matrix" values="0 0 0 0 0 0 0 0 0 0 0 0 0 0 0 0 0 0 127 0" result="hardAlpha"/>
<feOffset dy="29"/>
<feGaussianBlur stdDeviation="16.5"/>
<feComposite in2="hardAlpha" operator="out"/>
<feColorMatrix type="matrix" values="0 0 0 0 0.283997 0 0 0 0 0.1825 0 0 0 0 0.9125 0 0 0 0.68 0"/>
<feBlend mode="normal" in2="BackgroundImageFix" result="effect1_dropShadow_32_124"/>
<feBlend mode="normal" in="SourceGraphic" in2="effect1_dropShadow_32_124" result="shape"/>
<feColorMatrix in="SourceAlpha" type="matrix" values="0 0 0 0 0 0 0 0 0 0 0 0 0 0 0 0 0 0 127 0" result="hardAlpha"/>
<feOffset dy="5"/>
<feGaussianBlur stdDeviation="9"/>
<feComposite in2="hardAlpha" operator="arithmetic" k2="-1" k3="1"/>
<feColorMatrix type="matrix" values="0 0 0 0 1 0 0 0 0 1 0 0 0 0 1 0 0 0 0.81 0"/>
<feBlend mode="normal" in2="shape" result="effect2_innerShadow_32_124"/>
</filter>
<filter id="filter1_b_32_124" x="39" y="131.885" width="286" height="192" filterUnits="userSpaceOnUse" color-interpolation-filters="sRGB">
<feFlood flood-opacity="0" result="BackgroundImageFix"/>
<feGaussianBlur in="BackgroundImageFix" stdDeviation="13.5"/>
<feComposite in2="SourceAlpha" operator="in" result="effect1_backgroundBlur_32_124"/>
<feBlend mode="normal" in="SourceGraphic" in2="effect1_backgroundBlur_32_124" result="shape"/>
</filter>
<filter id="filter2_i_32_124" x="66" y="158.885" width="232" height="148" filterUnits="userSpaceOnUse" color-interpolation-filters="sRGB">
<feFlood flood-opacity="0" result="BackgroundImageFix"/>
<feBlend mode="normal" in="SourceGraphic" in2="BackgroundImageFix" result="shape"/>
<feColorMatrix in="SourceAlpha" type="matrix" values="0 0 0 0 0 0 0 0 0 0 0 0 0 0 0 0 0 0 127 0" result="hardAlpha"/>
<feOffset dy="11"/>
<feGaussianBlur stdDeviation="5"/>
<feComposite in2="hardAlpha" operator="arithmetic" k2="-1" k3="1"/>
<feColorMatrix type="matrix" values="0 0 0 0 1 0 0 0 0 1 0 0 0 0 1 0 0 0 1 0"/>
<feBlend mode="normal" in2="shape" result="effect1_innerShadow_32_124"/>
</filter>
<linearGradient id="paint0_linear_32_124" x1="207.291" y1="230.811" x2="297.797" y2="72.0769" gradientUnits="userSpaceOnUse">
<stop stop-color="#FF9900"/>
<stop offset="1" stop-color="#FFEE94"/>
</linearGradient>
<linearGradient id="paint1_linear_32_124" x1="80.7562" y1="284.564" x2="315.141" y2="109.638" gradientUnits="userSpaceOnUse">
<stop stop-color="white"/>
<stop offset="1" stop-color="white" stop-opacity="0.58"/>
</linearGradient>
</defs>
</svg>
