<svg width="400" height="400" viewBox="0 0 400 400" fill="none" xmlns="http://www.w3.org/2000/svg">
<g filter="url(#filter0_i_32_213)">
<path d="M257.065 101.975C257.484 99.605 257.702 97.1673 257.702 94.6793C257.702 71.4033 238.588 52.5344 215.008 52.5344C197.479 52.5344 182.417 62.9626 175.842 77.8772C170.515 73.3375 163.603 70.5965 156.05 70.5965C139.207 70.5965 125.554 84.224 125.554 101.034C125.554 101.971 125.596 102.897 125.679 103.811C117.578 107.728 112 115.947 112 125.452C112 138.752 122.923 149.534 136.397 149.534H251.603C265.077 149.534 276 138.752 276 125.452C276 114.005 267.909 104.423 257.065 101.975Z" fill="url(#paint0_linear_32_213)"/>
</g>
<g filter="url(#filter1_f_32_213)">
<path d="M218.578 60.8744C192.665 96.0574 188.172 144.073 211.031 183.666C233.89 223.259 277.719 243.375 321.145 238.525C311.912 251.062 299.958 261.969 285.554 270.286C230.725 301.942 161.143 284.07 130.138 230.369C99.134 176.668 118.448 107.473 173.277 75.8171C187.682 67.5006 203.104 62.6025 218.578 60.8744Z" fill="#FFEE94"/>
</g>
<g filter="url(#filter2_i_32_213)">
<path d="M216.162 75.7002C192.508 107.816 188.406 151.647 209.273 187.788C230.139 223.93 270.148 242.293 309.788 237.866C301.36 249.31 290.448 259.266 277.3 266.858C227.25 295.754 163.733 279.441 135.431 230.421C107.129 181.401 124.76 118.237 174.81 89.3404C187.959 81.7489 202.037 77.2777 216.162 75.7002Z" fill="url(#paint1_linear_32_213)"/>
</g>
<g filter="url(#filter3_b_32_213)">
<g filter="url(#filter4_i_32_213)">
<path d="M292.447 288.207C292.968 285.251 293.24 282.211 293.24 279.107C293.24 250.072 269.463 226.534 240.132 226.534C218.328 226.534 199.592 239.543 191.413 258.148C184.787 252.485 176.189 249.065 166.793 249.065C145.843 249.065 128.859 266.065 128.859 287.034C128.859 288.202 128.912 289.357 129.015 290.498C118.939 295.384 112 305.637 112 317.493C112 334.084 125.587 347.534 142.347 347.534H285.653C302.413 347.534 316 334.084 316 317.493C316 303.214 305.936 291.261 292.447 288.207Z" fill="url(#paint2_linear_32_213)"/>
</g>
</g>
<defs>
<filter id="filter0_i_32_213" x="112" y="52.5344" width="164" height="107" filterUnits="userSpaceOnUse" color-interpolation-filters="sRGB">
<feFlood flood-opacity="0" result="BackgroundImageFix"/>
<feBlend mode="normal" in="SourceGraphic" in2="BackgroundImageFix" result="shape"/>
<feColorMatrix in="SourceAlpha" type="matrix" values="0 0 0 0 0 0 0 0 0 0 0 0 0 0 0 0 0 0 127 0" result="hardAlpha"/>
<feOffset dy="11"/>
<feGaussianBlur stdDeviation="5"/>
<feComposite in2="hardAlpha" operator="arithmetic" k2="-1" k3="1"/>
<feColorMatrix type="matrix" values="0 0 0 0 1 0 0 0 0 1 0 0 0 0 1 0 0 0 1 0"/>
<feBlend mode="normal" in2="shape" result="effect1_innerShadow_32_213"/>
</filter>
<filter id="filter1_f_32_213" x="62.3452" y="7.87427" width="311.8" height="331.066" filterUnits="userSpaceOnUse" color-interpolation-filters="sRGB">
<feFlood flood-opacity="0" result="BackgroundImageFix"/>
<feBlend mode="normal" in="SourceGraphic" in2="BackgroundImageFix" result="shape"/>
<feGaussianBlur stdDeviation="26.5" result="effect1_foregroundBlur_32_213"/>
</filter>
<filter id="filter2_i_32_213" x="121.927" y="75.7002" width="187.861" height="209.448" filterUnits="userSpaceOnUse" color-interpolation-filters="sRGB">
<feFlood flood-opacity="0" result="BackgroundImageFix"/>
<feBlend mode="normal" in="SourceGraphic" in2="BackgroundImageFix" result="shape"/>
<feColorMatrix in="SourceAlpha" type="matrix" values="0 0 0 0 0 0 0 0 0 0 0 0 0 0 0 0 0 0 127 0" result="hardAlpha"/>
<feOffset dy="4"/>
<feGaussianBlur stdDeviation="4"/>
<feComposite in2="hardAlpha" operator="arithmetic" k2="-1" k3="1"/>
<feColorMatrix type="matrix" values="0 0 0 0 1 0 0 0 0 1 0 0 0 0 1 0 0 0 0.55 0"/>
<feBlend mode="normal" in2="shape" result="effect1_innerShadow_32_213"/>
</filter>
<filter id="filter3_b_32_213" x="85" y="199.534" width="258" height="175" filterUnits="userSpaceOnUse" color-interpolation-filters="sRGB">
<feFlood flood-opacity="0" result="BackgroundImageFix"/>
<feGaussianBlur in="BackgroundImageFix" stdDeviation="13.5"/>
<feComposite in2="SourceAlpha" operator="in" result="effect1_backgroundBlur_32_213"/>
<feBlend mode="normal" in="SourceGraphic" in2="effect1_backgroundBlur_32_213" result="shape"/>
</filter>
<filter id="filter4_i_32_213" x="112" y="226.534" width="204" height="131" filterUnits="userSpaceOnUse" color-interpolation-filters="sRGB">
<feFlood flood-opacity="0" result="BackgroundImageFix"/>
<feBlend mode="normal" in="SourceGraphic" in2="BackgroundImageFix" result="shape"/>
<feColorMatrix in="SourceAlpha" type="matrix" values="0 0 0 0 0 0 0 0 0 0 0 0 0 0 0 0 0 0 127 0" result="hardAlpha"/>
<feOffset dy="11"/>
<feGaussianBlur stdDeviation="5"/>
<feComposite in2="hardAlpha" operator="arithmetic" k2="-1" k3="1"/>
<feColorMatrix type="matrix" values="0 0 0 0 1 0 0 0 0 1 0 0 0 0 1 0 0 0 1 0"/>
<feBlend mode="normal" in2="shape" result="effect1_innerShadow_32_213"/>
</filter>
<linearGradient id="paint0_linear_32_213" x1="122.431" y1="140.874" x2="287.444" y2="17.0216" gradientUnits="userSpaceOnUse">
<stop stop-color="white"/>
<stop offset="1" stop-color="white" stop-opacity="0.58"/>
</linearGradient>
<linearGradient id="paint1_linear_32_213" x1="221.313" y1="58.6679" x2="183.761" y2="286.048" gradientUnits="userSpaceOnUse">
<stop stop-color="#FFEE94"/>
<stop offset="1" stop-color="#FF9900"/>
</linearGradient>
<linearGradient id="paint2_linear_32_213" x1="124.975" y1="336.731" x2="330.652" y2="182.793" gradientUnits="userSpaceOnUse">
<stop stop-color="white"/>
<stop offset="1" stop-color="white" stop-opacity="0.58"/>
</linearGradient>
</defs>
</svg>
