<svg width="400" height="400" viewBox="0 0 400 400" fill="none" xmlns="http://www.w3.org/2000/svg">
<g clip-path="url(#clip0_32_210)">
<g filter="url(#filter0_f_32_210)">
<path d="M224.855 30.8842C199.788 64.9178 195.442 111.364 217.554 149.664C239.666 187.963 282.063 207.422 324.07 202.731C315.138 214.858 303.576 225.409 289.642 233.454C236.604 264.075 169.296 246.788 139.304 194.841C109.313 142.895 127.996 75.9601 181.034 45.3387C194.967 37.294 209.886 32.5559 224.855 30.8842Z" fill="#FFEE94"/>
</g>
<g filter="url(#filter1_i_32_210)">
<path d="M222.517 45.2257C199.636 76.2926 195.668 118.691 215.853 153.652C236.038 188.613 274.739 206.375 313.085 202.093C304.931 213.163 294.377 222.794 281.657 230.138C233.243 258.09 171.801 242.31 144.424 194.891C117.047 147.473 134.101 86.3724 182.516 58.4202C195.235 51.0767 208.854 46.7516 222.517 45.2257Z" fill="url(#paint0_linear_32_210)"/>
</g>
<g filter="url(#filter2_b_32_210)">
<g filter="url(#filter3_i_32_210)">
<path d="M308.826 193.879C309.549 189.774 309.926 185.552 309.926 181.243C309.926 140.93 276.941 108.25 236.252 108.25C206.003 108.25 180.012 126.311 168.666 152.143C159.474 144.28 147.547 139.533 134.512 139.533C105.449 139.533 81.8884 163.135 81.8884 192.25C81.8884 193.871 81.9615 195.475 82.1045 197.059C68.1255 203.843 58.5 218.078 58.5 234.54C58.5 257.576 77.3485 276.25 100.599 276.25H299.401C322.652 276.25 341.5 257.576 341.5 234.54C341.5 214.714 327.539 198.119 308.826 193.879Z" fill="url(#paint1_linear_32_210)"/>
</g>
</g>
<g filter="url(#filter4_di_32_210)">
<path d="M133 304.25C120.549 320.583 103.117 353.25 133 353.25C162.883 353.25 145.451 320.583 133 304.25Z" fill="#00BCFF"/>
</g>
<g filter="url(#filter5_di_32_210)">
<path d="M203 328.25C190.549 344.583 173.117 377.25 203 377.25C232.883 377.25 215.451 344.583 203 328.25Z" fill="#00BCFF"/>
</g>
<g filter="url(#filter6_di_32_210)">
<path d="M268 304.25C255.549 320.583 238.117 353.25 268 353.25C297.883 353.25 280.451 320.583 268 304.25Z" fill="#00BCFF"/>
</g>
<g filter="url(#filter7_f_32_210)">
<rect x="85.5" y="271.25" width="240" height="35" rx="17.5" fill="#00BCFF"/>
</g>
</g>
<defs>
<filter id="filter0_f_32_210" x="71.9944" y="-22.1158" width="305.076" height="323.713" filterUnits="userSpaceOnUse" color-interpolation-filters="sRGB">
<feFlood flood-opacity="0" result="BackgroundImageFix"/>
<feBlend mode="normal" in="SourceGraphic" in2="BackgroundImageFix" result="shape"/>
<feGaussianBlur stdDeviation="26.5" result="effect1_foregroundBlur_32_210"/>
</filter>
<filter id="filter1_i_32_210" x="131.362" y="45.2257" width="181.723" height="202.735" filterUnits="userSpaceOnUse" color-interpolation-filters="sRGB">
<feFlood flood-opacity="0" result="BackgroundImageFix"/>
<feBlend mode="normal" in="SourceGraphic" in2="BackgroundImageFix" result="shape"/>
<feColorMatrix in="SourceAlpha" type="matrix" values="0 0 0 0 0 0 0 0 0 0 0 0 0 0 0 0 0 0 127 0" result="hardAlpha"/>
<feOffset dy="4"/>
<feGaussianBlur stdDeviation="4"/>
<feComposite in2="hardAlpha" operator="arithmetic" k2="-1" k3="1"/>
<feColorMatrix type="matrix" values="0 0 0 0 1 0 0 0 0 1 0 0 0 0 1 0 0 0 0.55 0"/>
<feBlend mode="normal" in2="shape" result="effect1_innerShadow_32_210"/>
</filter>
<filter id="filter2_b_32_210" x="31.5" y="81.25" width="337" height="222" filterUnits="userSpaceOnUse" color-interpolation-filters="sRGB">
<feFlood flood-opacity="0" result="BackgroundImageFix"/>
<feGaussianBlur in="BackgroundImageFix" stdDeviation="13.5"/>
<feComposite in2="SourceAlpha" operator="in" result="effect1_backgroundBlur_32_210"/>
<feBlend mode="normal" in="SourceGraphic" in2="effect1_backgroundBlur_32_210" result="shape"/>
</filter>
<filter id="filter3_i_32_210" x="58.5" y="108.25" width="283" height="178" filterUnits="userSpaceOnUse" color-interpolation-filters="sRGB">
<feFlood flood-opacity="0" result="BackgroundImageFix"/>
<feBlend mode="normal" in="SourceGraphic" in2="BackgroundImageFix" result="shape"/>
<feColorMatrix in="SourceAlpha" type="matrix" values="0 0 0 0 0 0 0 0 0 0 0 0 0 0 0 0 0 0 127 0" result="hardAlpha"/>
<feOffset dy="11"/>
<feGaussianBlur stdDeviation="5"/>
<feComposite in2="hardAlpha" operator="arithmetic" k2="-1" k3="1"/>
<feColorMatrix type="matrix" values="0 0 0 0 1 0 0 0 0 1 0 0 0 0 1 0 0 0 1 0"/>
<feBlend mode="normal" in2="shape" result="effect1_innerShadow_32_210"/>
</filter>
<filter id="filter4_di_32_210" x="97.5" y="304.25" width="71" height="88" filterUnits="userSpaceOnUse" color-interpolation-filters="sRGB">
<feFlood flood-opacity="0" result="BackgroundImageFix"/>
<feColorMatrix in="SourceAlpha" type="matrix" values="0 0 0 0 0 0 0 0 0 0 0 0 0 0 0 0 0 0 127 0" result="hardAlpha"/>
<feOffset dy="20"/>
<feGaussianBlur stdDeviation="9.5"/>
<feComposite in2="hardAlpha" operator="out"/>
<feColorMatrix type="matrix" values="0 0 0 0 0.283785 0 0 0 0 0.178889 0 0 0 0 0.933333 0 0 0 1 0"/>
<feBlend mode="normal" in2="BackgroundImageFix" result="effect1_dropShadow_32_210"/>
<feBlend mode="normal" in="SourceGraphic" in2="effect1_dropShadow_32_210" result="shape"/>
<feColorMatrix in="SourceAlpha" type="matrix" values="0 0 0 0 0 0 0 0 0 0 0 0 0 0 0 0 0 0 127 0" result="hardAlpha"/>
<feOffset dy="9"/>
<feGaussianBlur stdDeviation="1.5"/>
<feComposite in2="hardAlpha" operator="arithmetic" k2="-1" k3="1"/>
<feColorMatrix type="matrix" values="0 0 0 0 1 0 0 0 0 1 0 0 0 0 1 0 0 0 0.21 0"/>
<feBlend mode="normal" in2="shape" result="effect2_innerShadow_32_210"/>
</filter>
<filter id="filter5_di_32_210" x="167.5" y="328.25" width="71" height="88" filterUnits="userSpaceOnUse" color-interpolation-filters="sRGB">
<feFlood flood-opacity="0" result="BackgroundImageFix"/>
<feColorMatrix in="SourceAlpha" type="matrix" values="0 0 0 0 0 0 0 0 0 0 0 0 0 0 0 0 0 0 127 0" result="hardAlpha"/>
<feOffset dy="20"/>
<feGaussianBlur stdDeviation="9.5"/>
<feComposite in2="hardAlpha" operator="out"/>
<feColorMatrix type="matrix" values="0 0 0 0 0.283785 0 0 0 0 0.178889 0 0 0 0 0.933333 0 0 0 1 0"/>
<feBlend mode="normal" in2="BackgroundImageFix" result="effect1_dropShadow_32_210"/>
<feBlend mode="normal" in="SourceGraphic" in2="effect1_dropShadow_32_210" result="shape"/>
<feColorMatrix in="SourceAlpha" type="matrix" values="0 0 0 0 0 0 0 0 0 0 0 0 0 0 0 0 0 0 127 0" result="hardAlpha"/>
<feOffset dy="9"/>
<feGaussianBlur stdDeviation="1.5"/>
<feComposite in2="hardAlpha" operator="arithmetic" k2="-1" k3="1"/>
<feColorMatrix type="matrix" values="0 0 0 0 1 0 0 0 0 1 0 0 0 0 1 0 0 0 0.21 0"/>
<feBlend mode="normal" in2="shape" result="effect2_innerShadow_32_210"/>
</filter>
<filter id="filter6_di_32_210" x="232.5" y="304.25" width="71" height="88" filterUnits="userSpaceOnUse" color-interpolation-filters="sRGB">
<feFlood flood-opacity="0" result="BackgroundImageFix"/>
<feColorMatrix in="SourceAlpha" type="matrix" values="0 0 0 0 0 0 0 0 0 0 0 0 0 0 0 0 0 0 127 0" result="hardAlpha"/>
<feOffset dy="20"/>
<feGaussianBlur stdDeviation="9.5"/>
<feComposite in2="hardAlpha" operator="out"/>
<feColorMatrix type="matrix" values="0 0 0 0 0.283785 0 0 0 0 0.178889 0 0 0 0 0.933333 0 0 0 1 0"/>
<feBlend mode="normal" in2="BackgroundImageFix" result="effect1_dropShadow_32_210"/>
<feBlend mode="normal" in="SourceGraphic" in2="effect1_dropShadow_32_210" result="shape"/>
<feColorMatrix in="SourceAlpha" type="matrix" values="0 0 0 0 0 0 0 0 0 0 0 0 0 0 0 0 0 0 127 0" result="hardAlpha"/>
<feOffset dy="9"/>
<feGaussianBlur stdDeviation="1.5"/>
<feComposite in2="hardAlpha" operator="arithmetic" k2="-1" k3="1"/>
<feColorMatrix type="matrix" values="0 0 0 0 1 0 0 0 0 1 0 0 0 0 1 0 0 0 0.21 0"/>
<feBlend mode="normal" in2="shape" result="effect2_innerShadow_32_210"/>
</filter>
<filter id="filter7_f_32_210" x="7.5" y="193.25" width="396" height="191" filterUnits="userSpaceOnUse" color-interpolation-filters="sRGB">
<feFlood flood-opacity="0" result="BackgroundImageFix"/>
<feBlend mode="normal" in="SourceGraphic" in2="BackgroundImageFix" result="shape"/>
<feGaussianBlur stdDeviation="39" result="effect1_foregroundBlur_32_210"/>
</filter>
<linearGradient id="paint0_linear_32_210" x1="227.5" y1="28.7499" x2="191.175" y2="248.701" gradientUnits="userSpaceOnUse">
<stop stop-color="#FFEE94"/>
<stop offset="1" stop-color="#FF9900"/>
</linearGradient>
<linearGradient id="paint1_linear_32_210" x1="76.5" y1="261.25" x2="362" y2="47.75" gradientUnits="userSpaceOnUse">
<stop stop-color="white"/>
<stop offset="1" stop-color="white" stop-opacity="0.58"/>
</linearGradient>
<clipPath id="clip0_32_210">
<rect width="400" height="400" fill="white"/>
</clipPath>
</defs>
</svg>
