<svg width="400" height="400" viewBox="0 0 400 400" fill="none" xmlns="http://www.w3.org/2000/svg">
<g clip-path="url(#clip0_32_214)">
<g filter="url(#filter0_f_32_214)">
<path d="M206.578 41.6878C180.665 76.8709 176.172 124.886 199.031 164.479C221.89 204.072 265.719 224.189 309.145 219.339C299.912 231.876 287.958 242.783 273.554 251.099C218.725 282.755 149.143 264.884 118.138 211.183C87.134 157.482 106.448 88.2862 161.277 56.6306C175.682 48.3141 191.104 43.416 206.578 41.6878Z" fill="#FFEE94"/>
</g>
<g filter="url(#filter1_i_32_214)">
<path d="M204.162 56.5137C180.508 88.6299 176.406 132.46 197.273 168.602C218.139 204.744 258.148 223.106 297.788 218.679C289.36 230.123 278.448 240.08 265.3 247.671C215.25 276.568 151.733 260.254 123.431 211.234C95.1294 162.214 112.76 99.0502 162.81 70.1539C175.959 62.5623 190.037 58.0912 204.162 56.5137Z" fill="url(#paint0_linear_32_214)"/>
</g>
<g filter="url(#filter2_b_32_214)">
<g filter="url(#filter3_i_32_214)">
<path d="M320.747 187.791C321.549 183.237 321.967 178.553 321.967 173.772C321.967 129.043 285.369 92.7827 240.223 92.7827C206.661 92.7827 177.823 112.822 165.234 141.483C155.035 132.759 141.801 127.492 127.339 127.492C95.0918 127.492 68.9504 153.68 68.9504 185.984C68.9504 187.783 69.0315 189.563 69.1902 191.32C53.6799 198.847 43 214.641 43 232.906C43 258.466 63.9131 279.186 89.7108 279.186H310.289C336.087 279.186 357 258.466 357 232.906C357 210.909 341.51 192.496 320.747 187.791Z" fill="url(#paint1_linear_32_214)"/>
</g>
</g>
<g opacity="0.54" filter="url(#filter4_f_32_214)">
<ellipse cx="149.564" cy="215.631" rx="52.2063" ry="48.2341" fill="white"/>
<ellipse cx="199.5" cy="184.421" rx="68.0952" ry="72.6349" fill="white"/>
<ellipse cx="290.294" cy="171.369" rx="52.2063" ry="48.2341" fill="white"/>
<ellipse cx="117.218" cy="254.219" rx="60.7183" ry="56.1786" fill="white"/>
<ellipse cx="96.7896" cy="265" rx="34.6151" ry="31.7778" fill="white"/>
</g>
<g opacity="0.54" filter="url(#filter5_f_32_214)">
<ellipse cx="136.064" cy="175.683" rx="52.2063" ry="48.2341" fill="white"/>
<ellipse cx="186" cy="144.473" rx="68.0952" ry="72.6349" fill="white"/>
<ellipse cx="276.794" cy="131.421" rx="52.2063" ry="48.2341" fill="white"/>
<ellipse cx="103.718" cy="214.27" rx="60.7183" ry="56.1786" fill="white"/>
<ellipse cx="83.2896" cy="225.052" rx="34.6151" ry="31.7778" fill="white"/>
</g>
<path d="M132.044 225L198.727 331.693" stroke="#00BCFF" stroke-width="9" stroke-linecap="round"/>
<path d="M148.132 251.214L154.652 220.762" stroke="#00BCFF" stroke-width="9" stroke-linecap="round"/>
<path d="M148.132 251.214L117.309 244.101" stroke="#00BCFF" stroke-width="9" stroke-linecap="round"/>
<path d="M183.696 308.117L213.927 315.6" stroke="#00BCFF" stroke-width="9" stroke-linecap="round"/>
<path d="M183.696 308.117L176.583 338.94" stroke="#00BCFF" stroke-width="9" stroke-linecap="round"/>
<path d="M194.936 223.399L135.879 334.495" stroke="#00BCFF" stroke-width="9" stroke-linecap="round"/>
<path d="M180.278 250.439L209.911 240.859" stroke="#00BCFF" stroke-width="9" stroke-linecap="round"/>
<path d="M180.278 250.439L171.026 220.188" stroke="#00BCFF" stroke-width="9" stroke-linecap="round"/>
<path d="M148.781 309.689L157.415 339.611" stroke="#00BCFF" stroke-width="9" stroke-linecap="round"/>
<path d="M148.781 309.689L118.531 318.941" stroke="#00BCFF" stroke-width="9" stroke-linecap="round"/>
<path d="M227.768 277.064L102.028 281.467" stroke="#00BCFF" stroke-width="9" stroke-linecap="round"/>
<path d="M197.022 277.89L220.135 298.763" stroke="#00BCFF" stroke-width="9" stroke-linecap="round"/>
<path d="M197.022 277.89L218.594 254.753" stroke="#00BCFF" stroke-width="9" stroke-linecap="round"/>
<path d="M129.961 280.238L108.365 302.676" stroke="#00BCFF" stroke-width="9" stroke-linecap="round"/>
<path d="M129.961 280.238L106.824 258.666" stroke="#00BCFF" stroke-width="9" stroke-linecap="round"/>
<path d="M298.38 292.414L273.008 349.393" stroke="#00BCFF" stroke-width="6.00313" stroke-linecap="round"/>
<path d="M292.063 306.291L306.387 300.531" stroke="#00BCFF" stroke-width="6.00313" stroke-linecap="round"/>
<path d="M292.063 306.292L286.444 291.651" stroke="#00BCFF" stroke-width="6.00313" stroke-linecap="round"/>
<path d="M278.531 336.68L283.833 351.18" stroke="#00BCFF" stroke-width="6.00313" stroke-linecap="round"/>
<path d="M278.531 336.68L263.891 342.299" stroke="#00BCFF" stroke-width="6.00313" stroke-linecap="round"/>
<path d="M316.468 317.821L254.437 324.337" stroke="#00BCFF" stroke-width="6.00313" stroke-linecap="round"/>
<path d="M301.291 319.289L313.442 328.813" stroke="#00BCFF" stroke-width="6.00313" stroke-linecap="round"/>
<path d="M301.291 319.289L311.161 307.103" stroke="#00BCFF" stroke-width="6.00313" stroke-linecap="round"/>
<path d="M268.208 322.764L258.302 334.606" stroke="#00BCFF" stroke-width="6.00313" stroke-linecap="round"/>
<path d="M268.208 322.764L256.021 312.895" stroke="#00BCFF" stroke-width="6.00313" stroke-linecap="round"/>
<path d="M303.51 346.189L266.851 295.726" stroke="#00BCFF" stroke-width="6.00313" stroke-linecap="round"/>
<path d="M294.649 333.78L292.476 349.064" stroke="#00BCFF" stroke-width="6.00313" stroke-linecap="round"/>
<path d="M294.649 333.78L310.138 336.234" stroke="#00BCFF" stroke-width="6.00313" stroke-linecap="round"/>
<path d="M275.098 306.866L259.89 304.208" stroke="#00BCFF" stroke-width="6.00313" stroke-linecap="round"/>
<path d="M275.098 306.866L277.552 291.378" stroke="#00BCFF" stroke-width="6.00313" stroke-linecap="round"/>
</g>
<defs>
<filter id="filter0_f_32_214" x="50.3452" y="-11.3123" width="311.8" height="331.066" filterUnits="userSpaceOnUse" color-interpolation-filters="sRGB">
<feFlood flood-opacity="0" result="BackgroundImageFix"/>
<feBlend mode="normal" in="SourceGraphic" in2="BackgroundImageFix" result="shape"/>
<feGaussianBlur stdDeviation="26.5" result="effect1_foregroundBlur_32_214"/>
</filter>
<filter id="filter1_i_32_214" x="109.927" y="56.5137" width="187.861" height="209.448" filterUnits="userSpaceOnUse" color-interpolation-filters="sRGB">
<feFlood flood-opacity="0" result="BackgroundImageFix"/>
<feBlend mode="normal" in="SourceGraphic" in2="BackgroundImageFix" result="shape"/>
<feColorMatrix in="SourceAlpha" type="matrix" values="0 0 0 0 0 0 0 0 0 0 0 0 0 0 0 0 0 0 127 0" result="hardAlpha"/>
<feOffset dy="4"/>
<feGaussianBlur stdDeviation="4"/>
<feComposite in2="hardAlpha" operator="arithmetic" k2="-1" k3="1"/>
<feColorMatrix type="matrix" values="0 0 0 0 1 0 0 0 0 1 0 0 0 0 1 0 0 0 0.55 0"/>
<feBlend mode="normal" in2="shape" result="effect1_innerShadow_32_214"/>
</filter>
<filter id="filter2_b_32_214" x="16" y="65.7827" width="368" height="240.403" filterUnits="userSpaceOnUse" color-interpolation-filters="sRGB">
<feFlood flood-opacity="0" result="BackgroundImageFix"/>
<feGaussianBlur in="BackgroundImageFix" stdDeviation="13.5"/>
<feComposite in2="SourceAlpha" operator="in" result="effect1_backgroundBlur_32_214"/>
<feBlend mode="normal" in="SourceGraphic" in2="effect1_backgroundBlur_32_214" result="shape"/>
</filter>
<filter id="filter3_i_32_214" x="43" y="92.7827" width="314" height="196.403" filterUnits="userSpaceOnUse" color-interpolation-filters="sRGB">
<feFlood flood-opacity="0" result="BackgroundImageFix"/>
<feBlend mode="normal" in="SourceGraphic" in2="BackgroundImageFix" result="shape"/>
<feColorMatrix in="SourceAlpha" type="matrix" values="0 0 0 0 0 0 0 0 0 0 0 0 0 0 0 0 0 0 127 0" result="hardAlpha"/>
<feOffset dy="11"/>
<feGaussianBlur stdDeviation="5"/>
<feComposite in2="hardAlpha" operator="arithmetic" k2="-1" k3="1"/>
<feColorMatrix type="matrix" values="0 0 0 0 1 0 0 0 0 1 0 0 0 0 1 0 0 0 1 0"/>
<feBlend mode="normal" in2="shape" result="effect1_innerShadow_32_214"/>
</filter>
<filter id="filter4_f_32_214" x="-2.32437" y="52.9618" width="403.649" height="316.26" filterUnits="userSpaceOnUse" color-interpolation-filters="sRGB">
<feFlood flood-opacity="0" result="BackgroundImageFix"/>
<feBlend mode="normal" in="SourceGraphic" in2="BackgroundImageFix" result="shape"/>
<feGaussianBlur stdDeviation="29.4122" result="effect1_foregroundBlur_32_214"/>
</filter>
<filter id="filter5_f_32_214" x="-15.8244" y="13.0135" width="403.649" height="316.26" filterUnits="userSpaceOnUse" color-interpolation-filters="sRGB">
<feFlood flood-opacity="0" result="BackgroundImageFix"/>
<feBlend mode="normal" in="SourceGraphic" in2="BackgroundImageFix" result="shape"/>
<feGaussianBlur stdDeviation="29.4122" result="effect1_foregroundBlur_32_214"/>
</filter>
<linearGradient id="paint0_linear_32_214" x1="209.313" y1="39.4814" x2="171.761" y2="266.861" gradientUnits="userSpaceOnUse">
<stop stop-color="#FFEE94"/>
<stop offset="1" stop-color="#FF9900"/>
</linearGradient>
<linearGradient id="paint1_linear_32_214" x1="62.9717" y1="262.542" x2="379.746" y2="25.6555" gradientUnits="userSpaceOnUse">
<stop stop-color="white"/>
<stop offset="1" stop-color="white" stop-opacity="0.58"/>
</linearGradient>
<clipPath id="clip0_32_214">
<rect width="400" height="400" fill="white"/>
</clipPath>
</defs>
</svg>
