<svg width="400" height="400" viewBox="0 0 400 400" fill="none" xmlns="http://www.w3.org/2000/svg">
<g clip-path="url(#clip0_32_195)">
<g filter="url(#filter0_di_32_195)">
<path d="M305.5 151.217C305.5 211.969 256.251 261.217 195.5 261.217C134.749 261.217 85.5 211.969 85.5 151.217C85.5 90.466 134.749 41.2173 195.5 41.2173C256.251 41.2173 305.5 90.466 305.5 151.217Z" fill="url(#paint0_linear_32_195)"/>
</g>
<g filter="url(#filter1_b_32_195)">
<g filter="url(#filter2_i_32_195)">
<path d="M320.747 179.529C321.549 174.976 321.967 170.291 321.967 165.51C321.967 120.781 285.369 84.521 240.223 84.521C206.661 84.521 177.823 104.561 165.234 133.222C155.035 124.498 141.801 119.23 127.339 119.23C95.0918 119.23 68.9504 145.418 68.9504 177.722C68.9504 179.521 69.0315 181.301 69.1902 183.059C53.6799 190.586 43 206.379 43 224.645C43 250.204 63.9131 270.924 89.7108 270.924H310.289C336.087 270.924 357 250.204 357 224.645C357 202.647 341.51 184.234 320.747 179.529Z" fill="url(#paint1_linear_32_195)"/>
</g>
</g>
<g opacity="0.54" filter="url(#filter3_f_32_195)">
<ellipse cx="149.564" cy="207.37" rx="52.2063" ry="48.2341" fill="white"/>
<ellipse cx="199.5" cy="176.159" rx="68.0952" ry="72.6349" fill="white"/>
<ellipse cx="290.294" cy="163.108" rx="52.2063" ry="48.2341" fill="white"/>
<ellipse cx="117.218" cy="245.957" rx="60.7183" ry="56.1786" fill="white"/>
<ellipse cx="96.7896" cy="256.739" rx="34.6151" ry="31.7778" fill="white"/>
</g>
<path d="M132.044 217.062L198.727 323.755" stroke="#00BCFF" stroke-width="9" stroke-linecap="round"/>
<path d="M148.132 243.276L154.652 212.824" stroke="#00BCFF" stroke-width="9" stroke-linecap="round"/>
<path d="M148.132 243.276L117.309 236.163" stroke="#00BCFF" stroke-width="9" stroke-linecap="round"/>
<path d="M183.696 300.179L213.927 307.662" stroke="#00BCFF" stroke-width="9" stroke-linecap="round"/>
<path d="M183.696 300.179L176.583 331.002" stroke="#00BCFF" stroke-width="9" stroke-linecap="round"/>
<path d="M194.936 215.461L135.879 326.557" stroke="#00BCFF" stroke-width="9" stroke-linecap="round"/>
<path d="M180.278 242.5L209.911 232.921" stroke="#00BCFF" stroke-width="9" stroke-linecap="round"/>
<path d="M180.278 242.5L171.026 212.25" stroke="#00BCFF" stroke-width="9" stroke-linecap="round"/>
<path d="M148.781 301.751L157.415 331.673" stroke="#00BCFF" stroke-width="9" stroke-linecap="round"/>
<path d="M148.781 301.751L118.531 311.003" stroke="#00BCFF" stroke-width="9" stroke-linecap="round"/>
<path d="M227.768 269.126L102.028 273.529" stroke="#00BCFF" stroke-width="9" stroke-linecap="round"/>
<path d="M197.022 269.952L220.135 290.825" stroke="#00BCFF" stroke-width="9" stroke-linecap="round"/>
<path d="M197.022 269.952L218.594 246.815" stroke="#00BCFF" stroke-width="9" stroke-linecap="round"/>
<path d="M129.961 272.3L108.365 294.738" stroke="#00BCFF" stroke-width="9" stroke-linecap="round"/>
<path d="M129.961 272.3L106.824 250.728" stroke="#00BCFF" stroke-width="9" stroke-linecap="round"/>
<path d="M298.38 284.476L273.008 341.455" stroke="#00BCFF" stroke-width="6.00313" stroke-linecap="round"/>
<path d="M292.063 298.353L306.387 292.593" stroke="#00BCFF" stroke-width="6.00313" stroke-linecap="round"/>
<path d="M292.063 298.353L286.444 283.713" stroke="#00BCFF" stroke-width="6.00313" stroke-linecap="round"/>
<path d="M278.531 328.742L283.833 343.242" stroke="#00BCFF" stroke-width="6.00313" stroke-linecap="round"/>
<path d="M278.531 328.742L263.891 334.361" stroke="#00BCFF" stroke-width="6.00313" stroke-linecap="round"/>
<path d="M316.468 309.883L254.437 316.399" stroke="#00BCFF" stroke-width="6.00313" stroke-linecap="round"/>
<path d="M301.291 311.351L313.442 320.876" stroke="#00BCFF" stroke-width="6.00313" stroke-linecap="round"/>
<path d="M301.291 311.351L311.161 299.165" stroke="#00BCFF" stroke-width="6.00313" stroke-linecap="round"/>
<path d="M268.208 314.826L258.302 326.668" stroke="#00BCFF" stroke-width="6.00313" stroke-linecap="round"/>
<path d="M268.208 314.827L256.021 304.957" stroke="#00BCFF" stroke-width="6.00313" stroke-linecap="round"/>
<path d="M303.51 338.251L266.851 287.788" stroke="#00BCFF" stroke-width="6.00313" stroke-linecap="round"/>
<path d="M294.649 325.842L292.476 341.126" stroke="#00BCFF" stroke-width="6.00313" stroke-linecap="round"/>
<path d="M294.649 325.842L310.138 328.296" stroke="#00BCFF" stroke-width="6.00313" stroke-linecap="round"/>
<path d="M275.098 298.928L259.89 296.27" stroke="#00BCFF" stroke-width="6.00313" stroke-linecap="round"/>
<path d="M275.098 298.928L277.552 283.44" stroke="#00BCFF" stroke-width="6.00313" stroke-linecap="round"/>
</g>
<defs>
<filter id="filter0_di_32_195" x="52.5" y="37.2173" width="286" height="286" filterUnits="userSpaceOnUse" color-interpolation-filters="sRGB">
<feFlood flood-opacity="0" result="BackgroundImageFix"/>
<feColorMatrix in="SourceAlpha" type="matrix" values="0 0 0 0 0 0 0 0 0 0 0 0 0 0 0 0 0 0 127 0" result="hardAlpha"/>
<feOffset dy="29"/>
<feGaussianBlur stdDeviation="16.5"/>
<feComposite in2="hardAlpha" operator="out"/>
<feColorMatrix type="matrix" values="0 0 0 0 0.283997 0 0 0 0 0.1825 0 0 0 0 0.9125 0 0 0 0.68 0"/>
<feBlend mode="normal" in2="BackgroundImageFix" result="effect1_dropShadow_32_195"/>
<feBlend mode="normal" in="SourceGraphic" in2="effect1_dropShadow_32_195" result="shape"/>
<feColorMatrix in="SourceAlpha" type="matrix" values="0 0 0 0 0 0 0 0 0 0 0 0 0 0 0 0 0 0 127 0" result="hardAlpha"/>
<feOffset dy="5"/>
<feGaussianBlur stdDeviation="9"/>
<feComposite in2="hardAlpha" operator="arithmetic" k2="-1" k3="1"/>
<feColorMatrix type="matrix" values="0 0 0 0 1 0 0 0 0 1 0 0 0 0 1 0 0 0 0.81 0"/>
<feBlend mode="normal" in2="shape" result="effect2_innerShadow_32_195"/>
</filter>
<filter id="filter1_b_32_195" x="16" y="57.521" width="368" height="240.403" filterUnits="userSpaceOnUse" color-interpolation-filters="sRGB">
<feFlood flood-opacity="0" result="BackgroundImageFix"/>
<feGaussianBlur in="BackgroundImageFix" stdDeviation="13.5"/>
<feComposite in2="SourceAlpha" operator="in" result="effect1_backgroundBlur_32_195"/>
<feBlend mode="normal" in="SourceGraphic" in2="effect1_backgroundBlur_32_195" result="shape"/>
</filter>
<filter id="filter2_i_32_195" x="43" y="84.521" width="314" height="196.403" filterUnits="userSpaceOnUse" color-interpolation-filters="sRGB">
<feFlood flood-opacity="0" result="BackgroundImageFix"/>
<feBlend mode="normal" in="SourceGraphic" in2="BackgroundImageFix" result="shape"/>
<feColorMatrix in="SourceAlpha" type="matrix" values="0 0 0 0 0 0 0 0 0 0 0 0 0 0 0 0 0 0 127 0" result="hardAlpha"/>
<feOffset dy="11"/>
<feGaussianBlur stdDeviation="5"/>
<feComposite in2="hardAlpha" operator="arithmetic" k2="-1" k3="1"/>
<feColorMatrix type="matrix" values="0 0 0 0 1 0 0 0 0 1 0 0 0 0 1 0 0 0 1 0"/>
<feBlend mode="normal" in2="shape" result="effect1_innerShadow_32_195"/>
</filter>
<filter id="filter3_f_32_195" x="-2.32437" y="44.7001" width="403.649" height="316.26" filterUnits="userSpaceOnUse" color-interpolation-filters="sRGB">
<feFlood flood-opacity="0" result="BackgroundImageFix"/>
<feBlend mode="normal" in="SourceGraphic" in2="BackgroundImageFix" result="shape"/>
<feGaussianBlur stdDeviation="29.4122" result="effect1_foregroundBlur_32_195"/>
</filter>
<linearGradient id="paint0_linear_32_195" x1="178.791" y1="211.091" x2="269.297" y2="52.3565" gradientUnits="userSpaceOnUse">
<stop stop-color="#FF9900"/>
<stop offset="1" stop-color="#FFEE94"/>
</linearGradient>
<linearGradient id="paint1_linear_32_195" x1="62.9717" y1="254.281" x2="379.746" y2="17.3938" gradientUnits="userSpaceOnUse">
<stop stop-color="white"/>
<stop offset="1" stop-color="white" stop-opacity="0.58"/>
</linearGradient>
<clipPath id="clip0_32_195">
<rect width="400" height="400" fill="white"/>
</clipPath>
</defs>
</svg>
