<svg width="400" height="400" viewBox="0 0 400 400" fill="none" xmlns="http://www.w3.org/2000/svg">
<g clip-path="url(#clip0_13_205)">
<g filter="url(#filter0_di_13_205)">
<path d="M336 117.5C336 178.251 286.751 227.5 226 227.5C165.249 227.5 116 178.251 116 117.5C116 56.7487 165.249 7.5 226 7.5C286.751 7.5 336 56.7487 336 117.5Z" fill="url(#paint0_linear_13_205)"/>
</g>
<g filter="url(#filter1_b_13_205)">
<g filter="url(#filter2_i_13_205)">
<path d="M320.747 169.508C321.549 164.955 321.967 160.27 321.967 155.489C321.967 110.76 285.369 74.5 240.223 74.5C206.661 74.5 177.823 94.5397 165.234 123.201C155.035 114.477 141.801 109.209 127.339 109.209C95.0918 109.209 68.9504 135.397 68.9504 167.701C68.9504 169.5 69.0315 171.28 69.1902 173.038C53.6799 180.565 43 196.358 43 214.624C43 240.183 63.9131 260.903 89.7108 260.903H310.289C336.087 260.903 357 240.183 357 214.624C357 192.626 341.51 174.213 320.747 169.508Z" fill="url(#paint1_linear_13_205)"/>
</g>
</g>
<g filter="url(#filter3_i_13_205)">
<path d="M227.775 261H177.75L156 319.486H195.15L177.025 392.5L243 296.711H214L227.775 261Z" fill="url(#paint2_linear_13_205)"/>
</g>
<g filter="url(#filter4_f_13_205)">
<rect x="71" y="227.5" width="257" height="50" rx="25" fill="#FFED8D"/>
</g>
<g filter="url(#filter5_di_13_205)">
<path d="M262.151 367.075C254.385 370.524 251.354 373.438 248.575 380.651C246.363 373.661 243.642 370.543 235 367.075C243.89 364.179 246.303 360.826 248.575 353.5C251.368 360.252 253.092 363.937 262.151 367.075Z" fill="url(#paint3_linear_13_205)"/>
</g>
<g filter="url(#filter6_i_13_205)">
<path d="M136.151 291.075C128.385 294.524 125.354 297.438 122.575 304.651C120.363 297.661 117.642 294.543 109 291.075C117.89 288.179 120.303 284.826 122.575 277.5C125.368 284.252 127.092 287.937 136.151 291.075Z" fill="url(#paint4_linear_13_205)"/>
</g>
</g>
<defs>
<filter id="filter0_di_13_205" x="83" y="3.5" width="286" height="286" filterUnits="userSpaceOnUse" color-interpolation-filters="sRGB">
<feFlood flood-opacity="0" result="BackgroundImageFix"/>
<feColorMatrix in="SourceAlpha" type="matrix" values="0 0 0 0 0 0 0 0 0 0 0 0 0 0 0 0 0 0 127 0" result="hardAlpha"/>
<feOffset dy="29"/>
<feGaussianBlur stdDeviation="16.5"/>
<feComposite in2="hardAlpha" operator="out"/>
<feColorMatrix type="matrix" values="0 0 0 0 0.283997 0 0 0 0 0.1825 0 0 0 0 0.9125 0 0 0 0.68 0"/>
<feBlend mode="normal" in2="BackgroundImageFix" result="effect1_dropShadow_13_205"/>
<feBlend mode="normal" in="SourceGraphic" in2="effect1_dropShadow_13_205" result="shape"/>
<feColorMatrix in="SourceAlpha" type="matrix" values="0 0 0 0 0 0 0 0 0 0 0 0 0 0 0 0 0 0 127 0" result="hardAlpha"/>
<feOffset dy="5"/>
<feGaussianBlur stdDeviation="9"/>
<feComposite in2="hardAlpha" operator="arithmetic" k2="-1" k3="1"/>
<feColorMatrix type="matrix" values="0 0 0 0 1 0 0 0 0 1 0 0 0 0 1 0 0 0 0.81 0"/>
<feBlend mode="normal" in2="shape" result="effect2_innerShadow_13_205"/>
</filter>
<filter id="filter1_b_13_205" x="16" y="47.5" width="368" height="240.403" filterUnits="userSpaceOnUse" color-interpolation-filters="sRGB">
<feFlood flood-opacity="0" result="BackgroundImageFix"/>
<feGaussianBlur in="BackgroundImageFix" stdDeviation="13.5"/>
<feComposite in2="SourceAlpha" operator="in" result="effect1_backgroundBlur_13_205"/>
<feBlend mode="normal" in="SourceGraphic" in2="effect1_backgroundBlur_13_205" result="shape"/>
</filter>
<filter id="filter2_i_13_205" x="43" y="74.5" width="314" height="196.403" filterUnits="userSpaceOnUse" color-interpolation-filters="sRGB">
<feFlood flood-opacity="0" result="BackgroundImageFix"/>
<feBlend mode="normal" in="SourceGraphic" in2="BackgroundImageFix" result="shape"/>
<feColorMatrix in="SourceAlpha" type="matrix" values="0 0 0 0 0 0 0 0 0 0 0 0 0 0 0 0 0 0 127 0" result="hardAlpha"/>
<feOffset dy="11"/>
<feGaussianBlur stdDeviation="5"/>
<feComposite in2="hardAlpha" operator="arithmetic" k2="-1" k3="1"/>
<feColorMatrix type="matrix" values="0 0 0 0 1 0 0 0 0 1 0 0 0 0 1 0 0 0 1 0"/>
<feBlend mode="normal" in2="shape" result="effect1_innerShadow_13_205"/>
</filter>
<filter id="filter3_i_13_205" x="154" y="261" width="89" height="131.5" filterUnits="userSpaceOnUse" color-interpolation-filters="sRGB">
<feFlood flood-opacity="0" result="BackgroundImageFix"/>
<feBlend mode="normal" in="SourceGraphic" in2="BackgroundImageFix" result="shape"/>
<feColorMatrix in="SourceAlpha" type="matrix" values="0 0 0 0 0 0 0 0 0 0 0 0 0 0 0 0 0 0 127 0" result="hardAlpha"/>
<feOffset dx="-2"/>
<feGaussianBlur stdDeviation="4.5"/>
<feComposite in2="hardAlpha" operator="arithmetic" k2="-1" k3="1"/>
<feColorMatrix type="matrix" values="0 0 0 0 1 0 0 0 0 1 0 0 0 0 1 0 0 0 0.5 0"/>
<feBlend mode="normal" in2="shape" result="effect1_innerShadow_13_205"/>
</filter>
<filter id="filter4_f_13_205" x="-6" y="150.5" width="411" height="204" filterUnits="userSpaceOnUse" color-interpolation-filters="sRGB">
<feFlood flood-opacity="0" result="BackgroundImageFix"/>
<feBlend mode="normal" in="SourceGraphic" in2="BackgroundImageFix" result="shape"/>
<feGaussianBlur stdDeviation="38.5" result="effect1_foregroundBlur_13_205"/>
</filter>
<filter id="filter5_di_13_205" x="226.233" y="353.5" width="44.6855" height="46.9181" filterUnits="userSpaceOnUse" color-interpolation-filters="sRGB">
<feFlood flood-opacity="0" result="BackgroundImageFix"/>
<feColorMatrix in="SourceAlpha" type="matrix" values="0 0 0 0 0 0 0 0 0 0 0 0 0 0 0 0 0 0 127 0" result="hardAlpha"/>
<feOffset dy="11"/>
<feGaussianBlur stdDeviation="4.38372"/>
<feColorMatrix type="matrix" values="0 0 0 0 0.285052 0 0 0 0 0.179688 0 0 0 0 0.9375 0 0 0 1 0"/>
<feBlend mode="normal" in2="BackgroundImageFix" result="effect1_dropShadow_13_205"/>
<feBlend mode="normal" in="SourceGraphic" in2="effect1_dropShadow_13_205" result="shape"/>
<feColorMatrix in="SourceAlpha" type="matrix" values="0 0 0 0 0 0 0 0 0 0 0 0 0 0 0 0 0 0 127 0" result="hardAlpha"/>
<feOffset dy="4"/>
<feGaussianBlur stdDeviation="2"/>
<feComposite in2="hardAlpha" operator="arithmetic" k2="-1" k3="1"/>
<feColorMatrix type="matrix" values="0 0 0 0 1 0 0 0 0 1 0 0 0 0 1 0 0 0 0.44 0"/>
<feBlend mode="normal" in2="shape" result="effect2_innerShadow_13_205"/>
</filter>
<filter id="filter6_i_13_205" x="109" y="277.5" width="27.1506" height="31.1507" filterUnits="userSpaceOnUse" color-interpolation-filters="sRGB">
<feFlood flood-opacity="0" result="BackgroundImageFix"/>
<feBlend mode="normal" in="SourceGraphic" in2="BackgroundImageFix" result="shape"/>
<feColorMatrix in="SourceAlpha" type="matrix" values="0 0 0 0 0 0 0 0 0 0 0 0 0 0 0 0 0 0 127 0" result="hardAlpha"/>
<feOffset dy="4"/>
<feGaussianBlur stdDeviation="2"/>
<feComposite in2="hardAlpha" operator="arithmetic" k2="-1" k3="1"/>
<feColorMatrix type="matrix" values="0 0 0 0 1 0 0 0 0 1 0 0 0 0 1 0 0 0 0.44 0"/>
<feBlend mode="normal" in2="shape" result="effect1_innerShadow_13_205"/>
</filter>
<linearGradient id="paint0_linear_13_205" x1="209.291" y1="177.373" x2="299.797" y2="18.6392" gradientUnits="userSpaceOnUse">
<stop stop-color="#FF9900"/>
<stop offset="1" stop-color="#FFEE94"/>
</linearGradient>
<linearGradient id="paint1_linear_13_205" x1="62.9717" y1="244.26" x2="379.746" y2="7.37276" gradientUnits="userSpaceOnUse">
<stop stop-color="white"/>
<stop offset="1" stop-color="white" stop-opacity="0.58"/>
</linearGradient>
<linearGradient id="paint2_linear_13_205" x1="188.747" y1="379.833" x2="273.616" y2="262.678" gradientUnits="userSpaceOnUse">
<stop stop-color="#FF9900"/>
<stop offset="1" stop-color="#FFEE94"/>
</linearGradient>
<linearGradient id="paint3_linear_13_205" x1="244.648" y1="381.923" x2="257.425" y2="357.933" gradientUnits="userSpaceOnUse">
<stop stop-color="#FF9900"/>
<stop offset="1" stop-color="#FFEE94"/>
</linearGradient>
<linearGradient id="paint4_linear_13_205" x1="118.648" y1="305.923" x2="131.425" y2="281.933" gradientUnits="userSpaceOnUse">
<stop stop-color="#FF9900"/>
<stop offset="1" stop-color="#FFEE94"/>
</linearGradient>
<clipPath id="clip0_13_205">
<rect width="400" height="400" fill="white"/>
</clipPath>
</defs>
</svg>
