<svg width="400" height="400" viewBox="0 0 400 400" fill="none" xmlns="http://www.w3.org/2000/svg">
<g clip-path="url(#clip0_32_212)">
<g filter="url(#filter0_f_32_212)">
<path d="M206.578 41.5262C180.665 76.7093 176.172 124.725 199.031 164.318C221.89 203.911 265.719 224.027 309.145 219.177C299.912 231.714 287.958 242.621 273.554 250.938C218.725 282.593 149.143 264.722 118.138 211.021C87.134 157.32 106.448 88.1246 161.277 56.4689C175.682 48.1525 191.104 43.2544 206.578 41.5262Z" fill="#FFEE94"/>
</g>
<g filter="url(#filter1_i_32_212)">
<path d="M204.162 56.3521C180.508 88.4683 176.406 132.298 197.273 168.44C218.139 204.582 258.148 222.945 297.788 218.518C289.36 229.962 278.448 239.918 265.3 247.51C215.25 276.406 151.733 260.093 123.431 211.072C95.1294 162.052 112.76 98.8886 162.81 69.9922C175.959 62.4007 190.037 57.9296 204.162 56.3521Z" fill="url(#paint0_linear_32_212)"/>
</g>
<g filter="url(#filter2_b_32_212)">
<g filter="url(#filter3_i_32_212)">
<path d="M320.747 187.63C321.549 183.076 321.967 178.391 321.967 173.61C321.967 128.881 285.369 92.6211 240.223 92.6211C206.661 92.6211 177.823 112.661 165.234 141.322C155.035 132.598 141.801 127.331 127.339 127.331C95.0918 127.331 68.9504 153.518 68.9504 185.823C68.9504 187.621 69.0315 189.401 69.1902 191.159C53.6799 198.686 43 214.479 43 232.745C43 258.304 63.9131 279.024 89.7108 279.024H310.289C336.087 279.024 357 258.304 357 232.745C357 210.747 341.51 192.334 320.747 187.63Z" fill="url(#paint1_linear_32_212)"/>
</g>
</g>
<g opacity="0.54" filter="url(#filter4_f_32_212)">
<ellipse cx="149.564" cy="215.47" rx="52.2063" ry="48.2341" fill="white"/>
<ellipse cx="199.5" cy="184.259" rx="68.0952" ry="72.6349" fill="white"/>
<ellipse cx="290.294" cy="171.208" rx="52.2063" ry="48.2341" fill="white"/>
<ellipse cx="117.218" cy="254.057" rx="60.7183" ry="56.1786" fill="white"/>
<ellipse cx="96.7896" cy="264.839" rx="34.6151" ry="31.7778" fill="white"/>
</g>
<path d="M132.044 225.162L198.727 331.855" stroke="#00BCFF" stroke-width="9" stroke-linecap="round"/>
<path d="M148.132 251.376L154.652 220.924" stroke="#00BCFF" stroke-width="9" stroke-linecap="round"/>
<path d="M148.132 251.376L117.309 244.263" stroke="#00BCFF" stroke-width="9" stroke-linecap="round"/>
<path d="M183.696 308.279L213.927 315.762" stroke="#00BCFF" stroke-width="9" stroke-linecap="round"/>
<path d="M183.696 308.279L176.583 339.102" stroke="#00BCFF" stroke-width="9" stroke-linecap="round"/>
<path d="M194.936 223.561L135.879 334.657" stroke="#00BCFF" stroke-width="9" stroke-linecap="round"/>
<path d="M180.278 250.6L209.911 241.021" stroke="#00BCFF" stroke-width="9" stroke-linecap="round"/>
<path d="M180.278 250.6L171.026 220.35" stroke="#00BCFF" stroke-width="9" stroke-linecap="round"/>
<path d="M148.781 309.851L157.415 339.773" stroke="#00BCFF" stroke-width="9" stroke-linecap="round"/>
<path d="M148.781 309.851L118.531 319.103" stroke="#00BCFF" stroke-width="9" stroke-linecap="round"/>
<path d="M227.768 277.226L102.028 281.629" stroke="#00BCFF" stroke-width="9" stroke-linecap="round"/>
<path d="M197.022 278.052L220.135 298.925" stroke="#00BCFF" stroke-width="9" stroke-linecap="round"/>
<path d="M197.022 278.052L218.594 254.915" stroke="#00BCFF" stroke-width="9" stroke-linecap="round"/>
<path d="M129.961 280.4L108.365 302.838" stroke="#00BCFF" stroke-width="9" stroke-linecap="round"/>
<path d="M129.961 280.4L106.824 258.828" stroke="#00BCFF" stroke-width="9" stroke-linecap="round"/>
<path d="M298.38 292.576L273.008 349.555" stroke="#00BCFF" stroke-width="6.00313" stroke-linecap="round"/>
<path d="M292.063 306.453L306.387 300.693" stroke="#00BCFF" stroke-width="6.00313" stroke-linecap="round"/>
<path d="M292.063 306.453L286.444 291.813" stroke="#00BCFF" stroke-width="6.00313" stroke-linecap="round"/>
<path d="M278.531 336.842L283.833 351.341" stroke="#00BCFF" stroke-width="6.00313" stroke-linecap="round"/>
<path d="M278.531 336.842L263.891 342.461" stroke="#00BCFF" stroke-width="6.00313" stroke-linecap="round"/>
<path d="M316.468 317.983L254.437 324.499" stroke="#00BCFF" stroke-width="6.00313" stroke-linecap="round"/>
<path d="M301.291 319.451L313.442 328.975" stroke="#00BCFF" stroke-width="6.00313" stroke-linecap="round"/>
<path d="M301.291 319.451L311.161 307.264" stroke="#00BCFF" stroke-width="6.00313" stroke-linecap="round"/>
<path d="M268.208 322.926L258.302 334.768" stroke="#00BCFF" stroke-width="6.00313" stroke-linecap="round"/>
<path d="M268.208 322.926L256.021 313.057" stroke="#00BCFF" stroke-width="6.00313" stroke-linecap="round"/>
<path d="M303.51 346.351L266.851 295.888" stroke="#00BCFF" stroke-width="6.00313" stroke-linecap="round"/>
<path d="M294.649 333.941L292.476 349.226" stroke="#00BCFF" stroke-width="6.00313" stroke-linecap="round"/>
<path d="M294.649 333.941L310.138 336.396" stroke="#00BCFF" stroke-width="6.00313" stroke-linecap="round"/>
<path d="M275.098 307.028L259.89 304.37" stroke="#00BCFF" stroke-width="6.00313" stroke-linecap="round"/>
<path d="M275.098 307.028L277.552 291.54" stroke="#00BCFF" stroke-width="6.00313" stroke-linecap="round"/>
</g>
<defs>
<filter id="filter0_f_32_212" x="50.3452" y="-11.4739" width="311.8" height="331.066" filterUnits="userSpaceOnUse" color-interpolation-filters="sRGB">
<feFlood flood-opacity="0" result="BackgroundImageFix"/>
<feBlend mode="normal" in="SourceGraphic" in2="BackgroundImageFix" result="shape"/>
<feGaussianBlur stdDeviation="26.5" result="effect1_foregroundBlur_32_212"/>
</filter>
<filter id="filter1_i_32_212" x="109.927" y="56.3521" width="187.861" height="209.448" filterUnits="userSpaceOnUse" color-interpolation-filters="sRGB">
<feFlood flood-opacity="0" result="BackgroundImageFix"/>
<feBlend mode="normal" in="SourceGraphic" in2="BackgroundImageFix" result="shape"/>
<feColorMatrix in="SourceAlpha" type="matrix" values="0 0 0 0 0 0 0 0 0 0 0 0 0 0 0 0 0 0 127 0" result="hardAlpha"/>
<feOffset dy="4"/>
<feGaussianBlur stdDeviation="4"/>
<feComposite in2="hardAlpha" operator="arithmetic" k2="-1" k3="1"/>
<feColorMatrix type="matrix" values="0 0 0 0 1 0 0 0 0 1 0 0 0 0 1 0 0 0 0.55 0"/>
<feBlend mode="normal" in2="shape" result="effect1_innerShadow_32_212"/>
</filter>
<filter id="filter2_b_32_212" x="16" y="65.6211" width="368" height="240.403" filterUnits="userSpaceOnUse" color-interpolation-filters="sRGB">
<feFlood flood-opacity="0" result="BackgroundImageFix"/>
<feGaussianBlur in="BackgroundImageFix" stdDeviation="13.5"/>
<feComposite in2="SourceAlpha" operator="in" result="effect1_backgroundBlur_32_212"/>
<feBlend mode="normal" in="SourceGraphic" in2="effect1_backgroundBlur_32_212" result="shape"/>
</filter>
<filter id="filter3_i_32_212" x="43" y="92.6211" width="314" height="196.403" filterUnits="userSpaceOnUse" color-interpolation-filters="sRGB">
<feFlood flood-opacity="0" result="BackgroundImageFix"/>
<feBlend mode="normal" in="SourceGraphic" in2="BackgroundImageFix" result="shape"/>
<feColorMatrix in="SourceAlpha" type="matrix" values="0 0 0 0 0 0 0 0 0 0 0 0 0 0 0 0 0 0 127 0" result="hardAlpha"/>
<feOffset dy="11"/>
<feGaussianBlur stdDeviation="5"/>
<feComposite in2="hardAlpha" operator="arithmetic" k2="-1" k3="1"/>
<feColorMatrix type="matrix" values="0 0 0 0 1 0 0 0 0 1 0 0 0 0 1 0 0 0 1 0"/>
<feBlend mode="normal" in2="shape" result="effect1_innerShadow_32_212"/>
</filter>
<filter id="filter4_f_32_212" x="-2.32437" y="52.8001" width="403.649" height="316.26" filterUnits="userSpaceOnUse" color-interpolation-filters="sRGB">
<feFlood flood-opacity="0" result="BackgroundImageFix"/>
<feBlend mode="normal" in="SourceGraphic" in2="BackgroundImageFix" result="shape"/>
<feGaussianBlur stdDeviation="29.4122" result="effect1_foregroundBlur_32_212"/>
</filter>
<linearGradient id="paint0_linear_32_212" x1="209.313" y1="39.3198" x2="171.761" y2="266.7" gradientUnits="userSpaceOnUse">
<stop stop-color="#FFEE94"/>
<stop offset="1" stop-color="#FF9900"/>
</linearGradient>
<linearGradient id="paint1_linear_32_212" x1="62.9717" y1="262.381" x2="379.746" y2="25.4939" gradientUnits="userSpaceOnUse">
<stop stop-color="white"/>
<stop offset="1" stop-color="white" stop-opacity="0.58"/>
</linearGradient>
<clipPath id="clip0_32_212">
<rect width="400" height="400" fill="white"/>
</clipPath>
</defs>
</svg>
