<svg width="24" height="23" viewBox="0 0 24 23" fill="none" xmlns="http://www.w3.org/2000/svg">
<g clip-path="url(#clip0_1_2214)">
<path d="M16.5323 3.18125H20.2408C20.4867 3.18125 20.7226 3.27893 20.8964 3.45281C21.0703 3.62668 21.168 3.8625 21.168 4.10839V18.9427C21.168 19.1886 21.0703 19.4244 20.8964 19.5983C20.7226 19.7721 20.4867 19.8698 20.2408 19.8698H3.55226C3.30637 19.8698 3.07055 19.7721 2.89668 19.5983C2.7228 19.4244 2.62512 19.1886 2.62512 18.9427V4.10839C2.62512 3.8625 2.7228 3.62668 2.89668 3.45281C3.07055 3.27893 3.30637 3.18125 3.55226 3.18125H7.26084V1.32697H9.11512V3.18125H14.678V1.32697H16.5323V3.18125ZM19.3137 8.74411V5.03554H16.5323V6.88982H14.678V5.03554H9.11512V6.88982H7.26084V5.03554H4.47941V8.74411H19.3137ZM19.3137 10.5984H4.47941V18.0155H19.3137V10.5984ZM6.33369 12.4527H10.9694V16.1613H6.33369V12.4527Z" fill="white"/>
</g>
<defs>
<clipPath id="clip0_1_2214">
<rect width="22.2514" height="22.2514" fill="white" transform="translate(0.770813 0.399841)"/>
</clipPath>
</defs>
</svg>
