<svg width="23" height="23" viewBox="0 0 23 23" fill="none" xmlns="http://www.w3.org/2000/svg">
<g clip-path="url(#clip0_1_1806)">
<path d="M11.8664 22.7009L5.96605 16.8005C4.79909 15.6336 4.00438 14.1467 3.68242 12.5281C3.36047 10.9095 3.52572 9.23173 4.15728 7.70702C4.78884 6.18231 5.85835 4.87911 7.23056 3.96224C8.60277 3.04536 10.216 2.55598 11.8664 2.55598C13.5167 2.55598 15.13 3.04536 16.5022 3.96224C17.8744 4.87911 18.9439 6.18231 19.5755 7.70702C20.2071 9.23173 20.3723 10.9095 20.0503 12.5281C19.7284 14.1467 18.9337 15.6336 17.7667 16.8005L11.8664 22.7009ZM16.4557 15.4895C17.3633 14.5819 17.9814 13.4255 18.2317 12.1666C18.4821 10.9076 18.3535 9.60274 17.8623 8.41689C17.3711 7.23104 16.5392 6.21748 15.472 5.50437C14.4047 4.79127 13.15 4.41066 11.8664 4.41066C10.5828 4.41066 9.32806 4.79127 8.2608 5.50437C7.19354 6.21748 6.3617 7.23104 5.87047 8.41689C5.37924 9.60274 5.25067 10.9076 5.50104 12.1666C5.7514 13.4255 6.36945 14.5819 7.27703 15.4895L11.8664 20.0789L16.4557 15.4895ZM11.8664 12.7545C11.3746 12.7545 10.903 12.5591 10.5552 12.2114C10.2075 11.8636 10.0121 11.392 10.0121 10.9002C10.0121 10.4084 10.2075 9.93676 10.5552 9.58901C10.903 9.24127 11.3746 9.0459 11.8664 9.0459C12.3582 9.0459 12.8298 9.24127 13.1776 9.58901C13.5253 9.93676 13.7207 10.4084 13.7207 10.9002C13.7207 11.392 13.5253 11.8636 13.1776 12.2114C12.8298 12.5591 12.3582 12.7545 11.8664 12.7545Z" fill="white"/>
</g>
<defs>
<clipPath id="clip0_1_1806">
<rect width="22.2514" height="22.2514" fill="white" transform="translate(0.740662 0.701691)"/>
</clipPath>
</defs>
</svg>
