<svg width="26" height="23" viewBox="0 0 26 23" fill="none" xmlns="http://www.w3.org/2000/svg">
<g clip-path="url(#clip0_1_1812)">
<path d="M5.55286 17.3904H18.5329V10.9291C18.5329 7.32902 15.6272 4.41037 12.0429 4.41037C8.45852 4.41037 5.55286 7.32902 5.55286 10.9291V17.3904ZM12.0429 2.55609C16.6508 2.55609 20.3871 6.30453 20.3871 10.9291V19.2447H3.69857V10.9291C3.69857 6.30453 7.43496 2.55609 12.0429 2.55609ZM9.725 20.1718H14.3607C14.3607 20.7865 14.1165 21.3761 13.6818 21.8108C13.2471 22.2455 12.6576 22.4897 12.0429 22.4897C11.4281 22.4897 10.8386 22.2455 10.4039 21.8108C9.9692 21.3761 9.725 20.7865 9.725 20.1718Z" fill="white"/>
</g>
<circle cx="20.3863" cy="7.19145" r="3.70857" fill="#FF7C7C" stroke="#47BBE1" stroke-width="1.85429"/>
<defs>
<clipPath id="clip0_1_1812">
<rect width="22.2514" height="22.2514" fill="white" transform="translate(0.917145 0.701801)"/>
</clipPath>
</defs>
</svg>
