<svg width="400" height="400" viewBox="0 0 400 400" fill="none" xmlns="http://www.w3.org/2000/svg">
<g clip-path="url(#clip0_32_209)">
<g filter="url(#filter0_f_32_209)">
<path d="M218.155 39.933C193.088 73.9666 188.742 120.413 210.854 158.713C232.966 197.012 275.363 216.471 317.37 211.78C308.439 223.907 296.876 234.458 282.942 242.503C229.904 273.124 162.596 255.837 132.604 203.89C102.613 151.944 121.296 85.0089 174.334 54.3875C188.267 46.3428 203.186 41.6047 218.155 39.933Z" fill="#FFEE94"/>
</g>
<g filter="url(#filter1_i_32_209)">
<path d="M215.817 54.2745C192.936 85.3415 188.968 127.74 209.153 162.7C229.338 197.661 268.039 215.424 306.385 211.142C298.232 222.212 287.677 231.843 274.957 239.187C226.543 267.139 165.101 251.358 137.724 203.94C110.347 156.521 127.401 95.4213 175.816 67.469C188.535 60.1255 202.154 55.8005 215.817 54.2745Z" fill="url(#paint0_linear_32_209)"/>
</g>
<g filter="url(#filter2_b_32_209)">
<g filter="url(#filter3_i_32_209)">
<path d="M264.572 223.732C265.111 220.672 265.392 217.524 265.392 214.312C265.392 184.255 240.799 159.889 210.462 159.889C187.909 159.889 168.531 173.355 160.071 192.615C153.218 186.753 144.325 183.213 134.607 183.213C112.938 183.213 95.3714 200.811 95.3714 222.518C95.3714 223.727 95.4258 224.923 95.5325 226.104C85.11 231.162 77.9333 241.775 77.9333 254.049C77.9333 271.224 91.9864 285.147 109.322 285.147H257.545C274.88 285.147 288.933 271.224 288.933 254.049C288.933 239.267 278.524 226.894 264.572 223.732Z" fill="url(#paint1_linear_32_209)"/>
</g>
</g>
<g filter="url(#filter4_di_32_209)">
<path d="M134.715 251.278C122.292 267.629 104.899 300.332 134.715 300.332C164.532 300.332 147.139 267.629 134.715 251.278Z" fill="#00BCFF"/>
</g>
<g filter="url(#filter5_di_32_209)">
<path d="M231.479 251.278C219.056 267.629 201.663 300.332 231.479 300.332C261.296 300.332 243.903 267.629 231.479 251.278Z" fill="#00BCFF"/>
</g>
<g filter="url(#filter6_di_32_209)">
<path d="M185.113 319.147C172.69 335.499 155.297 368.201 185.113 368.201C214.93 368.201 197.537 335.499 185.113 319.147Z" fill="#00BCFF"/>
</g>
<g filter="url(#filter7_f_32_209)">
<rect x="102.796" y="288.908" width="161.274" height="23.5191" rx="11.7596" fill="#00BCFF"/>
</g>
</g>
<defs>
<filter id="filter0_f_32_209" x="65.2944" y="-13.067" width="305.076" height="323.713" filterUnits="userSpaceOnUse" color-interpolation-filters="sRGB">
<feFlood flood-opacity="0" result="BackgroundImageFix"/>
<feBlend mode="normal" in="SourceGraphic" in2="BackgroundImageFix" result="shape"/>
<feGaussianBlur stdDeviation="26.5" result="effect1_foregroundBlur_32_209"/>
</filter>
<filter id="filter1_i_32_209" x="124.662" y="54.2745" width="181.723" height="202.735" filterUnits="userSpaceOnUse" color-interpolation-filters="sRGB">
<feFlood flood-opacity="0" result="BackgroundImageFix"/>
<feBlend mode="normal" in="SourceGraphic" in2="BackgroundImageFix" result="shape"/>
<feColorMatrix in="SourceAlpha" type="matrix" values="0 0 0 0 0 0 0 0 0 0 0 0 0 0 0 0 0 0 127 0" result="hardAlpha"/>
<feOffset dy="4"/>
<feGaussianBlur stdDeviation="4"/>
<feComposite in2="hardAlpha" operator="arithmetic" k2="-1" k3="1"/>
<feColorMatrix type="matrix" values="0 0 0 0 1 0 0 0 0 1 0 0 0 0 1 0 0 0 0.55 0"/>
<feBlend mode="normal" in2="shape" result="effect1_innerShadow_32_209"/>
</filter>
<filter id="filter2_b_32_209" x="50.9333" y="132.889" width="265" height="179.258" filterUnits="userSpaceOnUse" color-interpolation-filters="sRGB">
<feFlood flood-opacity="0" result="BackgroundImageFix"/>
<feGaussianBlur in="BackgroundImageFix" stdDeviation="13.5"/>
<feComposite in2="SourceAlpha" operator="in" result="effect1_backgroundBlur_32_209"/>
<feBlend mode="normal" in="SourceGraphic" in2="effect1_backgroundBlur_32_209" result="shape"/>
</filter>
<filter id="filter3_i_32_209" x="77.9333" y="159.889" width="211" height="135.258" filterUnits="userSpaceOnUse" color-interpolation-filters="sRGB">
<feFlood flood-opacity="0" result="BackgroundImageFix"/>
<feBlend mode="normal" in="SourceGraphic" in2="BackgroundImageFix" result="shape"/>
<feColorMatrix in="SourceAlpha" type="matrix" values="0 0 0 0 0 0 0 0 0 0 0 0 0 0 0 0 0 0 127 0" result="hardAlpha"/>
<feOffset dy="11"/>
<feGaussianBlur stdDeviation="5"/>
<feComposite in2="hardAlpha" operator="arithmetic" k2="-1" k3="1"/>
<feColorMatrix type="matrix" values="0 0 0 0 1 0 0 0 0 1 0 0 0 0 1 0 0 0 1 0"/>
<feBlend mode="normal" in2="shape" result="effect1_innerShadow_32_209"/>
</filter>
<filter id="filter4_di_32_209" x="99.252" y="251.278" width="70.9268" height="88.0542" filterUnits="userSpaceOnUse" color-interpolation-filters="sRGB">
<feFlood flood-opacity="0" result="BackgroundImageFix"/>
<feColorMatrix in="SourceAlpha" type="matrix" values="0 0 0 0 0 0 0 0 0 0 0 0 0 0 0 0 0 0 127 0" result="hardAlpha"/>
<feOffset dy="20"/>
<feGaussianBlur stdDeviation="9.5"/>
<feComposite in2="hardAlpha" operator="out"/>
<feColorMatrix type="matrix" values="0 0 0 0 0.283785 0 0 0 0 0.178889 0 0 0 0 0.933333 0 0 0 1 0"/>
<feBlend mode="normal" in2="BackgroundImageFix" result="effect1_dropShadow_32_209"/>
<feBlend mode="normal" in="SourceGraphic" in2="effect1_dropShadow_32_209" result="shape"/>
<feColorMatrix in="SourceAlpha" type="matrix" values="0 0 0 0 0 0 0 0 0 0 0 0 0 0 0 0 0 0 127 0" result="hardAlpha"/>
<feOffset dy="9"/>
<feGaussianBlur stdDeviation="1.5"/>
<feComposite in2="hardAlpha" operator="arithmetic" k2="-1" k3="1"/>
<feColorMatrix type="matrix" values="0 0 0 0 1 0 0 0 0 1 0 0 0 0 1 0 0 0 0.21 0"/>
<feBlend mode="normal" in2="shape" result="effect2_innerShadow_32_209"/>
</filter>
<filter id="filter5_di_32_209" x="196.016" y="251.278" width="70.9268" height="88.0542" filterUnits="userSpaceOnUse" color-interpolation-filters="sRGB">
<feFlood flood-opacity="0" result="BackgroundImageFix"/>
<feColorMatrix in="SourceAlpha" type="matrix" values="0 0 0 0 0 0 0 0 0 0 0 0 0 0 0 0 0 0 127 0" result="hardAlpha"/>
<feOffset dy="20"/>
<feGaussianBlur stdDeviation="9.5"/>
<feComposite in2="hardAlpha" operator="out"/>
<feColorMatrix type="matrix" values="0 0 0 0 0.283785 0 0 0 0 0.178889 0 0 0 0 0.933333 0 0 0 1 0"/>
<feBlend mode="normal" in2="BackgroundImageFix" result="effect1_dropShadow_32_209"/>
<feBlend mode="normal" in="SourceGraphic" in2="effect1_dropShadow_32_209" result="shape"/>
<feColorMatrix in="SourceAlpha" type="matrix" values="0 0 0 0 0 0 0 0 0 0 0 0 0 0 0 0 0 0 127 0" result="hardAlpha"/>
<feOffset dy="9"/>
<feGaussianBlur stdDeviation="1.5"/>
<feComposite in2="hardAlpha" operator="arithmetic" k2="-1" k3="1"/>
<feColorMatrix type="matrix" values="0 0 0 0 1 0 0 0 0 1 0 0 0 0 1 0 0 0 0.21 0"/>
<feBlend mode="normal" in2="shape" result="effect2_innerShadow_32_209"/>
</filter>
<filter id="filter6_di_32_209" x="149.65" y="319.147" width="70.9268" height="88.0542" filterUnits="userSpaceOnUse" color-interpolation-filters="sRGB">
<feFlood flood-opacity="0" result="BackgroundImageFix"/>
<feColorMatrix in="SourceAlpha" type="matrix" values="0 0 0 0 0 0 0 0 0 0 0 0 0 0 0 0 0 0 127 0" result="hardAlpha"/>
<feOffset dy="20"/>
<feGaussianBlur stdDeviation="9.5"/>
<feComposite in2="hardAlpha" operator="out"/>
<feColorMatrix type="matrix" values="0 0 0 0 0.283785 0 0 0 0 0.178889 0 0 0 0 0.933333 0 0 0 1 0"/>
<feBlend mode="normal" in2="BackgroundImageFix" result="effect1_dropShadow_32_209"/>
<feBlend mode="normal" in="SourceGraphic" in2="effect1_dropShadow_32_209" result="shape"/>
<feColorMatrix in="SourceAlpha" type="matrix" values="0 0 0 0 0 0 0 0 0 0 0 0 0 0 0 0 0 0 127 0" result="hardAlpha"/>
<feOffset dy="9"/>
<feGaussianBlur stdDeviation="1.5"/>
<feComposite in2="hardAlpha" operator="arithmetic" k2="-1" k3="1"/>
<feColorMatrix type="matrix" values="0 0 0 0 1 0 0 0 0 1 0 0 0 0 1 0 0 0 0.21 0"/>
<feBlend mode="normal" in2="shape" result="effect2_innerShadow_32_209"/>
</filter>
<filter id="filter7_f_32_209" x="24.7964" y="210.908" width="317.274" height="179.519" filterUnits="userSpaceOnUse" color-interpolation-filters="sRGB">
<feFlood flood-opacity="0" result="BackgroundImageFix"/>
<feBlend mode="normal" in="SourceGraphic" in2="BackgroundImageFix" result="shape"/>
<feGaussianBlur stdDeviation="39" result="effect1_foregroundBlur_32_209"/>
</filter>
<linearGradient id="paint0_linear_32_209" x1="220.8" y1="37.7987" x2="184.475" y2="257.75" gradientUnits="userSpaceOnUse">
<stop stop-color="#FFEE94"/>
<stop offset="1" stop-color="#FF9900"/>
</linearGradient>
<linearGradient id="paint1_linear_32_209" x1="91.3538" y1="273.963" x2="304.218" y2="114.781" gradientUnits="userSpaceOnUse">
<stop stop-color="white"/>
<stop offset="1" stop-color="white" stop-opacity="0.58"/>
</linearGradient>
<clipPath id="clip0_32_209">
<rect width="400" height="400" fill="white"/>
</clipPath>
</defs>
</svg>
