<svg width="400" height="400" viewBox="0 0 400 400" fill="none" xmlns="http://www.w3.org/2000/svg">
<g clip-path="url(#clip0_32_211)">
<g filter="url(#filter0_f_32_211)">
<path d="M218.578 50.2049C192.665 85.388 188.172 133.403 211.031 172.996C233.89 212.589 277.719 232.706 321.145 227.856C311.912 240.393 299.958 251.3 285.554 259.616C230.725 291.272 161.143 273.401 130.138 219.7C99.134 165.999 118.448 96.8033 173.277 65.1476C187.682 56.8312 203.104 51.9331 218.578 50.2049Z" fill="#FFEE94"/>
</g>
<g filter="url(#filter1_i_32_211)">
<path d="M216.162 65.0308C192.508 97.147 188.406 140.977 209.273 177.119C230.139 213.261 270.148 231.624 309.788 227.196C301.36 238.64 290.448 248.597 277.3 256.188C227.25 285.085 163.733 268.771 135.431 219.751C107.129 170.731 124.76 107.567 174.81 78.671C187.959 71.0794 202.037 66.6083 216.162 65.0308Z" fill="url(#paint0_linear_32_211)"/>
</g>
<g filter="url(#filter2_b_32_211)">
<g filter="url(#filter3_i_32_211)">
<path d="M273.522 261.205C274.061 258.145 274.342 254.997 274.342 251.784C274.342 221.727 249.749 197.361 219.412 197.361C196.859 197.361 177.481 210.827 169.021 230.087C162.168 224.225 153.275 220.685 143.557 220.685C121.887 220.685 104.321 238.283 104.321 259.99C104.321 261.199 104.376 262.395 104.482 263.576C94.0597 268.634 86.8831 279.247 86.8831 291.521C86.8831 308.696 100.936 322.619 118.271 322.619H266.495C283.83 322.619 297.883 308.696 297.883 291.521C297.883 276.739 287.474 264.366 273.522 261.205Z" fill="url(#paint1_linear_32_211)"/>
</g>
</g>
<path d="M152.788 279.124L189.997 338.658" stroke="#00BCFF" stroke-width="9" stroke-linecap="round"/>
<path d="M161.765 293.752L165.403 276.759" stroke="#00BCFF" stroke-width="9" stroke-linecap="round"/>
<path d="M161.765 293.752L144.566 289.782" stroke="#00BCFF" stroke-width="9" stroke-linecap="round"/>
<path d="M181.61 325.503L198.478 329.679" stroke="#00BCFF" stroke-width="9" stroke-linecap="round"/>
<path d="M181.61 325.503L177.641 342.702" stroke="#00BCFF" stroke-width="9" stroke-linecap="round"/>
<path d="M187.881 278.231L154.927 340.222" stroke="#00BCFF" stroke-width="9" stroke-linecap="round"/>
<path d="M179.702 293.319L196.237 287.974" stroke="#00BCFF" stroke-width="9" stroke-linecap="round"/>
<path d="M179.702 293.319L174.54 276.439" stroke="#00BCFF" stroke-width="9" stroke-linecap="round"/>
<path d="M162.127 326.38L166.945 343.077" stroke="#00BCFF" stroke-width="9" stroke-linecap="round"/>
<path d="M162.127 326.38L145.247 331.543" stroke="#00BCFF" stroke-width="9" stroke-linecap="round"/>
<path d="M206.202 308.176L136.039 310.633" stroke="#00BCFF" stroke-width="9" stroke-linecap="round"/>
<path d="M189.045 308.636L201.942 320.284" stroke="#00BCFF" stroke-width="9" stroke-linecap="round"/>
<path d="M189.045 308.636L201.082 295.726" stroke="#00BCFF" stroke-width="9" stroke-linecap="round"/>
<path d="M151.625 309.947L139.575 322.467" stroke="#00BCFF" stroke-width="9" stroke-linecap="round"/>
<path d="M151.626 309.947L138.715 297.91" stroke="#00BCFF" stroke-width="9" stroke-linecap="round"/>
<path d="M245.603 316.741L231.445 348.535" stroke="#00BCFF" stroke-width="6.00313" stroke-linecap="round"/>
<path d="M242.078 324.485L250.071 321.27" stroke="#00BCFF" stroke-width="6.00313" stroke-linecap="round"/>
<path d="M242.078 324.485L238.943 316.315" stroke="#00BCFF" stroke-width="6.00313" stroke-linecap="round"/>
<path d="M234.527 341.442L237.486 349.532" stroke="#00BCFF" stroke-width="6.00313" stroke-linecap="round"/>
<path d="M234.527 341.442L226.358 344.577" stroke="#00BCFF" stroke-width="6.00313" stroke-linecap="round"/>
<path d="M255.696 330.918L221.083 334.554" stroke="#00BCFF" stroke-width="6.00313" stroke-linecap="round"/>
<path d="M247.227 331.737L254.007 337.052" stroke="#00BCFF" stroke-width="6.00313" stroke-linecap="round"/>
<path d="M247.227 331.737L252.735 324.937" stroke="#00BCFF" stroke-width="6.00313" stroke-linecap="round"/>
<path d="M228.767 333.676L223.24 340.284" stroke="#00BCFF" stroke-width="6.00313" stroke-linecap="round"/>
<path d="M228.767 333.676L221.967 328.169" stroke="#00BCFF" stroke-width="6.00313" stroke-linecap="round"/>
<path d="M248.465 346.747L228.01 318.589" stroke="#00BCFF" stroke-width="6.00313" stroke-linecap="round"/>
<path d="M243.521 339.823L242.308 348.352" stroke="#00BCFF" stroke-width="6.00313" stroke-linecap="round"/>
<path d="M243.521 339.823L252.164 341.192" stroke="#00BCFF" stroke-width="6.00313" stroke-linecap="round"/>
<path d="M232.611 324.806L224.125 323.322" stroke="#00BCFF" stroke-width="6.00313" stroke-linecap="round"/>
<path d="M232.611 324.806L233.981 316.163" stroke="#00BCFF" stroke-width="6.00313" stroke-linecap="round"/>
</g>
<defs>
<filter id="filter0_f_32_211" x="62.3452" y="-2.79517" width="311.8" height="331.066" filterUnits="userSpaceOnUse" color-interpolation-filters="sRGB">
<feFlood flood-opacity="0" result="BackgroundImageFix"/>
<feBlend mode="normal" in="SourceGraphic" in2="BackgroundImageFix" result="shape"/>
<feGaussianBlur stdDeviation="26.5" result="effect1_foregroundBlur_32_211"/>
</filter>
<filter id="filter1_i_32_211" x="121.927" y="65.0308" width="187.861" height="209.448" filterUnits="userSpaceOnUse" color-interpolation-filters="sRGB">
<feFlood flood-opacity="0" result="BackgroundImageFix"/>
<feBlend mode="normal" in="SourceGraphic" in2="BackgroundImageFix" result="shape"/>
<feColorMatrix in="SourceAlpha" type="matrix" values="0 0 0 0 0 0 0 0 0 0 0 0 0 0 0 0 0 0 127 0" result="hardAlpha"/>
<feOffset dy="4"/>
<feGaussianBlur stdDeviation="4"/>
<feComposite in2="hardAlpha" operator="arithmetic" k2="-1" k3="1"/>
<feColorMatrix type="matrix" values="0 0 0 0 1 0 0 0 0 1 0 0 0 0 1 0 0 0 0.55 0"/>
<feBlend mode="normal" in2="shape" result="effect1_innerShadow_32_211"/>
</filter>
<filter id="filter2_b_32_211" x="59.8831" y="170.361" width="265" height="179.258" filterUnits="userSpaceOnUse" color-interpolation-filters="sRGB">
<feFlood flood-opacity="0" result="BackgroundImageFix"/>
<feGaussianBlur in="BackgroundImageFix" stdDeviation="13.5"/>
<feComposite in2="SourceAlpha" operator="in" result="effect1_backgroundBlur_32_211"/>
<feBlend mode="normal" in="SourceGraphic" in2="effect1_backgroundBlur_32_211" result="shape"/>
</filter>
<filter id="filter3_i_32_211" x="86.8831" y="197.361" width="211" height="135.258" filterUnits="userSpaceOnUse" color-interpolation-filters="sRGB">
<feFlood flood-opacity="0" result="BackgroundImageFix"/>
<feBlend mode="normal" in="SourceGraphic" in2="BackgroundImageFix" result="shape"/>
<feColorMatrix in="SourceAlpha" type="matrix" values="0 0 0 0 0 0 0 0 0 0 0 0 0 0 0 0 0 0 127 0" result="hardAlpha"/>
<feOffset dy="11"/>
<feGaussianBlur stdDeviation="5"/>
<feComposite in2="hardAlpha" operator="arithmetic" k2="-1" k3="1"/>
<feColorMatrix type="matrix" values="0 0 0 0 1 0 0 0 0 1 0 0 0 0 1 0 0 0 1 0"/>
<feBlend mode="normal" in2="shape" result="effect1_innerShadow_32_211"/>
</filter>
<linearGradient id="paint0_linear_32_211" x1="221.313" y1="47.9985" x2="183.761" y2="275.378" gradientUnits="userSpaceOnUse">
<stop stop-color="#FFEE94"/>
<stop offset="1" stop-color="#FF9900"/>
</linearGradient>
<linearGradient id="paint1_linear_32_211" x1="100.304" y1="311.436" x2="313.168" y2="152.254" gradientUnits="userSpaceOnUse">
<stop stop-color="white"/>
<stop offset="1" stop-color="white" stop-opacity="0.58"/>
</linearGradient>
<clipPath id="clip0_32_211">
<rect width="400" height="400" fill="white"/>
</clipPath>
</defs>
</svg>
