<svg width="400" height="400" viewBox="0 0 400 400" fill="none" xmlns="http://www.w3.org/2000/svg">
<g filter="url(#filter0_b_29_151)">
<g filter="url(#filter1_i_29_151)">
<path d="M320.747 201.807C321.549 197.253 321.967 192.569 321.967 187.787C321.967 143.059 285.369 106.799 240.223 106.799C206.661 106.799 177.823 126.838 165.234 155.499C155.035 146.775 141.801 141.508 127.339 141.508C95.0918 141.508 68.9504 167.696 68.9504 200C68.9504 201.799 69.0315 203.579 69.1902 205.336C53.6799 212.863 43 228.657 43 246.922C43 272.481 63.9131 293.201 89.7108 293.201H310.289C336.087 293.201 357 272.481 357 246.922C357 224.925 341.51 206.512 320.747 201.807Z" fill="url(#paint0_linear_29_151)"/>
</g>
</g>
<defs>
<filter id="filter0_b_29_151" x="16" y="79.7986" width="368" height="240.403" filterUnits="userSpaceOnUse" color-interpolation-filters="sRGB">
<feFlood flood-opacity="0" result="BackgroundImageFix"/>
<feGaussianBlur in="BackgroundImageFix" stdDeviation="13.5"/>
<feComposite in2="SourceAlpha" operator="in" result="effect1_backgroundBlur_29_151"/>
<feBlend mode="normal" in="SourceGraphic" in2="effect1_backgroundBlur_29_151" result="shape"/>
</filter>
<filter id="filter1_i_29_151" x="43" y="106.799" width="314" height="196.403" filterUnits="userSpaceOnUse" color-interpolation-filters="sRGB">
<feFlood flood-opacity="0" result="BackgroundImageFix"/>
<feBlend mode="normal" in="SourceGraphic" in2="BackgroundImageFix" result="shape"/>
<feColorMatrix in="SourceAlpha" type="matrix" values="0 0 0 0 0 0 0 0 0 0 0 0 0 0 0 0 0 0 127 0" result="hardAlpha"/>
<feOffset dy="11"/>
<feGaussianBlur stdDeviation="5"/>
<feComposite in2="hardAlpha" operator="arithmetic" k2="-1" k3="1"/>
<feColorMatrix type="matrix" values="0 0 0 0 1 0 0 0 0 1 0 0 0 0 1 0 0 0 1 0"/>
<feBlend mode="normal" in2="shape" result="effect1_innerShadow_29_151"/>
</filter>
<linearGradient id="paint0_linear_29_151" x1="62.9717" y1="276.558" x2="379.746" y2="39.6713" gradientUnits="userSpaceOnUse">
<stop stop-color="white"/>
<stop offset="1" stop-color="white" stop-opacity="0.58"/>
</linearGradient>
</defs>
</svg>
