<svg width="400" height="400" viewBox="0 0 400 400" fill="none" xmlns="http://www.w3.org/2000/svg">
<g clip-path="url(#clip0_13_171)">
<g filter="url(#filter0_b_13_171)">
<g filter="url(#filter1_i_13_171)">
<path d="M320.747 136.008C321.549 131.455 321.967 126.77 321.967 121.989C321.967 77.2599 285.369 41 240.223 41C206.661 41 177.823 61.0397 165.234 89.7008C155.035 80.9768 141.801 75.7095 127.339 75.7095C95.0918 75.7095 68.9504 101.897 68.9504 134.201C68.9504 136 69.0315 137.78 69.1902 139.538C53.6799 147.065 43 162.858 43 181.124C43 206.683 63.9131 227.403 89.7108 227.403H310.289C336.087 227.403 357 206.683 357 181.124C357 159.126 341.51 140.713 320.747 136.008Z" fill="url(#paint0_linear_13_171)"/>
</g>
</g>
<g filter="url(#filter2_i_13_171)">
<path d="M227.775 227.5H177.75L156 285.986H195.15L177.025 359L243 263.211H214L227.775 227.5Z" fill="url(#paint1_linear_13_171)"/>
</g>
<g filter="url(#filter3_f_13_171)">
<rect x="71" y="194" width="257" height="50" rx="25" fill="#FFED8D"/>
</g>
<g filter="url(#filter4_di_13_171)">
<path d="M262.151 333.575C254.385 337.024 251.354 339.938 248.575 347.151C246.363 340.161 243.642 337.043 235 333.575C243.89 330.679 246.303 327.326 248.575 320C251.368 326.752 253.092 330.437 262.151 333.575Z" fill="url(#paint2_linear_13_171)"/>
</g>
<g filter="url(#filter5_i_13_171)">
<path d="M136.151 257.575C128.385 261.024 125.354 263.938 122.575 271.151C120.363 264.161 117.642 261.043 109 257.575C117.89 254.679 120.303 251.326 122.575 244C125.368 250.752 127.092 254.437 136.151 257.575Z" fill="url(#paint3_linear_13_171)"/>
</g>
</g>
<defs>
<filter id="filter0_b_13_171" x="16" y="14" width="368" height="240.403" filterUnits="userSpaceOnUse" color-interpolation-filters="sRGB">
<feFlood flood-opacity="0" result="BackgroundImageFix"/>
<feGaussianBlur in="BackgroundImageFix" stdDeviation="13.5"/>
<feComposite in2="SourceAlpha" operator="in" result="effect1_backgroundBlur_13_171"/>
<feBlend mode="normal" in="SourceGraphic" in2="effect1_backgroundBlur_13_171" result="shape"/>
</filter>
<filter id="filter1_i_13_171" x="43" y="41" width="314" height="196.403" filterUnits="userSpaceOnUse" color-interpolation-filters="sRGB">
<feFlood flood-opacity="0" result="BackgroundImageFix"/>
<feBlend mode="normal" in="SourceGraphic" in2="BackgroundImageFix" result="shape"/>
<feColorMatrix in="SourceAlpha" type="matrix" values="0 0 0 0 0 0 0 0 0 0 0 0 0 0 0 0 0 0 127 0" result="hardAlpha"/>
<feOffset dy="11"/>
<feGaussianBlur stdDeviation="5"/>
<feComposite in2="hardAlpha" operator="arithmetic" k2="-1" k3="1"/>
<feColorMatrix type="matrix" values="0 0 0 0 1 0 0 0 0 1 0 0 0 0 1 0 0 0 1 0"/>
<feBlend mode="normal" in2="shape" result="effect1_innerShadow_13_171"/>
</filter>
<filter id="filter2_i_13_171" x="154" y="227.5" width="89" height="131.5" filterUnits="userSpaceOnUse" color-interpolation-filters="sRGB">
<feFlood flood-opacity="0" result="BackgroundImageFix"/>
<feBlend mode="normal" in="SourceGraphic" in2="BackgroundImageFix" result="shape"/>
<feColorMatrix in="SourceAlpha" type="matrix" values="0 0 0 0 0 0 0 0 0 0 0 0 0 0 0 0 0 0 127 0" result="hardAlpha"/>
<feOffset dx="-2"/>
<feGaussianBlur stdDeviation="4.5"/>
<feComposite in2="hardAlpha" operator="arithmetic" k2="-1" k3="1"/>
<feColorMatrix type="matrix" values="0 0 0 0 1 0 0 0 0 1 0 0 0 0 1 0 0 0 0.5 0"/>
<feBlend mode="normal" in2="shape" result="effect1_innerShadow_13_171"/>
</filter>
<filter id="filter3_f_13_171" x="-6" y="117" width="411" height="204" filterUnits="userSpaceOnUse" color-interpolation-filters="sRGB">
<feFlood flood-opacity="0" result="BackgroundImageFix"/>
<feBlend mode="normal" in="SourceGraphic" in2="BackgroundImageFix" result="shape"/>
<feGaussianBlur stdDeviation="38.5" result="effect1_foregroundBlur_13_171"/>
</filter>
<filter id="filter4_di_13_171" x="226.233" y="320" width="44.6855" height="46.9181" filterUnits="userSpaceOnUse" color-interpolation-filters="sRGB">
<feFlood flood-opacity="0" result="BackgroundImageFix"/>
<feColorMatrix in="SourceAlpha" type="matrix" values="0 0 0 0 0 0 0 0 0 0 0 0 0 0 0 0 0 0 127 0" result="hardAlpha"/>
<feOffset dy="11"/>
<feGaussianBlur stdDeviation="4.38372"/>
<feColorMatrix type="matrix" values="0 0 0 0 0.285052 0 0 0 0 0.179688 0 0 0 0 0.9375 0 0 0 1 0"/>
<feBlend mode="normal" in2="BackgroundImageFix" result="effect1_dropShadow_13_171"/>
<feBlend mode="normal" in="SourceGraphic" in2="effect1_dropShadow_13_171" result="shape"/>
<feColorMatrix in="SourceAlpha" type="matrix" values="0 0 0 0 0 0 0 0 0 0 0 0 0 0 0 0 0 0 127 0" result="hardAlpha"/>
<feOffset dy="4"/>
<feGaussianBlur stdDeviation="2"/>
<feComposite in2="hardAlpha" operator="arithmetic" k2="-1" k3="1"/>
<feColorMatrix type="matrix" values="0 0 0 0 1 0 0 0 0 1 0 0 0 0 1 0 0 0 0.44 0"/>
<feBlend mode="normal" in2="shape" result="effect2_innerShadow_13_171"/>
</filter>
<filter id="filter5_i_13_171" x="109" y="244" width="27.1506" height="31.1506" filterUnits="userSpaceOnUse" color-interpolation-filters="sRGB">
<feFlood flood-opacity="0" result="BackgroundImageFix"/>
<feBlend mode="normal" in="SourceGraphic" in2="BackgroundImageFix" result="shape"/>
<feColorMatrix in="SourceAlpha" type="matrix" values="0 0 0 0 0 0 0 0 0 0 0 0 0 0 0 0 0 0 127 0" result="hardAlpha"/>
<feOffset dy="4"/>
<feGaussianBlur stdDeviation="2"/>
<feComposite in2="hardAlpha" operator="arithmetic" k2="-1" k3="1"/>
<feColorMatrix type="matrix" values="0 0 0 0 1 0 0 0 0 1 0 0 0 0 1 0 0 0 0.44 0"/>
<feBlend mode="normal" in2="shape" result="effect1_innerShadow_13_171"/>
</filter>
<linearGradient id="paint0_linear_13_171" x1="62.9717" y1="210.76" x2="379.746" y2="-26.1272" gradientUnits="userSpaceOnUse">
<stop stop-color="white"/>
<stop offset="1" stop-color="white" stop-opacity="0.58"/>
</linearGradient>
<linearGradient id="paint1_linear_13_171" x1="188.747" y1="346.333" x2="273.616" y2="229.178" gradientUnits="userSpaceOnUse">
<stop stop-color="#FF9900"/>
<stop offset="1" stop-color="#FFEE94"/>
</linearGradient>
<linearGradient id="paint2_linear_13_171" x1="244.648" y1="348.423" x2="257.425" y2="324.433" gradientUnits="userSpaceOnUse">
<stop stop-color="#FF9900"/>
<stop offset="1" stop-color="#FFEE94"/>
</linearGradient>
<linearGradient id="paint3_linear_13_171" x1="118.648" y1="272.423" x2="131.425" y2="248.433" gradientUnits="userSpaceOnUse">
<stop stop-color="#FF9900"/>
<stop offset="1" stop-color="#FFEE94"/>
</linearGradient>
<clipPath id="clip0_13_171">
<rect width="400" height="400" fill="white"/>
</clipPath>
</defs>
</svg>
