<svg width="400" height="400" viewBox="0 0 400 400" fill="none" xmlns="http://www.w3.org/2000/svg">
<g filter="url(#filter0_f_29_160)">
<rect x="81" y="273.5" width="240" height="35" rx="17.5" fill="#00BCFF"/>
</g>
<g filter="url(#filter1_b_29_160)">
<g filter="url(#filter2_i_29_160)">
<path d="M320.747 186.508C321.549 181.955 321.967 177.27 321.967 172.489C321.967 127.76 285.369 91.5 240.223 91.5C206.661 91.5 177.823 111.54 165.234 140.201C155.035 131.477 141.801 126.209 127.339 126.209C95.0918 126.209 68.9504 152.397 68.9504 184.701C68.9504 186.5 69.0315 188.28 69.1902 190.038C53.6799 197.565 43 213.358 43 231.624C43 257.183 63.9131 277.903 89.7108 277.903H310.289C336.087 277.903 357 257.183 357 231.624C357 209.626 341.51 191.213 320.747 186.508Z" fill="url(#paint0_linear_29_160)"/>
</g>
</g>
<defs>
<filter id="filter0_f_29_160" x="3" y="195.5" width="396" height="191" filterUnits="userSpaceOnUse" color-interpolation-filters="sRGB">
<feFlood flood-opacity="0" result="BackgroundImageFix"/>
<feBlend mode="normal" in="SourceGraphic" in2="BackgroundImageFix" result="shape"/>
<feGaussianBlur stdDeviation="39" result="effect1_foregroundBlur_29_160"/>
</filter>
<filter id="filter1_b_29_160" x="16" y="64.5" width="368" height="240.403" filterUnits="userSpaceOnUse" color-interpolation-filters="sRGB">
<feFlood flood-opacity="0" result="BackgroundImageFix"/>
<feGaussianBlur in="BackgroundImageFix" stdDeviation="13.5"/>
<feComposite in2="SourceAlpha" operator="in" result="effect1_backgroundBlur_29_160"/>
<feBlend mode="normal" in="SourceGraphic" in2="effect1_backgroundBlur_29_160" result="shape"/>
</filter>
<filter id="filter2_i_29_160" x="43" y="91.5" width="314" height="196.403" filterUnits="userSpaceOnUse" color-interpolation-filters="sRGB">
<feFlood flood-opacity="0" result="BackgroundImageFix"/>
<feBlend mode="normal" in="SourceGraphic" in2="BackgroundImageFix" result="shape"/>
<feColorMatrix in="SourceAlpha" type="matrix" values="0 0 0 0 0 0 0 0 0 0 0 0 0 0 0 0 0 0 127 0" result="hardAlpha"/>
<feOffset dy="11"/>
<feGaussianBlur stdDeviation="5"/>
<feComposite in2="hardAlpha" operator="arithmetic" k2="-1" k3="1"/>
<feColorMatrix type="matrix" values="0 0 0 0 1 0 0 0 0 1 0 0 0 0 1 0 0 0 1 0"/>
<feBlend mode="normal" in2="shape" result="effect1_innerShadow_29_160"/>
</filter>
<linearGradient id="paint0_linear_29_160" x1="62.9717" y1="261.26" x2="379.746" y2="24.3728" gradientUnits="userSpaceOnUse">
<stop stop-color="white"/>
<stop offset="1" stop-color="white" stop-opacity="0.58"/>
</linearGradient>
</defs>
</svg>
