<svg width="400" height="400" viewBox="0 0 400 400" fill="none" xmlns="http://www.w3.org/2000/svg">
<g clip-path="url(#clip0_29_106)">
<g filter="url(#filter0_b_29_106)">
<g filter="url(#filter1_i_29_106)">
<path d="M320.747 186.201C321.549 181.647 321.967 176.963 321.967 172.182C321.967 127.453 285.369 91.1927 240.223 91.1927C206.661 91.1927 177.823 111.232 165.234 139.893C155.035 131.169 141.801 125.902 127.339 125.902C95.0918 125.902 68.9504 152.09 68.9504 184.394C68.9504 186.193 69.0315 187.973 69.1902 189.73C53.6799 197.257 43 213.051 43 231.316C43 256.876 63.9131 277.596 89.7108 277.596H310.289C336.087 277.596 357 256.876 357 231.316C357 209.319 341.51 190.906 320.747 186.201Z" fill="url(#paint0_linear_29_106)"/>
</g>
</g>
<g opacity="0.54" filter="url(#filter2_f_29_106)">
<ellipse cx="149.564" cy="214.041" rx="52.2063" ry="48.2341" fill="white"/>
<ellipse cx="199.5" cy="182.831" rx="68.0952" ry="72.6349" fill="white"/>
<ellipse cx="290.294" cy="169.779" rx="52.2063" ry="48.2341" fill="white"/>
<ellipse cx="117.218" cy="252.629" rx="60.7183" ry="56.1786" fill="white"/>
<ellipse cx="96.7896" cy="263.41" rx="34.6151" ry="31.7778" fill="white"/>
</g>
</g>
<defs>
<filter id="filter0_b_29_106" x="16" y="64.1927" width="368" height="240.403" filterUnits="userSpaceOnUse" color-interpolation-filters="sRGB">
<feFlood flood-opacity="0" result="BackgroundImageFix"/>
<feGaussianBlur in="BackgroundImageFix" stdDeviation="13.5"/>
<feComposite in2="SourceAlpha" operator="in" result="effect1_backgroundBlur_29_106"/>
<feBlend mode="normal" in="SourceGraphic" in2="effect1_backgroundBlur_29_106" result="shape"/>
</filter>
<filter id="filter1_i_29_106" x="43" y="91.1927" width="314" height="196.403" filterUnits="userSpaceOnUse" color-interpolation-filters="sRGB">
<feFlood flood-opacity="0" result="BackgroundImageFix"/>
<feBlend mode="normal" in="SourceGraphic" in2="BackgroundImageFix" result="shape"/>
<feColorMatrix in="SourceAlpha" type="matrix" values="0 0 0 0 0 0 0 0 0 0 0 0 0 0 0 0 0 0 127 0" result="hardAlpha"/>
<feOffset dy="11"/>
<feGaussianBlur stdDeviation="5"/>
<feComposite in2="hardAlpha" operator="arithmetic" k2="-1" k3="1"/>
<feColorMatrix type="matrix" values="0 0 0 0 1 0 0 0 0 1 0 0 0 0 1 0 0 0 1 0"/>
<feBlend mode="normal" in2="shape" result="effect1_innerShadow_29_106"/>
</filter>
<filter id="filter2_f_29_106" x="-2.32437" y="51.3718" width="403.649" height="316.26" filterUnits="userSpaceOnUse" color-interpolation-filters="sRGB">
<feFlood flood-opacity="0" result="BackgroundImageFix"/>
<feBlend mode="normal" in="SourceGraphic" in2="BackgroundImageFix" result="shape"/>
<feGaussianBlur stdDeviation="29.4122" result="effect1_foregroundBlur_29_106"/>
</filter>
<linearGradient id="paint0_linear_29_106" x1="62.9717" y1="260.952" x2="379.746" y2="24.0654" gradientUnits="userSpaceOnUse">
<stop stop-color="white"/>
<stop offset="1" stop-color="white" stop-opacity="0.58"/>
</linearGradient>
<clipPath id="clip0_29_106">
<rect width="400" height="400" fill="white"/>
</clipPath>
</defs>
</svg>
