<svg width="400" height="400" viewBox="0 0 400 400" fill="none" xmlns="http://www.w3.org/2000/svg">
<g clip-path="url(#clip0_29_133)">
<g filter="url(#filter0_f_29_133)">
<rect x="74" y="87" width="240" height="226" rx="94" fill="#FFEF9A"/>
</g>
<g filter="url(#filter1_i_29_133)">
<path d="M300 200C300 259.094 252.542 307 194 307C135.458 307 88 259.094 88 200C88 140.906 135.458 93 194 93C252.542 93 300 140.906 300 200Z" fill="url(#paint0_linear_29_133)"/>
</g>
<g opacity="0.54" filter="url(#filter2_f_29_133)">
<ellipse cx="150.064" cy="199.04" rx="52.2063" ry="48.2341" fill="white"/>
<ellipse cx="200" cy="167.829" rx="68.0952" ry="72.6349" fill="white"/>
<ellipse cx="290.794" cy="154.778" rx="52.2063" ry="48.2341" fill="white"/>
<ellipse cx="117.718" cy="237.627" rx="60.7183" ry="56.1786" fill="white"/>
<ellipse cx="97.2896" cy="248.409" rx="34.6151" ry="31.7778" fill="white"/>
</g>
</g>
<defs>
<filter id="filter0_f_29_133" x="-3" y="10" width="394" height="380" filterUnits="userSpaceOnUse" color-interpolation-filters="sRGB">
<feFlood flood-opacity="0" result="BackgroundImageFix"/>
<feBlend mode="normal" in="SourceGraphic" in2="BackgroundImageFix" result="shape"/>
<feGaussianBlur stdDeviation="38.5" result="effect1_foregroundBlur_29_133"/>
</filter>
<filter id="filter1_i_29_133" x="88" y="93" width="212" height="219" filterUnits="userSpaceOnUse" color-interpolation-filters="sRGB">
<feFlood flood-opacity="0" result="BackgroundImageFix"/>
<feBlend mode="normal" in="SourceGraphic" in2="BackgroundImageFix" result="shape"/>
<feColorMatrix in="SourceAlpha" type="matrix" values="0 0 0 0 0 0 0 0 0 0 0 0 0 0 0 0 0 0 127 0" result="hardAlpha"/>
<feOffset dy="5"/>
<feGaussianBlur stdDeviation="9"/>
<feComposite in2="hardAlpha" operator="arithmetic" k2="-1" k3="1"/>
<feColorMatrix type="matrix" values="0 0 0 0 1 0 0 0 0 1 0 0 0 0 1 0 0 0 0.81 0"/>
<feBlend mode="normal" in2="shape" result="effect1_innerShadow_29_133"/>
</filter>
<filter id="filter2_f_29_133" x="-1.82437" y="36.3701" width="403.649" height="316.26" filterUnits="userSpaceOnUse" color-interpolation-filters="sRGB">
<feFlood flood-opacity="0" result="BackgroundImageFix"/>
<feBlend mode="normal" in="SourceGraphic" in2="BackgroundImageFix" result="shape"/>
<feGaussianBlur stdDeviation="29.4122" result="effect1_foregroundBlur_29_133"/>
</filter>
<linearGradient id="paint0_linear_29_133" x1="177.899" y1="258.241" x2="266.356" y2="104.55" gradientUnits="userSpaceOnUse">
<stop stop-color="#FF9900"/>
<stop offset="1" stop-color="#FFEE94"/>
</linearGradient>
<clipPath id="clip0_29_133">
<rect width="400" height="400" fill="white"/>
</clipPath>
</defs>
</svg>
