<svg width="400" height="400" viewBox="0 0 400 400" fill="none" xmlns="http://www.w3.org/2000/svg">
<g filter="url(#filter0_f_32_196)">
<path d="M184.5 290L168 148H201L184.5 290Z" fill="#00BCFF"/>
<path d="M181.682 198.674C184.697 198.304 185.859 187.561 184.277 174.679C182.695 161.797 178.969 151.654 175.954 152.025C172.939 152.395 171.777 163.138 173.359 176.02C174.941 188.902 178.667 199.045 181.682 198.674Z" fill="white"/>
</g>
<g filter="url(#filter1_f_32_196)">
<path d="M234.5 206L218 148H251L234.5 206Z" fill="#00BCFF"/>
<path d="M232.977 178.625C235.17 178.356 236.156 171.694 235.18 163.746C234.204 155.798 231.636 149.572 229.443 149.842C227.25 150.111 226.264 156.772 227.24 164.721C228.216 172.669 230.785 178.895 232.977 178.625Z" fill="white"/>
</g>
<g filter="url(#filter2_f_32_196)">
<path d="M264.5 188L253 148H276L264.5 188Z" fill="#00BCFF"/>
<path d="M263.346 169.155C264.86 168.969 265.542 164.367 264.868 158.877C264.193 153.386 262.419 149.086 260.905 149.272C259.39 149.458 258.709 154.06 259.383 159.55C260.057 165.041 261.831 169.341 263.346 169.155Z" fill="white"/>
</g>
<g filter="url(#filter3_f_32_196)">
<path d="M145 219L122 148H168L145 219Z" fill="#00BCFF"/>
<path d="M142.603 183.416C145.537 182.63 145.945 174.64 143.513 165.57C141.081 156.5 136.731 149.786 133.797 150.572C130.863 151.359 130.455 159.349 132.887 168.419C135.319 177.489 139.669 184.203 142.603 183.416Z" fill="white"/>
</g>
<g filter="url(#filter4_f_32_196)">
<path d="M144.464 251C145.14 251.008 152.001 261.719 152.001 265.882C152.001 267.881 151.207 269.798 149.793 271.211C148.38 272.624 146.463 273.418 144.464 273.418C142.465 273.418 140.548 272.624 139.135 271.211C137.721 269.798 136.927 267.881 136.927 265.882C136.927 261.719 143.788 250.993 144.464 251Z" fill="#00BCFF"/>
<path d="M138.364 267.482C139.117 267.712 140.074 266.765 140.502 265.366C140.929 263.968 140.665 262.647 139.912 262.417C139.159 262.187 138.202 263.134 137.774 264.532C137.347 265.931 137.61 267.251 138.364 267.482Z" fill="white"/>
</g>
<g filter="url(#filter5_f_32_196)">
<path d="M234.562 216C235.068 216.006 240.197 224.015 240.197 227.127C240.197 228.621 239.603 230.055 238.547 231.112C237.49 232.168 236.056 232.762 234.562 232.762C233.068 232.762 231.635 232.169 230.578 231.112C229.521 230.056 228.928 228.623 228.927 227.129C228.927 224.015 234.057 215.995 234.562 216Z" fill="#00BCFF"/>
<path d="M230.266 229.234C230.829 229.406 231.544 228.698 231.864 227.652C232.184 226.606 231.986 225.619 231.423 225.447C230.86 225.275 230.145 225.983 229.825 227.028C229.505 228.074 229.703 229.062 230.266 229.234Z" fill="white"/>
</g>
<g filter="url(#filter6_f_32_196)">
<path d="M290 110H110C98.9543 110 90 118.954 90 130C90 141.046 98.9543 150 110 150H290C301.046 150 310 141.046 310 130C310 118.954 301.046 110 290 110Z" fill="url(#paint0_linear_32_196)"/>
<g filter="url(#filter7_df_32_196)">
<path d="M280.5 122H120.5C116.358 122 113 125.358 113 129.5C113 133.642 116.358 137 120.5 137H280.5C284.642 137 288 133.642 288 129.5C288 125.358 284.642 122 280.5 122Z" fill="white"/>
</g>
</g>
<defs>
<filter id="filter0_f_32_196" x="164" y="144" width="41" height="150" filterUnits="userSpaceOnUse" color-interpolation-filters="sRGB">
<feFlood flood-opacity="0" result="BackgroundImageFix"/>
<feBlend mode="normal" in="SourceGraphic" in2="BackgroundImageFix" result="shape"/>
<feGaussianBlur stdDeviation="2" result="effect1_foregroundBlur_32_196"/>
</filter>
<filter id="filter1_f_32_196" x="214" y="144" width="41" height="66" filterUnits="userSpaceOnUse" color-interpolation-filters="sRGB">
<feFlood flood-opacity="0" result="BackgroundImageFix"/>
<feBlend mode="normal" in="SourceGraphic" in2="BackgroundImageFix" result="shape"/>
<feGaussianBlur stdDeviation="2" result="effect1_foregroundBlur_32_196"/>
</filter>
<filter id="filter2_f_32_196" x="249" y="144" width="31" height="48" filterUnits="userSpaceOnUse" color-interpolation-filters="sRGB">
<feFlood flood-opacity="0" result="BackgroundImageFix"/>
<feBlend mode="normal" in="SourceGraphic" in2="BackgroundImageFix" result="shape"/>
<feGaussianBlur stdDeviation="2" result="effect1_foregroundBlur_32_196"/>
</filter>
<filter id="filter3_f_32_196" x="118" y="144" width="54" height="79" filterUnits="userSpaceOnUse" color-interpolation-filters="sRGB">
<feFlood flood-opacity="0" result="BackgroundImageFix"/>
<feBlend mode="normal" in="SourceGraphic" in2="BackgroundImageFix" result="shape"/>
<feGaussianBlur stdDeviation="2" result="effect1_foregroundBlur_32_196"/>
</filter>
<filter id="filter4_f_32_196" x="134.927" y="249" width="19.074" height="26.418" filterUnits="userSpaceOnUse" color-interpolation-filters="sRGB">
<feFlood flood-opacity="0" result="BackgroundImageFix"/>
<feBlend mode="normal" in="SourceGraphic" in2="BackgroundImageFix" result="shape"/>
<feGaussianBlur stdDeviation="1" result="effect1_foregroundBlur_32_196"/>
</filter>
<filter id="filter5_f_32_196" x="226.927" y="214" width="15.27" height="20.762" filterUnits="userSpaceOnUse" color-interpolation-filters="sRGB">
<feFlood flood-opacity="0" result="BackgroundImageFix"/>
<feBlend mode="normal" in="SourceGraphic" in2="BackgroundImageFix" result="shape"/>
<feGaussianBlur stdDeviation="1" result="effect1_foregroundBlur_32_196"/>
</filter>
<filter id="filter6_f_32_196" x="86" y="106" width="228" height="48" filterUnits="userSpaceOnUse" color-interpolation-filters="sRGB">
<feFlood flood-opacity="0" result="BackgroundImageFix"/>
<feBlend mode="normal" in="SourceGraphic" in2="BackgroundImageFix" result="shape"/>
<feGaussianBlur stdDeviation="2" result="effect1_foregroundBlur_32_196"/>
</filter>
<filter id="filter7_df_32_196" x="109" y="118" width="183" height="27" filterUnits="userSpaceOnUse" color-interpolation-filters="sRGB">
<feFlood flood-opacity="0" result="BackgroundImageFix"/>
<feColorMatrix in="SourceAlpha" type="matrix" values="0 0 0 0 0 0 0 0 0 0 0 0 0 0 0 0 0 0 127 0" result="hardAlpha"/>
<feOffset dy="4"/>
<feGaussianBlur stdDeviation="2"/>
<feColorMatrix type="matrix" values="0 0 0 0 0 0 0 0 0 0 0 0 0 0 0 0 0 0 0.25 0"/>
<feBlend mode="normal" in2="BackgroundImageFix" result="effect1_dropShadow_32_196"/>
<feBlend mode="normal" in="SourceGraphic" in2="effect1_dropShadow_32_196" result="shape"/>
<feGaussianBlur stdDeviation="2" result="effect2_foregroundBlur_32_196"/>
</filter>
<linearGradient id="paint0_linear_32_196" x1="99.46" y1="110" x2="110.036" y2="177.797" gradientUnits="userSpaceOnUse">
<stop stop-color="#00BCFF"/>
<stop offset="1" stop-color="#00BCFF"/>
</linearGradient>
</defs>
</svg>
