<svg width="400" height="400" viewBox="0 0 400 400" fill="none" xmlns="http://www.w3.org/2000/svg">
<g filter="url(#filter0_f_32_206)">
<path d="M209.144 75.0597C184.077 109.093 179.731 155.54 201.843 193.839C223.955 232.139 266.352 251.598 308.359 246.906C299.428 259.034 287.865 269.585 273.931 277.629C220.893 308.251 153.585 290.963 123.593 239.017C93.6019 187.07 112.285 120.136 165.323 89.5142C179.257 81.4695 194.175 76.7314 209.144 75.0597Z" fill="#FFEE94"/>
</g>
<g filter="url(#filter1_i_32_206)">
<path d="M206.806 89.4013C183.925 120.468 179.957 162.866 200.142 197.827C220.327 232.788 259.028 250.551 297.374 246.269C289.221 257.339 278.666 266.97 265.946 274.314C217.532 302.266 156.09 286.485 128.713 239.067C101.336 191.648 118.39 130.548 166.805 102.596C179.524 95.2524 193.143 90.9273 206.806 89.4013Z" fill="url(#paint0_linear_32_206)"/>
</g>
<g filter="url(#filter2_b_32_206)">
<g filter="url(#filter3_i_32_206)">
<path d="M302.081 244.873C302.714 241.276 303.045 237.577 303.045 233.801C303.045 198.478 274.142 169.842 238.49 169.842C211.985 169.842 189.211 185.668 179.269 208.302C171.215 201.413 160.764 197.253 149.343 197.253C123.877 197.253 103.232 217.934 103.232 243.445C103.232 244.866 103.296 246.272 103.422 247.66C91.1728 253.604 82.7386 266.076 82.7386 280.501C82.7386 300.686 99.2542 317.049 119.627 317.049H293.822C314.195 317.049 330.711 300.686 330.711 280.501C330.711 263.129 318.478 248.588 302.081 244.873Z" fill="url(#paint1_linear_32_206)"/>
</g>
</g>
<defs>
<filter id="filter0_f_32_206" x="56.2834" y="22.0597" width="305.076" height="323.713" filterUnits="userSpaceOnUse" color-interpolation-filters="sRGB">
<feFlood flood-opacity="0" result="BackgroundImageFix"/>
<feBlend mode="normal" in="SourceGraphic" in2="BackgroundImageFix" result="shape"/>
<feGaussianBlur stdDeviation="26.5" result="effect1_foregroundBlur_32_206"/>
</filter>
<filter id="filter1_i_32_206" x="115.651" y="89.4014" width="181.723" height="202.735" filterUnits="userSpaceOnUse" color-interpolation-filters="sRGB">
<feFlood flood-opacity="0" result="BackgroundImageFix"/>
<feBlend mode="normal" in="SourceGraphic" in2="BackgroundImageFix" result="shape"/>
<feColorMatrix in="SourceAlpha" type="matrix" values="0 0 0 0 0 0 0 0 0 0 0 0 0 0 0 0 0 0 127 0" result="hardAlpha"/>
<feOffset dy="4"/>
<feGaussianBlur stdDeviation="4"/>
<feComposite in2="hardAlpha" operator="arithmetic" k2="-1" k3="1"/>
<feColorMatrix type="matrix" values="0 0 0 0 1 0 0 0 0 1 0 0 0 0 1 0 0 0 0.55 0"/>
<feBlend mode="normal" in2="shape" result="effect1_innerShadow_32_206"/>
</filter>
<filter id="filter2_b_32_206" x="55.7385" y="142.842" width="301.972" height="201.206" filterUnits="userSpaceOnUse" color-interpolation-filters="sRGB">
<feFlood flood-opacity="0" result="BackgroundImageFix"/>
<feGaussianBlur in="BackgroundImageFix" stdDeviation="13.5"/>
<feComposite in2="SourceAlpha" operator="in" result="effect1_backgroundBlur_32_206"/>
<feBlend mode="normal" in="SourceGraphic" in2="effect1_backgroundBlur_32_206" result="shape"/>
</filter>
<filter id="filter3_i_32_206" x="82.7385" y="169.842" width="247.972" height="157.206" filterUnits="userSpaceOnUse" color-interpolation-filters="sRGB">
<feFlood flood-opacity="0" result="BackgroundImageFix"/>
<feBlend mode="normal" in="SourceGraphic" in2="BackgroundImageFix" result="shape"/>
<feColorMatrix in="SourceAlpha" type="matrix" values="0 0 0 0 0 0 0 0 0 0 0 0 0 0 0 0 0 0 127 0" result="hardAlpha"/>
<feOffset dy="11"/>
<feGaussianBlur stdDeviation="5"/>
<feComposite in2="hardAlpha" operator="arithmetic" k2="-1" k3="1"/>
<feColorMatrix type="matrix" values="0 0 0 0 1 0 0 0 0 1 0 0 0 0 1 0 0 0 1 0"/>
<feBlend mode="normal" in2="shape" result="effect1_innerShadow_32_206"/>
</filter>
<linearGradient id="paint0_linear_32_206" x1="211.789" y1="72.9255" x2="175.464" y2="292.876" gradientUnits="userSpaceOnUse">
<stop stop-color="#FFEE94"/>
<stop offset="1" stop-color="#FF9900"/>
</linearGradient>
<linearGradient id="paint1_linear_32_206" x1="98.5107" y1="303.905" x2="348.674" y2="116.831" gradientUnits="userSpaceOnUse">
<stop stop-color="white"/>
<stop offset="1" stop-color="white" stop-opacity="0.58"/>
</linearGradient>
</defs>
</svg>
