<svg width="400" height="400" viewBox="0 0 400 400" fill="none" xmlns="http://www.w3.org/2000/svg">
<g filter="url(#filter0_f_13_194)">
<rect x="80" y="87" width="240" height="226" rx="94" fill="#FFEF9A"/>
</g>
<g filter="url(#filter1_i_13_194)">
<path d="M304 200C304 257.438 257.438 304 200 304C142.562 304 96 257.438 96 200C96 142.562 142.562 96 200 96C257.438 96 304 142.562 304 200Z" fill="url(#paint0_linear_13_194)"/>
</g>
<g filter="url(#filter2_b_13_194)">
<g filter="url(#filter3_i_13_194)">
<path d="M234.462 288.507C234.984 285.551 235.255 282.51 235.255 279.406C235.255 250.371 211.478 226.834 182.148 226.834C160.343 226.834 141.608 239.842 133.429 258.447C126.803 252.784 118.205 249.365 108.809 249.365C87.8587 249.365 70.8751 266.364 70.8751 287.334C70.8751 288.502 70.9278 289.657 71.0309 290.798C60.9541 295.684 54.0156 305.936 54.0156 317.793C54.0156 334.384 67.6025 347.834 84.3627 347.834H227.669C244.429 347.834 258.016 334.384 258.016 317.793C258.016 303.513 247.952 291.561 234.462 288.507Z" fill="url(#paint1_linear_13_194)"/>
</g>
</g>
<g filter="url(#filter4_b_13_194)">
<g filter="url(#filter5_i_13_194)">
<path d="M325.664 105.419C326.114 102.867 326.348 100.241 326.348 97.561C326.348 72.4901 305.835 52.166 280.53 52.166C261.718 52.166 245.554 63.3984 238.498 79.4632C232.781 74.5734 225.363 71.621 217.257 71.621C199.182 71.621 184.53 86.2995 184.53 104.406C184.53 105.415 184.575 106.412 184.664 107.397C175.971 111.616 169.984 120.469 169.984 130.707C169.984 145.033 181.706 156.647 196.166 156.647H319.803C334.262 156.647 345.984 145.033 345.984 130.707C345.984 118.377 337.302 108.056 325.664 105.419Z" fill="url(#paint2_linear_13_194)"/>
</g>
</g>
<defs>
<filter id="filter0_f_13_194" x="3" y="10" width="394" height="380" filterUnits="userSpaceOnUse" color-interpolation-filters="sRGB">
<feFlood flood-opacity="0" result="BackgroundImageFix"/>
<feBlend mode="normal" in="SourceGraphic" in2="BackgroundImageFix" result="shape"/>
<feGaussianBlur stdDeviation="38.5" result="effect1_foregroundBlur_13_194"/>
</filter>
<filter id="filter1_i_13_194" x="96" y="96" width="208" height="213" filterUnits="userSpaceOnUse" color-interpolation-filters="sRGB">
<feFlood flood-opacity="0" result="BackgroundImageFix"/>
<feBlend mode="normal" in="SourceGraphic" in2="BackgroundImageFix" result="shape"/>
<feColorMatrix in="SourceAlpha" type="matrix" values="0 0 0 0 0 0 0 0 0 0 0 0 0 0 0 0 0 0 127 0" result="hardAlpha"/>
<feOffset dy="5"/>
<feGaussianBlur stdDeviation="9"/>
<feComposite in2="hardAlpha" operator="arithmetic" k2="-1" k3="1"/>
<feColorMatrix type="matrix" values="0 0 0 0 1 0 0 0 0 1 0 0 0 0 1 0 0 0 0.81 0"/>
<feBlend mode="normal" in2="shape" result="effect1_innerShadow_13_194"/>
</filter>
<filter id="filter2_b_13_194" x="27.0156" y="199.834" width="258" height="175" filterUnits="userSpaceOnUse" color-interpolation-filters="sRGB">
<feFlood flood-opacity="0" result="BackgroundImageFix"/>
<feGaussianBlur in="BackgroundImageFix" stdDeviation="13.5"/>
<feComposite in2="SourceAlpha" operator="in" result="effect1_backgroundBlur_13_194"/>
<feBlend mode="normal" in="SourceGraphic" in2="effect1_backgroundBlur_13_194" result="shape"/>
</filter>
<filter id="filter3_i_13_194" x="54.0156" y="226.834" width="204" height="131" filterUnits="userSpaceOnUse" color-interpolation-filters="sRGB">
<feFlood flood-opacity="0" result="BackgroundImageFix"/>
<feBlend mode="normal" in="SourceGraphic" in2="BackgroundImageFix" result="shape"/>
<feColorMatrix in="SourceAlpha" type="matrix" values="0 0 0 0 0 0 0 0 0 0 0 0 0 0 0 0 0 0 127 0" result="hardAlpha"/>
<feOffset dy="11"/>
<feGaussianBlur stdDeviation="5"/>
<feComposite in2="hardAlpha" operator="arithmetic" k2="-1" k3="1"/>
<feColorMatrix type="matrix" values="0 0 0 0 1 0 0 0 0 1 0 0 0 0 1 0 0 0 1 0"/>
<feBlend mode="normal" in2="shape" result="effect1_innerShadow_13_194"/>
</filter>
<filter id="filter4_b_13_194" x="142.984" y="25.166" width="230" height="158.481" filterUnits="userSpaceOnUse" color-interpolation-filters="sRGB">
<feFlood flood-opacity="0" result="BackgroundImageFix"/>
<feGaussianBlur in="BackgroundImageFix" stdDeviation="13.5"/>
<feComposite in2="SourceAlpha" operator="in" result="effect1_backgroundBlur_13_194"/>
<feBlend mode="normal" in="SourceGraphic" in2="effect1_backgroundBlur_13_194" result="shape"/>
</filter>
<filter id="filter5_i_13_194" x="169.984" y="52.166" width="176" height="114.481" filterUnits="userSpaceOnUse" color-interpolation-filters="sRGB">
<feFlood flood-opacity="0" result="BackgroundImageFix"/>
<feBlend mode="normal" in="SourceGraphic" in2="BackgroundImageFix" result="shape"/>
<feColorMatrix in="SourceAlpha" type="matrix" values="0 0 0 0 0 0 0 0 0 0 0 0 0 0 0 0 0 0 127 0" result="hardAlpha"/>
<feOffset dy="11"/>
<feGaussianBlur stdDeviation="5"/>
<feComposite in2="hardAlpha" operator="arithmetic" k2="-1" k3="1"/>
<feColorMatrix type="matrix" values="0 0 0 0 1 0 0 0 0 1 0 0 0 0 1 0 0 0 1 0"/>
<feBlend mode="normal" in2="shape" result="effect1_innerShadow_13_194"/>
</filter>
<linearGradient id="paint0_linear_13_194" x1="184.203" y1="256.608" x2="269.772" y2="106.532" gradientUnits="userSpaceOnUse">
<stop stop-color="#FF9900"/>
<stop offset="1" stop-color="#FFEE94"/>
</linearGradient>
<linearGradient id="paint1_linear_13_194" x1="66.9909" y1="337.03" x2="272.668" y2="183.093" gradientUnits="userSpaceOnUse">
<stop stop-color="white"/>
<stop offset="1" stop-color="white" stop-opacity="0.58"/>
</linearGradient>
<linearGradient id="paint2_linear_13_194" x1="181.179" y1="147.318" x2="358.733" y2="14.5406" gradientUnits="userSpaceOnUse">
<stop stop-color="white"/>
<stop offset="1" stop-color="white" stop-opacity="0.58"/>
</linearGradient>
</defs>
</svg>
