<svg width="400" height="400" viewBox="0 0 400 400" fill="none" xmlns="http://www.w3.org/2000/svg">
<g filter="url(#filter0_i_13_138)">
<path d="M273.065 101.94C273.484 99.5706 273.702 97.1329 273.702 94.6448C273.702 71.3689 254.588 52.5 231.008 52.5C213.479 52.5 198.417 62.9282 191.842 77.8428C186.515 73.303 179.603 70.5621 172.05 70.5621C155.207 70.5621 141.554 84.1896 141.554 101C141.554 101.936 141.596 102.862 141.679 103.777C133.578 107.694 128 115.912 128 125.417C128 138.718 138.923 149.5 152.397 149.5H267.603C281.077 149.5 292 138.718 292 125.417C292 113.97 283.909 104.389 273.065 101.94Z" fill="url(#paint0_linear_13_138)"/>
</g>
<g filter="url(#filter1_f_13_138)">
<path d="M207.855 88.6342C182.788 122.668 178.442 169.114 200.554 207.414C222.666 245.713 265.063 265.172 307.07 260.481C298.138 272.608 286.576 283.159 272.642 291.204C219.604 321.825 152.296 304.538 122.304 252.591C92.3128 200.645 110.996 133.71 164.034 103.089C177.967 95.044 192.886 90.3059 207.855 88.6342Z" fill="#FFEE94"/>
</g>
<g filter="url(#filter2_i_13_138)">
<path d="M205.517 102.976C182.636 134.043 178.668 176.441 198.853 211.402C219.038 246.363 257.739 264.126 296.085 259.843C287.931 270.913 277.377 280.544 264.657 287.888C216.243 315.84 154.801 300.06 127.424 252.641C100.047 205.223 117.101 144.123 165.516 116.17C178.235 108.827 191.854 104.502 205.517 102.976Z" fill="url(#paint1_linear_13_138)"/>
</g>
<g filter="url(#filter3_b_13_138)">
<g filter="url(#filter4_i_13_138)">
<path d="M308.447 288.173C308.968 285.217 309.24 282.176 309.24 279.072C309.24 250.037 285.463 226.5 256.132 226.5C234.328 226.5 215.592 239.508 207.413 258.113C200.787 252.45 192.189 249.031 182.793 249.031C161.843 249.031 144.859 266.03 144.859 287C144.859 288.168 144.912 289.323 145.015 290.464C134.939 295.35 128 305.602 128 317.459C128 334.05 141.587 347.5 158.347 347.5H301.653C318.413 347.5 332 334.05 332 317.459C332 303.179 321.936 291.227 308.447 288.173Z" fill="url(#paint2_linear_13_138)"/>
</g>
</g>
<defs>
<filter id="filter0_i_13_138" x="128" y="52.5" width="164" height="107" filterUnits="userSpaceOnUse" color-interpolation-filters="sRGB">
<feFlood flood-opacity="0" result="BackgroundImageFix"/>
<feBlend mode="normal" in="SourceGraphic" in2="BackgroundImageFix" result="shape"/>
<feColorMatrix in="SourceAlpha" type="matrix" values="0 0 0 0 0 0 0 0 0 0 0 0 0 0 0 0 0 0 127 0" result="hardAlpha"/>
<feOffset dy="11"/>
<feGaussianBlur stdDeviation="5"/>
<feComposite in2="hardAlpha" operator="arithmetic" k2="-1" k3="1"/>
<feColorMatrix type="matrix" values="0 0 0 0 1 0 0 0 0 1 0 0 0 0 1 0 0 0 1 0"/>
<feBlend mode="normal" in2="shape" result="effect1_innerShadow_13_138"/>
</filter>
<filter id="filter1_f_13_138" x="54.9944" y="35.6342" width="305.076" height="323.713" filterUnits="userSpaceOnUse" color-interpolation-filters="sRGB">
<feFlood flood-opacity="0" result="BackgroundImageFix"/>
<feBlend mode="normal" in="SourceGraphic" in2="BackgroundImageFix" result="shape"/>
<feGaussianBlur stdDeviation="26.5" result="effect1_foregroundBlur_13_138"/>
</filter>
<filter id="filter2_i_13_138" x="114.362" y="102.976" width="181.723" height="202.735" filterUnits="userSpaceOnUse" color-interpolation-filters="sRGB">
<feFlood flood-opacity="0" result="BackgroundImageFix"/>
<feBlend mode="normal" in="SourceGraphic" in2="BackgroundImageFix" result="shape"/>
<feColorMatrix in="SourceAlpha" type="matrix" values="0 0 0 0 0 0 0 0 0 0 0 0 0 0 0 0 0 0 127 0" result="hardAlpha"/>
<feOffset dy="4"/>
<feGaussianBlur stdDeviation="4"/>
<feComposite in2="hardAlpha" operator="arithmetic" k2="-1" k3="1"/>
<feColorMatrix type="matrix" values="0 0 0 0 1 0 0 0 0 1 0 0 0 0 1 0 0 0 0.55 0"/>
<feBlend mode="normal" in2="shape" result="effect1_innerShadow_13_138"/>
</filter>
<filter id="filter3_b_13_138" x="101" y="199.5" width="258" height="175" filterUnits="userSpaceOnUse" color-interpolation-filters="sRGB">
<feFlood flood-opacity="0" result="BackgroundImageFix"/>
<feGaussianBlur in="BackgroundImageFix" stdDeviation="13.5"/>
<feComposite in2="SourceAlpha" operator="in" result="effect1_backgroundBlur_13_138"/>
<feBlend mode="normal" in="SourceGraphic" in2="effect1_backgroundBlur_13_138" result="shape"/>
</filter>
<filter id="filter4_i_13_138" x="128" y="226.5" width="204" height="131" filterUnits="userSpaceOnUse" color-interpolation-filters="sRGB">
<feFlood flood-opacity="0" result="BackgroundImageFix"/>
<feBlend mode="normal" in="SourceGraphic" in2="BackgroundImageFix" result="shape"/>
<feColorMatrix in="SourceAlpha" type="matrix" values="0 0 0 0 0 0 0 0 0 0 0 0 0 0 0 0 0 0 127 0" result="hardAlpha"/>
<feOffset dy="11"/>
<feGaussianBlur stdDeviation="5"/>
<feComposite in2="hardAlpha" operator="arithmetic" k2="-1" k3="1"/>
<feColorMatrix type="matrix" values="0 0 0 0 1 0 0 0 0 1 0 0 0 0 1 0 0 0 1 0"/>
<feBlend mode="normal" in2="shape" result="effect1_innerShadow_13_138"/>
</filter>
<linearGradient id="paint0_linear_13_138" x1="138.431" y1="140.839" x2="303.444" y2="16.9871" gradientUnits="userSpaceOnUse">
<stop stop-color="white"/>
<stop offset="1" stop-color="white" stop-opacity="0.58"/>
</linearGradient>
<linearGradient id="paint1_linear_13_138" x1="210.5" y1="86.5" x2="174.175" y2="306.451" gradientUnits="userSpaceOnUse">
<stop stop-color="#FFEE94"/>
<stop offset="1" stop-color="#FF9900"/>
</linearGradient>
<linearGradient id="paint2_linear_13_138" x1="140.975" y1="336.696" x2="346.652" y2="182.759" gradientUnits="userSpaceOnUse">
<stop stop-color="white"/>
<stop offset="1" stop-color="white" stop-opacity="0.58"/>
</linearGradient>
</defs>
</svg>
