<svg width="400" height="400" viewBox="0 0 400 400" fill="none" xmlns="http://www.w3.org/2000/svg">
<g filter="url(#filter0_f_13_205)">
<path d="M218.578 70.8398C192.665 106.023 188.172 154.038 211.031 193.631C233.89 233.224 277.719 253.341 321.145 248.491C311.912 261.028 299.958 271.935 285.554 280.251C230.725 311.907 161.143 294.036 130.138 240.335C99.134 186.634 118.448 117.438 173.277 85.7825C187.682 77.4661 203.104 72.568 218.578 70.8398Z" fill="#FFEE94"/>
</g>
<g filter="url(#filter1_i_13_205)">
<path d="M216.162 85.6658C192.508 117.782 188.406 161.612 209.273 197.754C230.139 233.896 270.148 252.259 309.788 247.831C301.36 259.275 290.448 269.232 277.3 276.824C227.25 305.72 163.733 289.406 135.431 240.386C107.129 191.366 124.76 128.202 174.81 99.306C187.959 91.7145 202.037 87.2434 216.162 85.6658Z" fill="url(#paint0_linear_13_205)"/>
</g>
<defs>
<filter id="filter0_f_13_205" x="62.3452" y="17.8398" width="311.8" height="331.066" filterUnits="userSpaceOnUse" color-interpolation-filters="sRGB">
<feFlood flood-opacity="0" result="BackgroundImageFix"/>
<feBlend mode="normal" in="SourceGraphic" in2="BackgroundImageFix" result="shape"/>
<feGaussianBlur stdDeviation="26.5" result="effect1_foregroundBlur_13_205"/>
</filter>
<filter id="filter1_i_13_205" x="121.927" y="85.6658" width="187.861" height="209.448" filterUnits="userSpaceOnUse" color-interpolation-filters="sRGB">
<feFlood flood-opacity="0" result="BackgroundImageFix"/>
<feBlend mode="normal" in="SourceGraphic" in2="BackgroundImageFix" result="shape"/>
<feColorMatrix in="SourceAlpha" type="matrix" values="0 0 0 0 0 0 0 0 0 0 0 0 0 0 0 0 0 0 127 0" result="hardAlpha"/>
<feOffset dy="4"/>
<feGaussianBlur stdDeviation="4"/>
<feComposite in2="hardAlpha" operator="arithmetic" k2="-1" k3="1"/>
<feColorMatrix type="matrix" values="0 0 0 0 1 0 0 0 0 1 0 0 0 0 1 0 0 0 0.55 0"/>
<feBlend mode="normal" in2="shape" result="effect1_innerShadow_13_205"/>
</filter>
<linearGradient id="paint0_linear_13_205" x1="221.313" y1="68.6336" x2="183.761" y2="296.013" gradientUnits="userSpaceOnUse">
<stop stop-color="#FFEE94"/>
<stop offset="1" stop-color="#FF9900"/>
</linearGradient>
</defs>
</svg>
