<svg width="400" height="400" viewBox="0 0 400 400" fill="none" xmlns="http://www.w3.org/2000/svg">
<g filter="url(#filter0_f_13_127)">
<path d="M230.855 115.06C205.788 149.093 201.442 195.54 223.554 233.839C245.666 272.139 288.063 291.598 330.07 286.906C321.138 299.034 309.576 309.585 295.642 317.629C242.604 348.251 175.296 330.963 145.304 279.017C115.313 227.07 133.996 160.136 187.034 129.514C200.967 121.469 215.886 116.731 230.855 115.06Z" fill="#FFEE94"/>
</g>
<g filter="url(#filter1_i_13_127)">
<path d="M228.517 129.401C205.636 160.468 201.668 202.866 221.853 237.827C242.038 272.788 280.739 290.551 319.085 286.269C310.931 297.339 300.377 306.97 287.657 314.314C239.243 342.266 177.801 326.485 150.424 279.067C123.047 231.648 140.101 170.548 188.516 142.596C201.235 135.252 214.854 130.927 228.517 129.401Z" fill="url(#paint0_linear_13_127)"/>
</g>
<g filter="url(#filter2_b_13_127)">
<g filter="url(#filter3_i_13_127)">
<path d="M213.68 297.179C214.129 294.626 214.364 292 214.364 289.321C214.364 264.25 193.85 243.926 168.545 243.926C149.734 243.926 133.57 255.158 126.513 271.223C120.797 266.333 113.379 263.381 105.273 263.381C87.198 263.381 72.5455 278.059 72.5455 296.166C72.5455 297.174 72.5909 298.172 72.6798 299.157C63.9862 303.376 58 312.228 58 322.466C58 336.792 69.722 348.406 84.1818 348.406H207.818C222.278 348.406 234 336.792 234 322.466C234 310.136 225.317 299.816 213.68 297.179Z" fill="url(#paint1_linear_13_127)"/>
</g>
</g>
<g filter="url(#filter4_b_13_127)">
<g filter="url(#filter5_i_13_127)">
<path d="M321.68 140.179C322.129 137.626 322.364 135 322.364 132.321C322.364 107.25 301.85 86.9255 276.545 86.9255C257.734 86.9255 241.57 98.158 234.513 114.223C228.797 109.333 221.379 106.381 213.273 106.381C195.198 106.381 180.545 121.059 180.545 139.166C180.545 140.174 180.591 141.172 180.68 142.157C171.986 146.376 166 155.228 166 165.466C166 179.792 177.722 191.406 192.182 191.406H315.818C330.278 191.406 342 179.792 342 165.466C342 153.136 333.317 142.816 321.68 140.179Z" fill="url(#paint2_linear_13_127)"/>
</g>
</g>
<g filter="url(#filter6_di_13_127)">
<path d="M252.765 45.3079C242.249 49.9777 238.144 53.924 234.382 63.6902C231.386 54.2256 227.702 50.0041 216 45.3079C228.038 41.3857 231.305 36.8454 234.382 26.9255C238.164 36.0682 240.499 41.0579 252.765 45.3079Z" fill="url(#paint3_linear_13_127)"/>
</g>
<g filter="url(#filter7_di_13_127)">
<path d="M145.765 132.308C135.249 136.978 131.144 140.924 127.382 150.69C124.386 141.226 120.702 137.004 109 132.308C121.038 128.386 124.305 123.845 127.382 113.926C131.164 123.068 133.499 128.058 145.765 132.308Z" fill="url(#paint4_linear_13_127)"/>
</g>
<g filter="url(#filter8_di_13_127)">
<path d="M314.765 233.308C304.249 237.978 300.144 241.924 296.382 251.69C293.386 242.226 289.702 238.004 278 233.308C290.038 229.386 293.305 224.845 296.382 214.926C300.164 224.068 302.499 229.058 314.765 233.308Z" fill="url(#paint5_linear_13_127)"/>
</g>
<defs>
<filter id="filter0_f_13_127" x="77.9944" y="62.0597" width="305.076" height="323.713" filterUnits="userSpaceOnUse" color-interpolation-filters="sRGB">
<feFlood flood-opacity="0" result="BackgroundImageFix"/>
<feBlend mode="normal" in="SourceGraphic" in2="BackgroundImageFix" result="shape"/>
<feGaussianBlur stdDeviation="26.5" result="effect1_foregroundBlur_13_127"/>
</filter>
<filter id="filter1_i_13_127" x="137.362" y="129.401" width="181.723" height="202.735" filterUnits="userSpaceOnUse" color-interpolation-filters="sRGB">
<feFlood flood-opacity="0" result="BackgroundImageFix"/>
<feBlend mode="normal" in="SourceGraphic" in2="BackgroundImageFix" result="shape"/>
<feColorMatrix in="SourceAlpha" type="matrix" values="0 0 0 0 0 0 0 0 0 0 0 0 0 0 0 0 0 0 127 0" result="hardAlpha"/>
<feOffset dy="4"/>
<feGaussianBlur stdDeviation="4"/>
<feComposite in2="hardAlpha" operator="arithmetic" k2="-1" k3="1"/>
<feColorMatrix type="matrix" values="0 0 0 0 1 0 0 0 0 1 0 0 0 0 1 0 0 0 0.55 0"/>
<feBlend mode="normal" in2="shape" result="effect1_innerShadow_13_127"/>
</filter>
<filter id="filter2_b_13_127" x="31" y="216.926" width="230" height="158.481" filterUnits="userSpaceOnUse" color-interpolation-filters="sRGB">
<feFlood flood-opacity="0" result="BackgroundImageFix"/>
<feGaussianBlur in="BackgroundImageFix" stdDeviation="13.5"/>
<feComposite in2="SourceAlpha" operator="in" result="effect1_backgroundBlur_13_127"/>
<feBlend mode="normal" in="SourceGraphic" in2="effect1_backgroundBlur_13_127" result="shape"/>
</filter>
<filter id="filter3_i_13_127" x="58" y="243.926" width="176" height="114.481" filterUnits="userSpaceOnUse" color-interpolation-filters="sRGB">
<feFlood flood-opacity="0" result="BackgroundImageFix"/>
<feBlend mode="normal" in="SourceGraphic" in2="BackgroundImageFix" result="shape"/>
<feColorMatrix in="SourceAlpha" type="matrix" values="0 0 0 0 0 0 0 0 0 0 0 0 0 0 0 0 0 0 127 0" result="hardAlpha"/>
<feOffset dy="11"/>
<feGaussianBlur stdDeviation="5"/>
<feComposite in2="hardAlpha" operator="arithmetic" k2="-1" k3="1"/>
<feColorMatrix type="matrix" values="0 0 0 0 1 0 0 0 0 1 0 0 0 0 1 0 0 0 1 0"/>
<feBlend mode="normal" in2="shape" result="effect1_innerShadow_13_127"/>
</filter>
<filter id="filter4_b_13_127" x="139" y="59.9255" width="230" height="158.481" filterUnits="userSpaceOnUse" color-interpolation-filters="sRGB">
<feFlood flood-opacity="0" result="BackgroundImageFix"/>
<feGaussianBlur in="BackgroundImageFix" stdDeviation="13.5"/>
<feComposite in2="SourceAlpha" operator="in" result="effect1_backgroundBlur_13_127"/>
<feBlend mode="normal" in="SourceGraphic" in2="effect1_backgroundBlur_13_127" result="shape"/>
</filter>
<filter id="filter5_i_13_127" x="166" y="86.9255" width="176" height="114.481" filterUnits="userSpaceOnUse" color-interpolation-filters="sRGB">
<feFlood flood-opacity="0" result="BackgroundImageFix"/>
<feBlend mode="normal" in="SourceGraphic" in2="BackgroundImageFix" result="shape"/>
<feColorMatrix in="SourceAlpha" type="matrix" values="0 0 0 0 0 0 0 0 0 0 0 0 0 0 0 0 0 0 127 0" result="hardAlpha"/>
<feOffset dy="11"/>
<feGaussianBlur stdDeviation="5"/>
<feComposite in2="hardAlpha" operator="arithmetic" k2="-1" k3="1"/>
<feColorMatrix type="matrix" values="0 0 0 0 1 0 0 0 0 1 0 0 0 0 1 0 0 0 1 0"/>
<feBlend mode="normal" in2="shape" result="effect1_innerShadow_13_127"/>
</filter>
<filter id="filter6_di_13_127" x="207.233" y="26.9255" width="54.2995" height="56.5321" filterUnits="userSpaceOnUse" color-interpolation-filters="sRGB">
<feFlood flood-opacity="0" result="BackgroundImageFix"/>
<feColorMatrix in="SourceAlpha" type="matrix" values="0 0 0 0 0 0 0 0 0 0 0 0 0 0 0 0 0 0 127 0" result="hardAlpha"/>
<feOffset dy="11"/>
<feGaussianBlur stdDeviation="4.38372"/>
<feColorMatrix type="matrix" values="0 0 0 0 0.285052 0 0 0 0 0.179688 0 0 0 0 0.9375 0 0 0 1 0"/>
<feBlend mode="normal" in2="BackgroundImageFix" result="effect1_dropShadow_13_127"/>
<feBlend mode="normal" in="SourceGraphic" in2="effect1_dropShadow_13_127" result="shape"/>
<feColorMatrix in="SourceAlpha" type="matrix" values="0 0 0 0 0 0 0 0 0 0 0 0 0 0 0 0 0 0 127 0" result="hardAlpha"/>
<feOffset dy="4"/>
<feGaussianBlur stdDeviation="2"/>
<feComposite in2="hardAlpha" operator="arithmetic" k2="-1" k3="1"/>
<feColorMatrix type="matrix" values="0 0 0 0 1 0 0 0 0 1 0 0 0 0 1 0 0 0 0.44 0"/>
<feBlend mode="normal" in2="shape" result="effect2_innerShadow_13_127"/>
</filter>
<filter id="filter7_di_13_127" x="100.233" y="113.926" width="54.2995" height="56.5321" filterUnits="userSpaceOnUse" color-interpolation-filters="sRGB">
<feFlood flood-opacity="0" result="BackgroundImageFix"/>
<feColorMatrix in="SourceAlpha" type="matrix" values="0 0 0 0 0 0 0 0 0 0 0 0 0 0 0 0 0 0 127 0" result="hardAlpha"/>
<feOffset dy="11"/>
<feGaussianBlur stdDeviation="4.38372"/>
<feColorMatrix type="matrix" values="0 0 0 0 0.285052 0 0 0 0 0.179688 0 0 0 0 0.9375 0 0 0 0.28 0"/>
<feBlend mode="normal" in2="BackgroundImageFix" result="effect1_dropShadow_13_127"/>
<feBlend mode="normal" in="SourceGraphic" in2="effect1_dropShadow_13_127" result="shape"/>
<feColorMatrix in="SourceAlpha" type="matrix" values="0 0 0 0 0 0 0 0 0 0 0 0 0 0 0 0 0 0 127 0" result="hardAlpha"/>
<feOffset dy="4"/>
<feGaussianBlur stdDeviation="2"/>
<feComposite in2="hardAlpha" operator="arithmetic" k2="-1" k3="1"/>
<feColorMatrix type="matrix" values="0 0 0 0 1 0 0 0 0 1 0 0 0 0 1 0 0 0 0.44 0"/>
<feBlend mode="normal" in2="shape" result="effect2_innerShadow_13_127"/>
</filter>
<filter id="filter8_di_13_127" x="269.233" y="214.926" width="54.2995" height="56.5321" filterUnits="userSpaceOnUse" color-interpolation-filters="sRGB">
<feFlood flood-opacity="0" result="BackgroundImageFix"/>
<feColorMatrix in="SourceAlpha" type="matrix" values="0 0 0 0 0 0 0 0 0 0 0 0 0 0 0 0 0 0 127 0" result="hardAlpha"/>
<feOffset dy="11"/>
<feGaussianBlur stdDeviation="4.38372"/>
<feColorMatrix type="matrix" values="0 0 0 0 0.285052 0 0 0 0 0.179688 0 0 0 0 0.9375 0 0 0 0.8 0"/>
<feBlend mode="normal" in2="BackgroundImageFix" result="effect1_dropShadow_13_127"/>
<feBlend mode="normal" in="SourceGraphic" in2="effect1_dropShadow_13_127" result="shape"/>
<feColorMatrix in="SourceAlpha" type="matrix" values="0 0 0 0 0 0 0 0 0 0 0 0 0 0 0 0 0 0 127 0" result="hardAlpha"/>
<feOffset dy="4"/>
<feGaussianBlur stdDeviation="2"/>
<feComposite in2="hardAlpha" operator="arithmetic" k2="-1" k3="1"/>
<feColorMatrix type="matrix" values="0 0 0 0 1 0 0 0 0 1 0 0 0 0 1 0 0 0 0.44 0"/>
<feBlend mode="normal" in2="shape" result="effect2_innerShadow_13_127"/>
</filter>
<linearGradient id="paint0_linear_13_127" x1="233.5" y1="112.926" x2="197.175" y2="332.876" gradientUnits="userSpaceOnUse">
<stop stop-color="#FFEE94"/>
<stop offset="1" stop-color="#FF9900"/>
</linearGradient>
<linearGradient id="paint1_linear_13_127" x1="69.1943" y1="339.077" x2="246.749" y2="206.3" gradientUnits="userSpaceOnUse">
<stop stop-color="white"/>
<stop offset="1" stop-color="white" stop-opacity="0.58"/>
</linearGradient>
<linearGradient id="paint2_linear_13_127" x1="177.194" y1="182.077" x2="354.749" y2="49.3001" gradientUnits="userSpaceOnUse">
<stop stop-color="white"/>
<stop offset="1" stop-color="white" stop-opacity="0.58"/>
</linearGradient>
<linearGradient id="paint3_linear_13_127" x1="229.064" y1="65.4127" x2="246.366" y2="32.9281" gradientUnits="userSpaceOnUse">
<stop stop-color="#FF9900"/>
<stop offset="1" stop-color="#FFEE94"/>
</linearGradient>
<linearGradient id="paint4_linear_13_127" x1="122.064" y1="152.413" x2="139.366" y2="119.928" gradientUnits="userSpaceOnUse">
<stop stop-color="#FF9900"/>
<stop offset="1" stop-color="#FFEE94"/>
</linearGradient>
<linearGradient id="paint5_linear_13_127" x1="291.064" y1="253.413" x2="308.366" y2="220.928" gradientUnits="userSpaceOnUse">
<stop stop-color="#FF9900"/>
<stop offset="1" stop-color="#FFEE94"/>
</linearGradient>
</defs>
</svg>
