<svg width="400" height="400" viewBox="0 0 400 400" fill="none" xmlns="http://www.w3.org/2000/svg">
<g clip-path="url(#clip0_13_126)">
<g filter="url(#filter0_f_13_126)">
<path d="M213.855 46.9782C188.788 81.0118 184.442 127.458 206.554 165.758C228.666 204.057 271.063 223.516 313.07 218.825C304.138 230.952 292.576 241.503 278.642 249.548C225.604 280.169 158.296 262.882 128.304 210.935C98.3128 158.989 116.996 92.0541 170.034 61.4327C183.967 53.388 198.886 48.6499 213.855 46.9782Z" fill="#FFEE94"/>
</g>
<g filter="url(#filter1_i_13_126)">
<path d="M211.517 61.3198C188.636 92.3867 184.668 134.785 204.853 169.746C225.038 204.707 263.739 222.47 302.085 218.187C293.931 229.257 283.377 238.888 270.657 246.232C222.243 274.184 160.801 258.404 133.424 210.985C106.047 163.567 123.101 102.467 171.516 74.5143C184.235 67.1708 197.854 62.8458 211.517 61.3198Z" fill="url(#paint0_linear_13_126)"/>
</g>
<g filter="url(#filter2_b_13_126)">
<g filter="url(#filter3_i_13_126)">
<path d="M301.639 216.687C302.178 213.627 302.459 210.479 302.459 207.266C302.459 177.21 277.866 152.844 247.529 152.844C224.976 152.844 205.598 166.31 197.138 185.57C190.285 179.707 181.392 176.168 171.674 176.168C150.004 176.168 132.438 193.765 132.438 215.473C132.438 216.682 132.492 217.878 132.599 219.059C122.177 224.117 115 234.73 115 247.003C115 264.179 129.053 278.102 146.388 278.102H294.612C311.947 278.102 326 264.179 326 247.003C326 232.222 315.591 219.849 301.639 216.687Z" fill="url(#paint1_linear_13_126)"/>
</g>
</g>
<g filter="url(#filter4_di_13_126)">
<path d="M171.782 244.233C159.358 260.584 141.965 293.287 171.782 293.287C201.599 293.287 184.206 260.584 171.782 244.233Z" fill="#00BCFF"/>
</g>
<g filter="url(#filter5_di_13_126)">
<path d="M268.546 244.233C256.122 260.584 238.729 293.287 268.546 293.287C298.363 293.287 280.97 260.584 268.546 244.233Z" fill="#00BCFF"/>
</g>
<g filter="url(#filter6_di_13_126)">
<path d="M222.18 312.102C209.756 328.453 192.363 361.156 222.18 361.156C251.997 361.156 234.604 328.453 222.18 312.102Z" fill="#00BCFF"/>
</g>
<g filter="url(#filter7_f_13_126)">
<rect x="139.863" y="281.863" width="161.274" height="23.5191" rx="11.7596" fill="#00BCFF"/>
</g>
</g>
<defs>
<filter id="filter0_f_13_126" x="60.9944" y="-6.02185" width="305.076" height="323.713" filterUnits="userSpaceOnUse" color-interpolation-filters="sRGB">
<feFlood flood-opacity="0" result="BackgroundImageFix"/>
<feBlend mode="normal" in="SourceGraphic" in2="BackgroundImageFix" result="shape"/>
<feGaussianBlur stdDeviation="26.5" result="effect1_foregroundBlur_13_126"/>
</filter>
<filter id="filter1_i_13_126" x="120.362" y="61.3198" width="181.723" height="202.735" filterUnits="userSpaceOnUse" color-interpolation-filters="sRGB">
<feFlood flood-opacity="0" result="BackgroundImageFix"/>
<feBlend mode="normal" in="SourceGraphic" in2="BackgroundImageFix" result="shape"/>
<feColorMatrix in="SourceAlpha" type="matrix" values="0 0 0 0 0 0 0 0 0 0 0 0 0 0 0 0 0 0 127 0" result="hardAlpha"/>
<feOffset dy="4"/>
<feGaussianBlur stdDeviation="4"/>
<feComposite in2="hardAlpha" operator="arithmetic" k2="-1" k3="1"/>
<feColorMatrix type="matrix" values="0 0 0 0 1 0 0 0 0 1 0 0 0 0 1 0 0 0 0.55 0"/>
<feBlend mode="normal" in2="shape" result="effect1_innerShadow_13_126"/>
</filter>
<filter id="filter2_b_13_126" x="88" y="125.844" width="265" height="179.258" filterUnits="userSpaceOnUse" color-interpolation-filters="sRGB">
<feFlood flood-opacity="0" result="BackgroundImageFix"/>
<feGaussianBlur in="BackgroundImageFix" stdDeviation="13.5"/>
<feComposite in2="SourceAlpha" operator="in" result="effect1_backgroundBlur_13_126"/>
<feBlend mode="normal" in="SourceGraphic" in2="effect1_backgroundBlur_13_126" result="shape"/>
</filter>
<filter id="filter3_i_13_126" x="115" y="152.844" width="211" height="135.258" filterUnits="userSpaceOnUse" color-interpolation-filters="sRGB">
<feFlood flood-opacity="0" result="BackgroundImageFix"/>
<feBlend mode="normal" in="SourceGraphic" in2="BackgroundImageFix" result="shape"/>
<feColorMatrix in="SourceAlpha" type="matrix" values="0 0 0 0 0 0 0 0 0 0 0 0 0 0 0 0 0 0 127 0" result="hardAlpha"/>
<feOffset dy="11"/>
<feGaussianBlur stdDeviation="5"/>
<feComposite in2="hardAlpha" operator="arithmetic" k2="-1" k3="1"/>
<feColorMatrix type="matrix" values="0 0 0 0 1 0 0 0 0 1 0 0 0 0 1 0 0 0 1 0"/>
<feBlend mode="normal" in2="shape" result="effect1_innerShadow_13_126"/>
</filter>
<filter id="filter4_di_13_126" x="136.319" y="244.233" width="70.9268" height="88.0541" filterUnits="userSpaceOnUse" color-interpolation-filters="sRGB">
<feFlood flood-opacity="0" result="BackgroundImageFix"/>
<feColorMatrix in="SourceAlpha" type="matrix" values="0 0 0 0 0 0 0 0 0 0 0 0 0 0 0 0 0 0 127 0" result="hardAlpha"/>
<feOffset dy="20"/>
<feGaussianBlur stdDeviation="9.5"/>
<feComposite in2="hardAlpha" operator="out"/>
<feColorMatrix type="matrix" values="0 0 0 0 0.283785 0 0 0 0 0.178889 0 0 0 0 0.933333 0 0 0 1 0"/>
<feBlend mode="normal" in2="BackgroundImageFix" result="effect1_dropShadow_13_126"/>
<feBlend mode="normal" in="SourceGraphic" in2="effect1_dropShadow_13_126" result="shape"/>
<feColorMatrix in="SourceAlpha" type="matrix" values="0 0 0 0 0 0 0 0 0 0 0 0 0 0 0 0 0 0 127 0" result="hardAlpha"/>
<feOffset dy="9"/>
<feGaussianBlur stdDeviation="1.5"/>
<feComposite in2="hardAlpha" operator="arithmetic" k2="-1" k3="1"/>
<feColorMatrix type="matrix" values="0 0 0 0 1 0 0 0 0 1 0 0 0 0 1 0 0 0 0.21 0"/>
<feBlend mode="normal" in2="shape" result="effect2_innerShadow_13_126"/>
</filter>
<filter id="filter5_di_13_126" x="233.083" y="244.233" width="70.9268" height="88.0541" filterUnits="userSpaceOnUse" color-interpolation-filters="sRGB">
<feFlood flood-opacity="0" result="BackgroundImageFix"/>
<feColorMatrix in="SourceAlpha" type="matrix" values="0 0 0 0 0 0 0 0 0 0 0 0 0 0 0 0 0 0 127 0" result="hardAlpha"/>
<feOffset dy="20"/>
<feGaussianBlur stdDeviation="9.5"/>
<feComposite in2="hardAlpha" operator="out"/>
<feColorMatrix type="matrix" values="0 0 0 0 0.283785 0 0 0 0 0.178889 0 0 0 0 0.933333 0 0 0 1 0"/>
<feBlend mode="normal" in2="BackgroundImageFix" result="effect1_dropShadow_13_126"/>
<feBlend mode="normal" in="SourceGraphic" in2="effect1_dropShadow_13_126" result="shape"/>
<feColorMatrix in="SourceAlpha" type="matrix" values="0 0 0 0 0 0 0 0 0 0 0 0 0 0 0 0 0 0 127 0" result="hardAlpha"/>
<feOffset dy="9"/>
<feGaussianBlur stdDeviation="1.5"/>
<feComposite in2="hardAlpha" operator="arithmetic" k2="-1" k3="1"/>
<feColorMatrix type="matrix" values="0 0 0 0 1 0 0 0 0 1 0 0 0 0 1 0 0 0 0.21 0"/>
<feBlend mode="normal" in2="shape" result="effect2_innerShadow_13_126"/>
</filter>
<filter id="filter6_di_13_126" x="186.717" y="312.102" width="70.9268" height="88.0541" filterUnits="userSpaceOnUse" color-interpolation-filters="sRGB">
<feFlood flood-opacity="0" result="BackgroundImageFix"/>
<feColorMatrix in="SourceAlpha" type="matrix" values="0 0 0 0 0 0 0 0 0 0 0 0 0 0 0 0 0 0 127 0" result="hardAlpha"/>
<feOffset dy="20"/>
<feGaussianBlur stdDeviation="9.5"/>
<feComposite in2="hardAlpha" operator="out"/>
<feColorMatrix type="matrix" values="0 0 0 0 0.283785 0 0 0 0 0.178889 0 0 0 0 0.933333 0 0 0 1 0"/>
<feBlend mode="normal" in2="BackgroundImageFix" result="effect1_dropShadow_13_126"/>
<feBlend mode="normal" in="SourceGraphic" in2="effect1_dropShadow_13_126" result="shape"/>
<feColorMatrix in="SourceAlpha" type="matrix" values="0 0 0 0 0 0 0 0 0 0 0 0 0 0 0 0 0 0 127 0" result="hardAlpha"/>
<feOffset dy="9"/>
<feGaussianBlur stdDeviation="1.5"/>
<feComposite in2="hardAlpha" operator="arithmetic" k2="-1" k3="1"/>
<feColorMatrix type="matrix" values="0 0 0 0 1 0 0 0 0 1 0 0 0 0 1 0 0 0 0.21 0"/>
<feBlend mode="normal" in2="shape" result="effect2_innerShadow_13_126"/>
</filter>
<filter id="filter7_f_13_126" x="61.863" y="203.863" width="317.274" height="179.519" filterUnits="userSpaceOnUse" color-interpolation-filters="sRGB">
<feFlood flood-opacity="0" result="BackgroundImageFix"/>
<feBlend mode="normal" in="SourceGraphic" in2="BackgroundImageFix" result="shape"/>
<feGaussianBlur stdDeviation="39" result="effect1_foregroundBlur_13_126"/>
</filter>
<linearGradient id="paint0_linear_13_126" x1="216.5" y1="44.844" x2="180.175" y2="264.795" gradientUnits="userSpaceOnUse">
<stop stop-color="#FFEE94"/>
<stop offset="1" stop-color="#FF9900"/>
</linearGradient>
<linearGradient id="paint1_linear_13_126" x1="128.42" y1="266.918" x2="341.284" y2="107.736" gradientUnits="userSpaceOnUse">
<stop stop-color="white"/>
<stop offset="1" stop-color="white" stop-opacity="0.58"/>
</linearGradient>
<clipPath id="clip0_13_126">
<rect width="400" height="400" fill="white"/>
</clipPath>
</defs>
</svg>
