<svg width="400" height="400" viewBox="0 0 400 400" fill="none" xmlns="http://www.w3.org/2000/svg">
<g clip-path="url(#clip0_29_115)">
<g filter="url(#filter0_b_29_115)">
<g filter="url(#filter1_i_29_115)">
<path d="M213.68 279.513C214.129 276.96 214.364 274.335 214.364 271.655C214.364 246.584 193.85 226.26 168.545 226.26C149.734 226.26 133.57 237.492 126.513 253.557C120.797 248.667 113.379 245.715 105.273 245.715C87.198 245.715 72.5455 260.393 72.5455 278.5C72.5455 279.508 72.5909 280.506 72.6798 281.491C63.9862 285.71 58 294.563 58 304.8C58 319.127 69.722 330.74 84.1818 330.74H207.818C222.278 330.74 234 319.127 234 304.8C234 292.471 225.317 282.15 213.68 279.513Z" fill="url(#paint0_linear_29_115)"/>
</g>
</g>
<g filter="url(#filter2_f_29_115)">
<rect x="74" y="87" width="240" height="226" rx="94" fill="#FFEF9A"/>
</g>
<g filter="url(#filter3_i_29_115)">
<path d="M300 200C300 259.094 252.542 307 194 307C135.458 307 88 259.094 88 200C88 140.906 135.458 93 194 93C252.542 93 300 140.906 300 200Z" fill="url(#paint1_linear_29_115)"/>
</g>
<g filter="url(#filter4_b_29_115)">
<g filter="url(#filter5_i_29_115)">
<path d="M321.68 122.513C322.129 119.96 322.364 117.335 322.364 114.655C322.364 89.5838 301.85 69.2598 276.545 69.2598C257.734 69.2598 241.57 80.4922 234.513 96.557C228.797 91.6671 221.379 88.7148 213.273 88.7148C195.198 88.7148 180.545 103.393 180.545 121.5C180.545 122.508 180.591 123.506 180.68 124.491C171.986 128.71 166 137.563 166 147.8C166 162.127 177.722 173.74 192.182 173.74H315.818C330.278 173.74 342 162.127 342 147.8C342 135.471 333.317 125.15 321.68 122.513Z" fill="url(#paint2_linear_29_115)"/>
</g>
</g>
</g>
<defs>
<filter id="filter0_b_29_115" x="31" y="199.26" width="230" height="158.481" filterUnits="userSpaceOnUse" color-interpolation-filters="sRGB">
<feFlood flood-opacity="0" result="BackgroundImageFix"/>
<feGaussianBlur in="BackgroundImageFix" stdDeviation="13.5"/>
<feComposite in2="SourceAlpha" operator="in" result="effect1_backgroundBlur_29_115"/>
<feBlend mode="normal" in="SourceGraphic" in2="effect1_backgroundBlur_29_115" result="shape"/>
</filter>
<filter id="filter1_i_29_115" x="58" y="226.26" width="176" height="114.481" filterUnits="userSpaceOnUse" color-interpolation-filters="sRGB">
<feFlood flood-opacity="0" result="BackgroundImageFix"/>
<feBlend mode="normal" in="SourceGraphic" in2="BackgroundImageFix" result="shape"/>
<feColorMatrix in="SourceAlpha" type="matrix" values="0 0 0 0 0 0 0 0 0 0 0 0 0 0 0 0 0 0 127 0" result="hardAlpha"/>
<feOffset dy="11"/>
<feGaussianBlur stdDeviation="5"/>
<feComposite in2="hardAlpha" operator="arithmetic" k2="-1" k3="1"/>
<feColorMatrix type="matrix" values="0 0 0 0 1 0 0 0 0 1 0 0 0 0 1 0 0 0 1 0"/>
<feBlend mode="normal" in2="shape" result="effect1_innerShadow_29_115"/>
</filter>
<filter id="filter2_f_29_115" x="-3" y="10" width="394" height="380" filterUnits="userSpaceOnUse" color-interpolation-filters="sRGB">
<feFlood flood-opacity="0" result="BackgroundImageFix"/>
<feBlend mode="normal" in="SourceGraphic" in2="BackgroundImageFix" result="shape"/>
<feGaussianBlur stdDeviation="38.5" result="effect1_foregroundBlur_29_115"/>
</filter>
<filter id="filter3_i_29_115" x="88" y="93" width="212" height="219" filterUnits="userSpaceOnUse" color-interpolation-filters="sRGB">
<feFlood flood-opacity="0" result="BackgroundImageFix"/>
<feBlend mode="normal" in="SourceGraphic" in2="BackgroundImageFix" result="shape"/>
<feColorMatrix in="SourceAlpha" type="matrix" values="0 0 0 0 0 0 0 0 0 0 0 0 0 0 0 0 0 0 127 0" result="hardAlpha"/>
<feOffset dy="5"/>
<feGaussianBlur stdDeviation="9"/>
<feComposite in2="hardAlpha" operator="arithmetic" k2="-1" k3="1"/>
<feColorMatrix type="matrix" values="0 0 0 0 1 0 0 0 0 1 0 0 0 0 1 0 0 0 0.81 0"/>
<feBlend mode="normal" in2="shape" result="effect1_innerShadow_29_115"/>
</filter>
<filter id="filter4_b_29_115" x="139" y="42.2598" width="230" height="158.481" filterUnits="userSpaceOnUse" color-interpolation-filters="sRGB">
<feFlood flood-opacity="0" result="BackgroundImageFix"/>
<feGaussianBlur in="BackgroundImageFix" stdDeviation="13.5"/>
<feComposite in2="SourceAlpha" operator="in" result="effect1_backgroundBlur_29_115"/>
<feBlend mode="normal" in="SourceGraphic" in2="effect1_backgroundBlur_29_115" result="shape"/>
</filter>
<filter id="filter5_i_29_115" x="166" y="69.2598" width="176" height="114.481" filterUnits="userSpaceOnUse" color-interpolation-filters="sRGB">
<feFlood flood-opacity="0" result="BackgroundImageFix"/>
<feBlend mode="normal" in="SourceGraphic" in2="BackgroundImageFix" result="shape"/>
<feColorMatrix in="SourceAlpha" type="matrix" values="0 0 0 0 0 0 0 0 0 0 0 0 0 0 0 0 0 0 127 0" result="hardAlpha"/>
<feOffset dy="11"/>
<feGaussianBlur stdDeviation="5"/>
<feComposite in2="hardAlpha" operator="arithmetic" k2="-1" k3="1"/>
<feColorMatrix type="matrix" values="0 0 0 0 1 0 0 0 0 1 0 0 0 0 1 0 0 0 1 0"/>
<feBlend mode="normal" in2="shape" result="effect1_innerShadow_29_115"/>
</filter>
<linearGradient id="paint0_linear_29_115" x1="69.1943" y1="321.412" x2="246.749" y2="188.634" gradientUnits="userSpaceOnUse">
<stop stop-color="white"/>
<stop offset="1" stop-color="white" stop-opacity="0.58"/>
</linearGradient>
<linearGradient id="paint1_linear_29_115" x1="177.899" y1="258.241" x2="266.356" y2="104.55" gradientUnits="userSpaceOnUse">
<stop stop-color="#FF9900"/>
<stop offset="1" stop-color="#FFEE94"/>
</linearGradient>
<linearGradient id="paint2_linear_29_115" x1="177.194" y1="164.412" x2="354.749" y2="31.6343" gradientUnits="userSpaceOnUse">
<stop stop-color="white"/>
<stop offset="1" stop-color="white" stop-opacity="0.58"/>
</linearGradient>
<clipPath id="clip0_29_115">
<rect width="400" height="400" fill="white"/>
</clipPath>
</defs>
</svg>
