<svg width="400" height="400" viewBox="0 0 400 400" fill="none" xmlns="http://www.w3.org/2000/svg">
<g filter="url(#filter0_di_29_142)">
<path d="M355.5 193C355.5 253.751 306.251 303 245.5 303C184.749 303 135.5 253.751 135.5 193C135.5 132.249 184.749 83 245.5 83C306.251 83 355.5 132.249 355.5 193Z" fill="url(#paint0_linear_29_142)"/>
</g>
<g filter="url(#filter1_b_29_142)">
<g filter="url(#filter2_i_29_142)">
<path d="M294.826 234.629C295.549 230.524 295.926 226.302 295.926 221.993C295.926 181.68 262.941 149 222.252 149C192.003 149 166.012 167.061 154.666 192.893C145.474 185.03 133.547 180.283 120.512 180.283C91.449 180.283 67.8884 203.885 67.8884 233C67.8884 234.621 67.9615 236.225 68.1045 237.809C54.1255 244.593 44.5 258.828 44.5 275.29C44.5 298.326 63.3485 317 86.5992 317H285.401C308.652 317 327.5 298.326 327.5 275.29C327.5 255.464 313.539 238.869 294.826 234.629Z" fill="url(#paint1_linear_29_142)"/>
</g>
</g>
<defs>
<filter id="filter0_di_29_142" x="102.5" y="79" width="286" height="286" filterUnits="userSpaceOnUse" color-interpolation-filters="sRGB">
<feFlood flood-opacity="0" result="BackgroundImageFix"/>
<feColorMatrix in="SourceAlpha" type="matrix" values="0 0 0 0 0 0 0 0 0 0 0 0 0 0 0 0 0 0 127 0" result="hardAlpha"/>
<feOffset dy="29"/>
<feGaussianBlur stdDeviation="16.5"/>
<feComposite in2="hardAlpha" operator="out"/>
<feColorMatrix type="matrix" values="0 0 0 0 0.283997 0 0 0 0 0.1825 0 0 0 0 0.9125 0 0 0 0.68 0"/>
<feBlend mode="normal" in2="BackgroundImageFix" result="effect1_dropShadow_29_142"/>
<feBlend mode="normal" in="SourceGraphic" in2="effect1_dropShadow_29_142" result="shape"/>
<feColorMatrix in="SourceAlpha" type="matrix" values="0 0 0 0 0 0 0 0 0 0 0 0 0 0 0 0 0 0 127 0" result="hardAlpha"/>
<feOffset dy="5"/>
<feGaussianBlur stdDeviation="9"/>
<feComposite in2="hardAlpha" operator="arithmetic" k2="-1" k3="1"/>
<feColorMatrix type="matrix" values="0 0 0 0 1 0 0 0 0 1 0 0 0 0 1 0 0 0 0.81 0"/>
<feBlend mode="normal" in2="shape" result="effect2_innerShadow_29_142"/>
</filter>
<filter id="filter1_b_29_142" x="17.5" y="122" width="337" height="222" filterUnits="userSpaceOnUse" color-interpolation-filters="sRGB">
<feFlood flood-opacity="0" result="BackgroundImageFix"/>
<feGaussianBlur in="BackgroundImageFix" stdDeviation="13.5"/>
<feComposite in2="SourceAlpha" operator="in" result="effect1_backgroundBlur_29_142"/>
<feBlend mode="normal" in="SourceGraphic" in2="effect1_backgroundBlur_29_142" result="shape"/>
</filter>
<filter id="filter2_i_29_142" x="44.5" y="149" width="283" height="178" filterUnits="userSpaceOnUse" color-interpolation-filters="sRGB">
<feFlood flood-opacity="0" result="BackgroundImageFix"/>
<feBlend mode="normal" in="SourceGraphic" in2="BackgroundImageFix" result="shape"/>
<feColorMatrix in="SourceAlpha" type="matrix" values="0 0 0 0 0 0 0 0 0 0 0 0 0 0 0 0 0 0 127 0" result="hardAlpha"/>
<feOffset dy="11"/>
<feGaussianBlur stdDeviation="5"/>
<feComposite in2="hardAlpha" operator="arithmetic" k2="-1" k3="1"/>
<feColorMatrix type="matrix" values="0 0 0 0 1 0 0 0 0 1 0 0 0 0 1 0 0 0 1 0"/>
<feBlend mode="normal" in2="shape" result="effect1_innerShadow_29_142"/>
</filter>
<linearGradient id="paint0_linear_29_142" x1="228.791" y1="252.873" x2="319.297" y2="94.1392" gradientUnits="userSpaceOnUse">
<stop stop-color="#FF9900"/>
<stop offset="1" stop-color="#FFEE94"/>
</linearGradient>
<linearGradient id="paint1_linear_29_142" x1="62.5" y1="302" x2="348" y2="88.5" gradientUnits="userSpaceOnUse">
<stop stop-color="white"/>
<stop offset="1" stop-color="white" stop-opacity="0.58"/>
</linearGradient>
</defs>
</svg>
