<svg width="400" height="400" viewBox="0 0 400 400" fill="none" xmlns="http://www.w3.org/2000/svg">
<g filter="url(#filter0_f_32_204)">
<path d="M213.855 75.0597C188.788 109.093 184.442 155.54 206.554 193.839C228.666 232.139 271.063 251.598 313.07 246.906C304.138 259.034 292.576 269.585 278.642 277.629C225.604 308.251 158.296 290.963 128.304 239.017C98.3128 187.07 116.996 120.136 170.034 89.5142C183.967 81.4695 198.886 76.7314 213.855 75.0597Z" fill="#FFEE94"/>
</g>
<g filter="url(#filter1_i_32_204)">
<path d="M211.517 89.4013C188.636 120.468 184.668 162.866 204.853 197.827C225.038 232.788 263.739 250.551 302.085 246.269C293.931 257.339 283.377 266.97 270.657 274.314C222.243 302.266 160.801 286.485 133.424 239.067C106.047 191.648 123.101 130.548 171.516 102.596C184.235 95.2524 197.854 90.9273 211.517 89.4013Z" fill="url(#paint0_linear_32_204)"/>
</g>
<g filter="url(#filter2_b_32_204)">
<g filter="url(#filter3_i_32_204)">
<path d="M301.639 244.769C302.178 241.709 302.459 238.561 302.459 235.348C302.459 205.291 277.866 180.926 247.529 180.926C224.976 180.926 205.598 194.392 197.138 213.651C190.285 207.789 181.392 204.249 171.674 204.249C150.004 204.249 132.438 221.847 132.438 243.555C132.438 244.763 132.492 245.959 132.599 247.14C122.177 252.198 115 262.811 115 275.085C115 292.26 129.053 306.183 146.388 306.183H294.612C311.947 306.183 326 292.26 326 275.085C326 260.303 315.591 247.93 301.639 244.769Z" fill="url(#paint1_linear_32_204)"/>
</g>
</g>
<defs>
<filter id="filter0_f_32_204" x="60.9944" y="22.0597" width="305.076" height="323.713" filterUnits="userSpaceOnUse" color-interpolation-filters="sRGB">
<feFlood flood-opacity="0" result="BackgroundImageFix"/>
<feBlend mode="normal" in="SourceGraphic" in2="BackgroundImageFix" result="shape"/>
<feGaussianBlur stdDeviation="26.5" result="effect1_foregroundBlur_32_204"/>
</filter>
<filter id="filter1_i_32_204" x="120.362" y="89.4014" width="181.723" height="202.735" filterUnits="userSpaceOnUse" color-interpolation-filters="sRGB">
<feFlood flood-opacity="0" result="BackgroundImageFix"/>
<feBlend mode="normal" in="SourceGraphic" in2="BackgroundImageFix" result="shape"/>
<feColorMatrix in="SourceAlpha" type="matrix" values="0 0 0 0 0 0 0 0 0 0 0 0 0 0 0 0 0 0 127 0" result="hardAlpha"/>
<feOffset dy="4"/>
<feGaussianBlur stdDeviation="4"/>
<feComposite in2="hardAlpha" operator="arithmetic" k2="-1" k3="1"/>
<feColorMatrix type="matrix" values="0 0 0 0 1 0 0 0 0 1 0 0 0 0 1 0 0 0 0.55 0"/>
<feBlend mode="normal" in2="shape" result="effect1_innerShadow_32_204"/>
</filter>
<filter id="filter2_b_32_204" x="88" y="153.926" width="265" height="179.258" filterUnits="userSpaceOnUse" color-interpolation-filters="sRGB">
<feFlood flood-opacity="0" result="BackgroundImageFix"/>
<feGaussianBlur in="BackgroundImageFix" stdDeviation="13.5"/>
<feComposite in2="SourceAlpha" operator="in" result="effect1_backgroundBlur_32_204"/>
<feBlend mode="normal" in="SourceGraphic" in2="effect1_backgroundBlur_32_204" result="shape"/>
</filter>
<filter id="filter3_i_32_204" x="115" y="180.926" width="211" height="135.258" filterUnits="userSpaceOnUse" color-interpolation-filters="sRGB">
<feFlood flood-opacity="0" result="BackgroundImageFix"/>
<feBlend mode="normal" in="SourceGraphic" in2="BackgroundImageFix" result="shape"/>
<feColorMatrix in="SourceAlpha" type="matrix" values="0 0 0 0 0 0 0 0 0 0 0 0 0 0 0 0 0 0 127 0" result="hardAlpha"/>
<feOffset dy="11"/>
<feGaussianBlur stdDeviation="5"/>
<feComposite in2="hardAlpha" operator="arithmetic" k2="-1" k3="1"/>
<feColorMatrix type="matrix" values="0 0 0 0 1 0 0 0 0 1 0 0 0 0 1 0 0 0 1 0"/>
<feBlend mode="normal" in2="shape" result="effect1_innerShadow_32_204"/>
</filter>
<linearGradient id="paint0_linear_32_204" x1="216.5" y1="72.9255" x2="180.175" y2="292.876" gradientUnits="userSpaceOnUse">
<stop stop-color="#FFEE94"/>
<stop offset="1" stop-color="#FF9900"/>
</linearGradient>
<linearGradient id="paint1_linear_32_204" x1="128.42" y1="295" x2="341.284" y2="135.818" gradientUnits="userSpaceOnUse">
<stop stop-color="white"/>
<stop offset="1" stop-color="white" stop-opacity="0.58"/>
</linearGradient>
</defs>
</svg>
