<svg width="400" height="400" viewBox="0 0 400 400" fill="none" xmlns="http://www.w3.org/2000/svg">
<g filter="url(#filter0_f_32_208)">
<path d="M202.635 70.0971C177.569 104.131 173.222 150.577 195.334 188.877C217.446 227.176 259.844 246.635 301.851 241.944C292.919 254.071 281.356 264.622 267.422 272.667C214.385 303.288 147.076 286.001 117.085 234.054C87.0933 182.108 105.776 115.173 158.814 84.5516C172.748 76.5068 187.667 71.7688 202.635 70.0971Z" fill="#FFEE94"/>
</g>
<g filter="url(#filter1_i_32_208)">
<path d="M200.298 84.4386C177.416 115.506 173.449 157.904 193.633 192.865C213.818 227.825 252.52 245.588 290.865 241.306C282.712 252.376 272.157 262.007 259.438 269.351C211.023 297.303 149.582 281.522 122.205 234.104C94.8276 186.685 111.882 125.585 160.297 97.6331C173.016 90.2896 186.634 85.9645 200.298 84.4386Z" fill="url(#paint0_linear_32_208)"/>
</g>
<g filter="url(#filter2_b_32_208)">
<g filter="url(#filter3_i_32_208)">
<path d="M329.207 240.466C330.065 235.605 330.512 230.604 330.512 225.499C330.512 177.747 291.35 139.037 243.041 139.037C207.128 139.037 176.269 160.431 162.798 191.029C151.885 181.716 137.723 176.092 122.248 176.092C87.7416 176.092 59.7686 204.05 59.7686 238.537C59.7686 240.458 59.8554 242.358 60.0251 244.234C43.4282 252.27 32 269.131 32 288.63C32 315.917 54.3784 338.037 81.9835 338.037H318.017C345.622 338.037 368 315.917 368 288.63C368 265.146 351.424 245.489 329.207 240.466Z" fill="url(#paint1_linear_32_208)"/>
</g>
</g>
<defs>
<filter id="filter0_f_32_208" x="49.7749" y="17.0972" width="305.076" height="323.712" filterUnits="userSpaceOnUse" color-interpolation-filters="sRGB">
<feFlood flood-opacity="0" result="BackgroundImageFix"/>
<feBlend mode="normal" in="SourceGraphic" in2="BackgroundImageFix" result="shape"/>
<feGaussianBlur stdDeviation="26.5" result="effect1_foregroundBlur_32_208"/>
</filter>
<filter id="filter1_i_32_208" x="109.142" y="84.4385" width="181.723" height="202.735" filterUnits="userSpaceOnUse" color-interpolation-filters="sRGB">
<feFlood flood-opacity="0" result="BackgroundImageFix"/>
<feBlend mode="normal" in="SourceGraphic" in2="BackgroundImageFix" result="shape"/>
<feColorMatrix in="SourceAlpha" type="matrix" values="0 0 0 0 0 0 0 0 0 0 0 0 0 0 0 0 0 0 127 0" result="hardAlpha"/>
<feOffset dy="4"/>
<feGaussianBlur stdDeviation="4"/>
<feComposite in2="hardAlpha" operator="arithmetic" k2="-1" k3="1"/>
<feColorMatrix type="matrix" values="0 0 0 0 1 0 0 0 0 1 0 0 0 0 1 0 0 0 0.55 0"/>
<feBlend mode="normal" in2="shape" result="effect1_innerShadow_32_208"/>
</filter>
<filter id="filter2_b_32_208" x="5" y="112.037" width="390" height="253" filterUnits="userSpaceOnUse" color-interpolation-filters="sRGB">
<feFlood flood-opacity="0" result="BackgroundImageFix"/>
<feGaussianBlur in="BackgroundImageFix" stdDeviation="13.5"/>
<feComposite in2="SourceAlpha" operator="in" result="effect1_backgroundBlur_32_208"/>
<feBlend mode="normal" in="SourceGraphic" in2="effect1_backgroundBlur_32_208" result="shape"/>
</filter>
<filter id="filter3_i_32_208" x="32" y="139.037" width="336" height="209" filterUnits="userSpaceOnUse" color-interpolation-filters="sRGB">
<feFlood flood-opacity="0" result="BackgroundImageFix"/>
<feBlend mode="normal" in="SourceGraphic" in2="BackgroundImageFix" result="shape"/>
<feColorMatrix in="SourceAlpha" type="matrix" values="0 0 0 0 0 0 0 0 0 0 0 0 0 0 0 0 0 0 127 0" result="hardAlpha"/>
<feOffset dy="11"/>
<feGaussianBlur stdDeviation="5"/>
<feComposite in2="hardAlpha" operator="arithmetic" k2="-1" k3="1"/>
<feColorMatrix type="matrix" values="0 0 0 0 1 0 0 0 0 1 0 0 0 0 1 0 0 0 1 0"/>
<feBlend mode="normal" in2="shape" result="effect1_innerShadow_32_208"/>
</filter>
<linearGradient id="paint0_linear_32_208" x1="205.281" y1="67.9628" x2="168.955" y2="287.914" gradientUnits="userSpaceOnUse">
<stop stop-color="#FFEE94"/>
<stop offset="1" stop-color="#FF9900"/>
</linearGradient>
<linearGradient id="paint1_linear_32_208" x1="53.371" y1="320.269" x2="391.774" y2="66.6192" gradientUnits="userSpaceOnUse">
<stop stop-color="white"/>
<stop offset="1" stop-color="white" stop-opacity="0.58"/>
</linearGradient>
</defs>
</svg>
