<svg width="400" height="400" viewBox="0 0 400 400" fill="none" xmlns="http://www.w3.org/2000/svg">
<g clip-path="url(#clip0_32_197)">
<g filter="url(#filter0_b_32_197)">
<g filter="url(#filter1_i_32_197)">
<path d="M320.747 157.878C321.549 153.324 321.967 148.639 321.967 143.858C321.967 99.1291 285.369 62.8691 240.223 62.8691C206.661 62.8691 177.823 82.9088 165.234 111.57C155.035 102.846 141.801 97.5786 127.339 97.5786C95.0918 97.5786 68.9504 123.766 68.9504 156.071C68.9504 157.869 69.0315 159.649 69.1902 161.407C53.6799 168.934 43 184.728 43 202.993C43 228.552 63.9131 249.272 89.7108 249.272H310.289C336.087 249.272 357 228.552 357 202.993C357 180.995 341.51 162.582 320.747 157.878Z" fill="url(#paint0_linear_32_197)"/>
</g>
</g>
<g opacity="0.54" filter="url(#filter2_f_32_197)">
<ellipse cx="149.564" cy="185.718" rx="52.2063" ry="48.2341" fill="white"/>
<ellipse cx="199.5" cy="154.508" rx="68.0952" ry="72.6349" fill="white"/>
<ellipse cx="290.294" cy="141.456" rx="52.2063" ry="48.2341" fill="white"/>
<ellipse cx="117.218" cy="224.305" rx="60.7183" ry="56.1786" fill="white"/>
<ellipse cx="96.7896" cy="235.087" rx="34.6151" ry="31.7778" fill="white"/>
</g>
<path d="M132.044 195.41L198.727 302.103" stroke="#00BCFF" stroke-width="9" stroke-linecap="round"/>
<path d="M148.132 221.624L154.652 191.172" stroke="#00BCFF" stroke-width="9" stroke-linecap="round"/>
<path d="M148.132 221.624L117.309 214.511" stroke="#00BCFF" stroke-width="9" stroke-linecap="round"/>
<path d="M183.696 278.527L213.927 286.01" stroke="#00BCFF" stroke-width="9" stroke-linecap="round"/>
<path d="M183.696 278.527L176.583 309.35" stroke="#00BCFF" stroke-width="9" stroke-linecap="round"/>
<path d="M194.936 193.809L135.879 304.905" stroke="#00BCFF" stroke-width="9" stroke-linecap="round"/>
<path d="M180.278 220.849L209.911 211.269" stroke="#00BCFF" stroke-width="9" stroke-linecap="round"/>
<path d="M180.278 220.849L171.026 190.599" stroke="#00BCFF" stroke-width="9" stroke-linecap="round"/>
<path d="M148.781 280.099L157.415 310.021" stroke="#00BCFF" stroke-width="9" stroke-linecap="round"/>
<path d="M148.781 280.099L118.531 289.351" stroke="#00BCFF" stroke-width="9" stroke-linecap="round"/>
<path d="M227.768 247.474L102.028 251.877" stroke="#00BCFF" stroke-width="9" stroke-linecap="round"/>
<path d="M197.022 248.3L220.135 269.173" stroke="#00BCFF" stroke-width="9" stroke-linecap="round"/>
<path d="M197.022 248.3L218.594 225.163" stroke="#00BCFF" stroke-width="9" stroke-linecap="round"/>
<path d="M129.961 250.648L108.365 273.086" stroke="#00BCFF" stroke-width="9" stroke-linecap="round"/>
<path d="M129.961 250.648L106.824 229.076" stroke="#00BCFF" stroke-width="9" stroke-linecap="round"/>
<path d="M298.38 262.824L273.008 319.803" stroke="#00BCFF" stroke-width="6.00313" stroke-linecap="round"/>
<path d="M292.063 276.702L306.387 270.941" stroke="#00BCFF" stroke-width="6.00313" stroke-linecap="round"/>
<path d="M292.063 276.702L286.444 262.061" stroke="#00BCFF" stroke-width="6.00313" stroke-linecap="round"/>
<path d="M278.531 307.09L283.833 321.59" stroke="#00BCFF" stroke-width="6.00313" stroke-linecap="round"/>
<path d="M278.531 307.09L263.891 312.709" stroke="#00BCFF" stroke-width="6.00313" stroke-linecap="round"/>
<path d="M316.468 288.231L254.437 294.747" stroke="#00BCFF" stroke-width="6.00313" stroke-linecap="round"/>
<path d="M301.291 289.699L313.442 299.224" stroke="#00BCFF" stroke-width="6.00313" stroke-linecap="round"/>
<path d="M301.291 289.699L311.161 277.513" stroke="#00BCFF" stroke-width="6.00313" stroke-linecap="round"/>
<path d="M268.208 293.175L258.302 305.016" stroke="#00BCFF" stroke-width="6.00313" stroke-linecap="round"/>
<path d="M268.208 293.175L256.021 283.305" stroke="#00BCFF" stroke-width="6.00313" stroke-linecap="round"/>
<path d="M303.51 316.599L266.851 266.136" stroke="#00BCFF" stroke-width="6.00313" stroke-linecap="round"/>
<path d="M294.649 304.19L292.476 319.474" stroke="#00BCFF" stroke-width="6.00313" stroke-linecap="round"/>
<path d="M294.649 304.19L310.138 306.644" stroke="#00BCFF" stroke-width="6.00313" stroke-linecap="round"/>
<path d="M275.098 277.276L259.89 274.618" stroke="#00BCFF" stroke-width="6.00313" stroke-linecap="round"/>
<path d="M275.098 277.276L277.552 261.788" stroke="#00BCFF" stroke-width="6.00313" stroke-linecap="round"/>
<g filter="url(#filter3_f_32_197)">
<rect x="81" y="245" width="240" height="35" rx="17.5" fill="#00BCFF"/>
</g>
</g>
<defs>
<filter id="filter0_b_32_197" x="16" y="35.8691" width="368" height="240.403" filterUnits="userSpaceOnUse" color-interpolation-filters="sRGB">
<feFlood flood-opacity="0" result="BackgroundImageFix"/>
<feGaussianBlur in="BackgroundImageFix" stdDeviation="13.5"/>
<feComposite in2="SourceAlpha" operator="in" result="effect1_backgroundBlur_32_197"/>
<feBlend mode="normal" in="SourceGraphic" in2="effect1_backgroundBlur_32_197" result="shape"/>
</filter>
<filter id="filter1_i_32_197" x="43" y="62.8691" width="314" height="196.403" filterUnits="userSpaceOnUse" color-interpolation-filters="sRGB">
<feFlood flood-opacity="0" result="BackgroundImageFix"/>
<feBlend mode="normal" in="SourceGraphic" in2="BackgroundImageFix" result="shape"/>
<feColorMatrix in="SourceAlpha" type="matrix" values="0 0 0 0 0 0 0 0 0 0 0 0 0 0 0 0 0 0 127 0" result="hardAlpha"/>
<feOffset dy="11"/>
<feGaussianBlur stdDeviation="5"/>
<feComposite in2="hardAlpha" operator="arithmetic" k2="-1" k3="1"/>
<feColorMatrix type="matrix" values="0 0 0 0 1 0 0 0 0 1 0 0 0 0 1 0 0 0 1 0"/>
<feBlend mode="normal" in2="shape" result="effect1_innerShadow_32_197"/>
</filter>
<filter id="filter2_f_32_197" x="-2.32437" y="23.0482" width="403.649" height="316.26" filterUnits="userSpaceOnUse" color-interpolation-filters="sRGB">
<feFlood flood-opacity="0" result="BackgroundImageFix"/>
<feBlend mode="normal" in="SourceGraphic" in2="BackgroundImageFix" result="shape"/>
<feGaussianBlur stdDeviation="29.4122" result="effect1_foregroundBlur_32_197"/>
</filter>
<filter id="filter3_f_32_197" x="3" y="167" width="396" height="191" filterUnits="userSpaceOnUse" color-interpolation-filters="sRGB">
<feFlood flood-opacity="0" result="BackgroundImageFix"/>
<feBlend mode="normal" in="SourceGraphic" in2="BackgroundImageFix" result="shape"/>
<feGaussianBlur stdDeviation="39" result="effect1_foregroundBlur_32_197"/>
</filter>
<linearGradient id="paint0_linear_32_197" x1="62.9717" y1="232.629" x2="379.746" y2="-4.2581" gradientUnits="userSpaceOnUse">
<stop stop-color="white"/>
<stop offset="1" stop-color="white" stop-opacity="0.58"/>
</linearGradient>
<clipPath id="clip0_32_197">
<rect width="400" height="400" fill="white"/>
</clipPath>
</defs>
</svg>
