<svg width="400" height="400" viewBox="0 0 400 400" fill="none" xmlns="http://www.w3.org/2000/svg">
<g clip-path="url(#clip0_13_194)">
<g filter="url(#filter0_f_13_194)">
<rect x="115.5" y="66.5" width="240" height="226" rx="94" fill="#FFEF9A"/>
</g>
<g filter="url(#filter1_i_13_194)">
<path d="M339.5 197.5C339.5 254.938 292.938 301.5 235.5 301.5C178.062 301.5 131.5 254.938 131.5 197.5C131.5 140.062 178.062 93.5 235.5 93.5C292.938 93.5 339.5 140.062 339.5 197.5Z" fill="url(#paint0_linear_13_194)"/>
</g>
<g filter="url(#filter2_b_13_194)">
<g filter="url(#filter3_i_13_194)">
<path d="M294.826 251.129C295.549 247.024 295.926 242.802 295.926 238.493C295.926 198.18 262.941 165.5 222.252 165.5C192.003 165.5 166.012 183.561 154.666 209.393C145.474 201.53 133.547 196.783 120.512 196.783C91.449 196.783 67.8884 220.385 67.8884 249.5C67.8884 251.121 67.9615 252.725 68.1045 254.309C54.1255 261.093 44.5 275.328 44.5 291.79C44.5 314.826 63.3485 333.5 86.5992 333.5H285.401C308.652 333.5 327.5 314.826 327.5 291.79C327.5 271.964 313.539 255.369 294.826 251.129Z" fill="url(#paint1_linear_13_194)"/>
</g>
</g>
</g>
<defs>
<filter id="filter0_f_13_194" x="38.5" y="-10.5" width="394" height="380" filterUnits="userSpaceOnUse" color-interpolation-filters="sRGB">
<feFlood flood-opacity="0" result="BackgroundImageFix"/>
<feBlend mode="normal" in="SourceGraphic" in2="BackgroundImageFix" result="shape"/>
<feGaussianBlur stdDeviation="38.5" result="effect1_foregroundBlur_13_194"/>
</filter>
<filter id="filter1_i_13_194" x="131.5" y="93.5" width="208" height="213" filterUnits="userSpaceOnUse" color-interpolation-filters="sRGB">
<feFlood flood-opacity="0" result="BackgroundImageFix"/>
<feBlend mode="normal" in="SourceGraphic" in2="BackgroundImageFix" result="shape"/>
<feColorMatrix in="SourceAlpha" type="matrix" values="0 0 0 0 0 0 0 0 0 0 0 0 0 0 0 0 0 0 127 0" result="hardAlpha"/>
<feOffset dy="5"/>
<feGaussianBlur stdDeviation="9"/>
<feComposite in2="hardAlpha" operator="arithmetic" k2="-1" k3="1"/>
<feColorMatrix type="matrix" values="0 0 0 0 1 0 0 0 0 1 0 0 0 0 1 0 0 0 0.81 0"/>
<feBlend mode="normal" in2="shape" result="effect1_innerShadow_13_194"/>
</filter>
<filter id="filter2_b_13_194" x="17.5" y="138.5" width="337" height="222" filterUnits="userSpaceOnUse" color-interpolation-filters="sRGB">
<feFlood flood-opacity="0" result="BackgroundImageFix"/>
<feGaussianBlur in="BackgroundImageFix" stdDeviation="13.5"/>
<feComposite in2="SourceAlpha" operator="in" result="effect1_backgroundBlur_13_194"/>
<feBlend mode="normal" in="SourceGraphic" in2="effect1_backgroundBlur_13_194" result="shape"/>
</filter>
<filter id="filter3_i_13_194" x="44.5" y="165.5" width="283" height="178" filterUnits="userSpaceOnUse" color-interpolation-filters="sRGB">
<feFlood flood-opacity="0" result="BackgroundImageFix"/>
<feBlend mode="normal" in="SourceGraphic" in2="BackgroundImageFix" result="shape"/>
<feColorMatrix in="SourceAlpha" type="matrix" values="0 0 0 0 0 0 0 0 0 0 0 0 0 0 0 0 0 0 127 0" result="hardAlpha"/>
<feOffset dy="11"/>
<feGaussianBlur stdDeviation="5"/>
<feComposite in2="hardAlpha" operator="arithmetic" k2="-1" k3="1"/>
<feColorMatrix type="matrix" values="0 0 0 0 1 0 0 0 0 1 0 0 0 0 1 0 0 0 1 0"/>
<feBlend mode="normal" in2="shape" result="effect1_innerShadow_13_194"/>
</filter>
<linearGradient id="paint0_linear_13_194" x1="219.703" y1="254.108" x2="305.272" y2="104.032" gradientUnits="userSpaceOnUse">
<stop stop-color="#FF9900"/>
<stop offset="1" stop-color="#FFEE94"/>
</linearGradient>
<linearGradient id="paint1_linear_13_194" x1="62.5" y1="318.5" x2="348" y2="105" gradientUnits="userSpaceOnUse">
<stop stop-color="white"/>
<stop offset="1" stop-color="white" stop-opacity="0.58"/>
</linearGradient>
<clipPath id="clip0_13_194">
<rect width="400" height="400" fill="white"/>
</clipPath>
</defs>
</svg>
