<svg width="400" height="400" viewBox="0 0 400 400" fill="none" xmlns="http://www.w3.org/2000/svg">
<g filter="url(#filter0_b_32_202)">
<g filter="url(#filter1_i_32_202)">
<path d="M329.247 170.167C330.049 165.613 330.467 160.929 330.467 156.148C330.467 111.419 293.869 75.1588 248.723 75.1588C215.161 75.1588 186.323 95.1985 173.734 123.86C163.535 115.136 150.301 109.868 135.839 109.868C103.592 109.868 77.4504 136.056 77.4504 168.36C77.4504 170.159 77.5315 171.939 77.6902 173.696C62.1799 181.223 51.5 197.017 51.5 215.282C51.5 240.842 72.4131 261.562 98.2108 261.562H318.789C344.587 261.562 365.5 240.842 365.5 215.282C365.5 193.285 350.01 174.872 329.247 170.167Z" fill="url(#paint0_linear_32_202)"/>
</g>
</g>
<path d="M79.4771 242.392C79.4771 242.392 216.566 243.706 246.247 235.086C275.928 226.466 275.89 181.728 246.247 170.7C216.604 159.672 206.473 199.091 206.473 199.091" stroke="#D0D0D0" stroke-width="20" stroke-linecap="round"/>
<path d="M34.5 288.409C34.5 288.409 135.108 279.319 179.461 288.409C223.814 297.499 209.691 323.576 188.671 324.768C167.651 325.96 148.254 312.148 148.254 312.148" stroke="#D0D0D0" stroke-width="20" stroke-linecap="round"/>
<path d="M248.637 288.342H288.637" stroke="#D0D0D0" stroke-width="20" stroke-linecap="round"/>
<defs>
<filter id="filter0_b_32_202" x="24.5" y="48.1588" width="368" height="240.403" filterUnits="userSpaceOnUse" color-interpolation-filters="sRGB">
<feFlood flood-opacity="0" result="BackgroundImageFix"/>
<feGaussianBlur in="BackgroundImageFix" stdDeviation="13.5"/>
<feComposite in2="SourceAlpha" operator="in" result="effect1_backgroundBlur_32_202"/>
<feBlend mode="normal" in="SourceGraphic" in2="effect1_backgroundBlur_32_202" result="shape"/>
</filter>
<filter id="filter1_i_32_202" x="51.5" y="75.1588" width="314" height="196.403" filterUnits="userSpaceOnUse" color-interpolation-filters="sRGB">
<feFlood flood-opacity="0" result="BackgroundImageFix"/>
<feBlend mode="normal" in="SourceGraphic" in2="BackgroundImageFix" result="shape"/>
<feColorMatrix in="SourceAlpha" type="matrix" values="0 0 0 0 0 0 0 0 0 0 0 0 0 0 0 0 0 0 127 0" result="hardAlpha"/>
<feOffset dy="11"/>
<feGaussianBlur stdDeviation="5"/>
<feComposite in2="hardAlpha" operator="arithmetic" k2="-1" k3="1"/>
<feColorMatrix type="matrix" values="0 0 0 0 1 0 0 0 0 1 0 0 0 0 1 0 0 0 1 0"/>
<feBlend mode="normal" in2="shape" result="effect1_innerShadow_32_202"/>
</filter>
<linearGradient id="paint0_linear_32_202" x1="71.4717" y1="244.919" x2="388.246" y2="8.03157" gradientUnits="userSpaceOnUse">
<stop stop-color="white"/>
<stop offset="1" stop-color="white" stop-opacity="0.58"/>
</linearGradient>
</defs>
</svg>
